<svg version="1.1" id="Layer_1" xmlns="http://www.w3.org/2000/svg" xmlns:xlink="http://www.w3.org/1999/xlink" x="0px" y="0px"
	 width="100%" viewBox="0 0 612 612" enable-background="new 0 0 612 612" xml:space="preserve">
<path fill="#008EFE" opacity="1.000000" stroke="none" 
	d="
M412.000000,613.000000 
	C274.666718,613.000000 137.833450,613.000000 1.000129,613.000000 
	C1.000086,409.000153 1.000086,205.000290 1.000043,1.000320 
	C204.999771,1.000213 408.999542,1.000213 612.999512,1.000107 
	C612.999634,204.999695 612.999634,408.999390 612.999817,612.999512 
	C546.166687,613.000000 479.333344,613.000000 412.000000,613.000000 
M400.901062,136.889542 
	C400.907166,157.928070 400.913269,178.966599 400.195007,200.267441 
	C398.759613,199.901733 397.324249,199.536026 395.928467,199.095154 
	C395.928467,199.095154 395.850983,199.060303 395.881989,198.547272 
	C395.693665,198.277679 395.505371,198.008102 395.178223,197.023026 
	C375.738953,149.489655 323.614899,125.766098 275.463928,142.982895 
	C247.488220,152.985840 228.784836,172.788467 217.080383,200.214645 
	C215.745377,200.134827 214.410355,200.055008 213.118835,199.129608 
	C213.077850,198.008545 213.036865,196.887497 213.192841,195.688187 
	C213.289551,195.439697 213.226181,195.272675 213.123978,194.232895 
	C213.074326,175.074142 213.024673,155.915375 213.225082,136.152039 
	C214.299789,134.799332 215.230652,133.294113 216.474625,132.120865 
	C221.353577,127.519356 220.804688,119.255852 215.296982,115.756927 
	C210.336365,112.605545 203.734512,113.938225 200.862411,118.670769 
	C197.490479,124.226875 199.530518,130.301224 205.939346,134.901932 
	C205.994370,156.951630 206.049393,179.001328 205.880753,201.711090 
	C203.858093,203.586426 201.836334,205.462723 199.812607,207.336914 
	C191.443451,215.087631 188.076965,224.604187 190.718063,235.716904 
	C193.386765,246.945831 200.406891,254.322479 211.892685,258.050934 
	C211.980850,267.045044 212.069031,276.039124 212.014633,285.856812 
	C212.953461,300.026001 223.348526,310.290009 237.499237,310.772217 
	C244.138840,310.998474 250.793228,310.762970 257.437531,310.900818 
	C258.975311,310.932678 261.049194,311.146698 261.920715,312.126740 
	C264.069244,314.542725 265.662811,317.452179 266.855865,320.532837 
	C205.115936,352.883759 200.227158,442.981567 257.988831,482.104736 
	C262.399292,485.092010 265.998322,489.277283 270.128723,493.576782 
	C270.728119,494.371735 271.290222,495.198273 271.932404,495.957062 
	C290.697021,518.130127 317.173004,520.434204 336.805695,501.269043 
	C341.743622,496.448792 345.684784,490.607513 350.786377,485.103516 
	C381.701416,465.966339 397.113403,437.839478 396.359314,401.867126 
	C395.595886,365.448669 378.615326,337.899658 346.685059,319.425232 
	C347.995728,317.933777 349.938690,316.643219 350.489288,314.910278 
	C351.750671,310.940521 354.437531,310.743317 357.826263,310.845184 
	C363.806061,311.024933 369.800385,311.046021 375.779694,310.854248 
	C390.968018,310.367004 401.750061,299.629944 402.002716,284.141235 
	C402.055206,275.155029 402.107666,266.168854 402.902039,257.074493 
	C422.313690,251.436356 430.452515,229.219528 418.792389,212.789780 
	C415.889435,208.699371 411.538330,205.636749 408.007782,201.149216 
	C407.969025,179.346191 407.930267,157.543152 408.240356,135.185730 
	C409.349457,133.981155 410.422028,132.740341 411.574554,131.578842 
	C415.019165,128.107529 415.677399,122.940842 413.159943,118.808426 
	C410.681641,114.740295 406.170837,112.997597 401.489624,114.299782 
	C397.150970,115.506668 394.084991,119.732567 394.139557,124.452583 
	C394.194427,129.201782 397.006317,132.043488 400.840546,134.756439 
	C400.916107,135.157578 400.991669,135.558731 400.901062,136.889542 
M515.417236,143.883148 
	C496.772919,143.882812 478.128632,143.873840 459.484314,143.884628 
	C441.157104,143.895218 426.630829,154.918274 421.539124,172.653381 
	C416.851746,188.980087 424.186249,206.761444 439.409882,216.009064 
	C440.483734,216.661392 441.506775,217.397369 442.680511,218.179077 
	C440.453583,222.527756 438.394470,226.548706 435.707916,231.794846 
	C440.349274,229.376068 443.874542,227.890305 447.018555,225.824341 
	C452.834839,222.002380 459.053802,220.971848 465.942902,221.107178 
	C482.749451,221.437332 499.568085,221.318130 516.380005,221.169754 
	C538.002014,220.978928 554.994385,204.130127 555.065674,183.042725 
	C555.139832,161.102585 538.477112,144.233490 515.417236,143.883148 
M285.500244,539.006775 
	C251.687149,539.070251 232.423019,540.861511 228.573654,544.642517 
	C232.735580,545.450500 236.583923,546.596680 240.495132,546.882446 
	C252.421082,547.753662 264.377502,548.949646 276.310822,548.836121 
	C309.079285,548.524414 341.843719,547.673767 374.604614,546.835388 
	C378.015961,546.748047 381.392914,545.316101 384.785828,544.507996 
	C384.747528,544.027100 384.709229,543.546143 384.670959,543.065186 
	C383.681213,542.723633 382.707611,542.144470 381.699341,542.076050 
	C366.127167,541.018433 350.563263,539.622559 334.971405,539.132446 
	C318.828949,538.625000 302.658417,539.010986 285.500244,539.006775 
z"/>
<path fill="#EEEFF1" opacity="1.000000" stroke="none" 
	d="
M350.083984,485.235443 
	C345.684784,490.607513 341.743622,496.448792 336.805695,501.269043 
	C317.173004,520.434204 290.697021,518.130127 271.932404,495.957062 
	C271.290222,495.198273 270.728119,494.371735 270.024719,492.880219 
	C268.437469,489.685883 267.073273,487.106689 265.437469,484.713135 
	C263.794159,482.308472 261.243011,480.343781 260.201019,477.741333 
	C256.647766,468.866760 252.830902,459.983643 250.532272,450.750854 
	C247.901550,440.184052 246.017334,429.297882 245.201004,418.445740 
	C244.116135,404.023163 244.841370,389.518250 248.079895,375.306641 
	C250.686584,363.867737 252.580872,352.222900 258.772980,341.864227 
	C262.839264,335.061798 266.319336,327.908936 270.414062,321.010132 
	C272.929749,321.927795 275.054108,322.877136 277.262848,323.548859 
	C299.314209,330.255127 321.181213,329.426178 343.044647,322.129242 
	C353.465027,334.598541 359.837250,348.721039 363.399078,364.055573 
	C365.720947,374.051880 367.999084,384.190216 368.788239,394.381714 
	C370.189819,412.482697 368.679382,430.522552 364.423920,448.254364 
	C361.310272,461.228394 356.825897,473.669159 350.083984,485.235443 
z"/>
<path fill="#ECEEF0" opacity="1.000000" stroke="none" 
	d="
M402.160156,257.182648 
	C402.107666,266.168854 402.055206,275.155029 401.730103,284.886902 
	C398.632996,295.282166 391.648956,300.877045 381.240509,300.901337 
	C332.359619,301.015442 283.477173,301.128204 234.598022,300.814453 
	C223.258438,300.741669 215.811111,296.786987 212.157211,285.033234 
	C212.069031,276.039124 211.980850,267.045044 211.897385,257.118469 
	C211.933121,249.882904 212.100937,243.576874 211.966431,237.277267 
	C211.694626,224.548950 213.829468,212.232590 217.884521,200.209106 
	C228.784836,172.788467 247.488220,152.985840 275.463928,142.982895 
	C323.614899,125.766098 375.738953,149.489655 395.262421,197.623169 
	C395.439606,198.547531 395.607727,198.826523 395.850983,199.060303 
	C395.850983,199.060303 395.928467,199.095154 395.981567,199.487946 
	C400.626648,208.996658 401.505463,218.920578 401.928009,228.840942 
	C402.329834,238.274353 402.107849,247.734344 402.160156,257.182648 
M234.912415,219.644623 
	C234.789642,220.067307 234.666855,220.489990 234.085510,221.036575 
	C234.052414,221.690720 234.019333,222.344879 234.005875,223.860764 
	C233.694611,238.500763 233.156906,253.140717 233.153656,267.780792 
	C233.151566,277.155548 239.589951,283.023560 249.261627,283.038452 
	C287.903473,283.097961 326.545471,283.100616 365.187347,283.058533 
	C374.052338,283.048859 380.919434,277.047028 380.803650,268.325104 
	C380.576477,251.215408 379.609650,234.115494 379.356293,216.490891 
	C375.921722,193.610855 363.427704,176.845764 344.089661,164.919388 
	C329.515594,155.931122 313.243469,152.768036 296.658752,155.454636 
	C271.921143,159.461960 253.327713,173.251617 241.573013,195.517624 
	C237.757874,202.744354 234.080444,210.301147 234.912415,219.644623 
z"/>
<path fill="#FCFDFD" opacity="1.000000" stroke="none" 
	d="
M515.902100,143.884094 
	C538.477112,144.233490 555.139832,161.102585 555.065674,183.042725 
	C554.994385,204.130127 538.002014,220.978928 516.380005,221.169754 
	C499.568085,221.318130 482.749451,221.437332 465.942902,221.107178 
	C459.053802,220.971848 452.834839,222.002380 447.018555,225.824341 
	C443.874542,227.890305 440.349274,229.376068 435.707916,231.794846 
	C438.394470,226.548706 440.453583,222.527756 442.680511,218.179077 
	C441.506775,217.397369 440.483734,216.661392 439.409882,216.009064 
	C424.186249,206.761444 416.851746,188.980087 421.539124,172.653381 
	C426.630829,154.918274 441.157104,143.895218 459.484314,143.884628 
	C478.128632,143.873840 496.772919,143.882812 515.902100,143.884094 
M496.178772,183.382492 
	C495.507935,177.118256 491.977509,173.708344 486.783173,174.307602 
	C482.368744,174.816895 479.209717,178.227768 479.049103,182.658371 
	C478.901672,186.724228 481.907043,190.485229 485.886353,191.214706 
	C490.893738,192.132690 494.206177,189.857834 496.178772,183.382492 
M527.974670,186.236115 
	C529.706543,179.257263 525.956970,173.768433 519.668884,174.246475 
	C515.365417,174.573608 512.485718,176.881485 511.677002,181.198883 
	C510.876434,185.473007 512.637512,188.724350 516.482300,190.645264 
	C520.362610,192.583969 524.321716,191.163284 527.974670,186.236115 
M460.873657,189.343857 
	C465.063782,184.085281 464.720581,178.684067 460.002258,175.630234 
	C456.481171,173.351257 451.914185,173.865417 449.054626,176.862732 
	C446.313110,179.736359 445.969757,184.685333 448.287659,187.916962 
	C450.909698,191.572647 455.131012,192.233932 460.873657,189.343857 
z"/>
<path fill="#FBFDFD" opacity="1.000000" stroke="none" 
	d="
M270.061920,320.912994 
	C266.319336,327.908936 262.839264,335.061798 258.772980,341.864227 
	C252.580872,352.222900 250.686584,363.867737 248.079895,375.306641 
	C244.841370,389.518250 244.116135,404.023163 245.201004,418.445740 
	C246.017334,429.297882 247.901550,440.184052 250.532272,450.750854 
	C252.830902,459.983643 256.647766,468.866760 260.201019,477.741333 
	C261.243011,480.343781 263.794159,482.308472 265.437469,484.713135 
	C267.073273,487.106689 268.437469,489.685883 269.947632,492.544678 
	C265.998322,489.277283 262.399292,485.092010 257.988831,482.104736 
	C200.227158,442.981567 205.115936,352.883759 267.449158,320.363953 
	C268.715576,320.434387 269.388763,320.673706 270.061920,320.912994 
z"/>
<path fill="#FBFDFE" opacity="1.000000" stroke="none" 
	d="
M350.435181,485.169495 
	C356.825897,473.669159 361.310272,461.228394 364.423920,448.254364 
	C368.679382,430.522552 370.189819,412.482697 368.788239,394.381714 
	C367.999084,384.190216 365.720947,374.051880 363.399078,364.055573 
	C359.837250,348.721039 353.465027,334.598541 343.256866,321.929688 
	C344.346008,320.997711 345.402832,320.563019 346.459656,320.128326 
	C378.615326,337.899658 395.595886,365.448669 396.359314,401.867126 
	C397.113403,437.839478 381.701416,465.966339 350.435181,485.169495 
z"/>
<path fill="#CFD2D5" opacity="1.000000" stroke="none" 
	d="
M346.572357,319.776794 
	C345.402832,320.563019 344.346008,320.997711 343.076965,321.631958 
	C321.181213,329.426178 299.314209,330.255127 277.262848,323.548859 
	C275.054108,322.877136 272.929749,321.927795 270.414062,321.010132 
	C269.388763,320.673706 268.715576,320.434387 267.760956,320.179169 
	C265.662811,317.452179 264.069244,314.542725 261.920715,312.126740 
	C261.049194,311.146698 258.975311,310.932678 257.437531,310.900818 
	C250.793228,310.762970 244.138840,310.998474 237.499237,310.772217 
	C223.348526,310.290009 212.953461,300.026001 212.085922,285.445007 
	C215.811111,296.786987 223.258438,300.741669 234.598022,300.814453 
	C283.477173,301.128204 332.359619,301.015442 381.240509,300.901337 
	C391.648956,300.877045 398.632996,295.282166 401.654297,285.355133 
	C401.750061,299.629944 390.968018,310.367004 375.779694,310.854248 
	C369.800385,311.046021 363.806061,311.024933 357.826263,310.845184 
	C354.437531,310.743317 351.750671,310.940521 350.489288,314.910278 
	C349.938690,316.643219 347.995728,317.933777 346.572357,319.776794 
z"/>
<path fill="#2EA3FE" opacity="1.000000" stroke="none" 
	d="
M286.000183,539.006531 
	C302.658417,539.010986 318.828949,538.625000 334.971405,539.132446 
	C350.563263,539.622559 366.127167,541.018433 381.699341,542.076050 
	C382.707611,542.144470 383.681213,542.723633 384.670959,543.065186 
	C384.709229,543.546143 384.747528,544.027100 384.785828,544.507996 
	C381.392914,545.316101 378.015961,546.748047 374.604614,546.835388 
	C341.843719,547.673767 309.079285,548.524414 276.310822,548.836121 
	C264.377502,548.949646 252.421082,547.753662 240.495132,546.882446 
	C236.583923,546.596680 232.735580,545.450500 228.573654,544.642517 
	C232.423019,540.861511 251.687149,539.070251 286.000183,539.006531 
z"/>
<path fill="#CFD2D6" opacity="1.000000" stroke="none" 
	d="
M217.482452,200.211884 
	C213.829468,212.232590 211.694626,224.548950 211.966431,237.277267 
	C212.100937,243.576874 211.933121,249.882904 211.868988,256.658875 
	C200.406891,254.322479 193.386765,246.945831 190.718063,235.716904 
	C188.076965,224.604187 191.443451,215.087631 199.812607,207.336914 
	C201.836334,205.462723 203.858093,203.586426 206.192215,201.391205 
	C206.503677,201.071335 206.903778,201.072388 206.932312,201.081207 
	C206.960831,201.090027 206.955765,201.149902 207.223923,201.322998 
	C209.353165,200.989136 211.214264,200.482178 213.075348,199.975204 
	C214.410355,200.055008 215.745377,200.134827 217.482452,200.211884 
z"/>
<path fill="#CFD2D6" opacity="1.000000" stroke="none" 
	d="
M402.531097,257.128571 
	C402.107849,247.734344 402.329834,238.274353 401.928009,228.840942 
	C401.505463,218.920578 400.626648,208.996658 395.961792,199.525528 
	C397.324249,199.536026 398.759613,199.901733 400.775116,200.334229 
	C401.900574,200.601974 402.445892,200.802933 403.237244,201.006409 
	C403.483215,201.008926 403.975220,201.003143 404.234314,201.227859 
	C405.613220,201.668961 406.733032,201.885345 407.852844,202.101730 
	C411.538330,205.636749 415.889435,208.699371 418.792389,212.789780 
	C430.452515,229.219528 422.313690,251.436356 402.531097,257.128571 
z"/>
<path fill="#EEEFEF" opacity="1.000000" stroke="none" 
	d="
M206.903778,201.072388 
	C206.903778,201.072388 206.503677,201.071335 206.304047,201.061188 
	C206.049393,179.001328 205.994370,156.951630 206.300064,134.570404 
	C208.765518,135.078125 210.870270,135.917374 212.975006,136.756622 
	C213.024673,155.915375 213.074326,175.074142 213.025879,194.853317 
	C212.927780,195.473740 212.995880,195.766434 212.995880,195.766434 
	C213.036865,196.887497 213.077850,198.008545 213.097092,199.552399 
	C211.214264,200.482178 209.353165,200.989136 207.459641,200.961548 
	C207.617920,199.126907 207.972290,197.827133 207.974747,196.526688 
	C208.009888,177.923050 208.001053,159.319321 207.981735,140.715637 
	C207.981064,140.072571 207.761108,139.429733 207.643356,138.786789 
	C207.396835,138.812546 207.150299,138.838303 206.903778,138.864059 
	C206.903778,159.600174 206.903778,180.336273 206.903778,201.072388 
z"/>
<path fill="#CAD1D6" opacity="1.000000" stroke="none" 
	d="
M400.876678,134.145203 
	C397.006317,132.043488 394.194427,129.201782 394.139557,124.452583 
	C394.084991,119.732567 397.150970,115.506668 401.489624,114.299782 
	C406.170837,112.997597 410.681641,114.740295 413.159943,118.808426 
	C415.677399,122.940842 415.019165,128.107529 411.574554,131.578842 
	C410.422028,132.740341 409.349457,133.981155 407.785767,135.279663 
	C406.223145,135.238617 405.115082,135.103607 403.703918,134.842606 
	C402.559418,134.526138 401.718048,134.335663 400.876678,134.145203 
z"/>
<path fill="#CAD1D6" opacity="1.000000" stroke="none" 
	d="
M213.100037,136.454330 
	C210.870270,135.917374 208.765518,135.078125 206.329193,134.100067 
	C199.530518,130.301224 197.490479,124.226875 200.862411,118.670769 
	C203.734512,113.938225 210.336365,112.605545 215.296982,115.756927 
	C220.804688,119.255852 221.353577,127.519356 216.474625,132.120865 
	C215.230652,133.294113 214.299789,134.799332 213.100037,136.454330 
z"/>
<path fill="#ECEFEE" opacity="1.000000" stroke="none" 
	d="
M404.007050,134.968613 
	C405.115082,135.103607 406.223145,135.238617 407.611328,135.556870 
	C407.930267,157.543152 407.969025,179.346191 407.930298,201.625473 
	C406.733032,201.885345 405.613220,201.668961 404.238281,200.758881 
	C403.991089,178.366333 403.999084,156.667480 404.007050,134.968613 
z"/>
<path fill="#EEEFEF" opacity="1.000000" stroke="none" 
	d="
M402.991241,201.003876 
	C402.445892,200.802933 401.900574,200.601974 401.137299,200.203064 
	C400.913269,178.966599 400.907166,157.928070 401.291656,136.667572 
	C402.122681,138.489716 402.935791,140.532028 402.945557,142.578186 
	C403.038574,162.053055 402.995331,181.528564 402.991241,201.003876 
z"/>
<path fill="#E2F3FD" opacity="1.000000" stroke="none" 
	d="
M403.237244,201.006409 
	C402.995331,181.528564 403.038574,162.053055 402.945557,142.578186 
	C402.935791,140.532028 402.122681,138.489716 401.374756,136.202728 
	C400.991669,135.558731 400.916107,135.157578 400.858612,134.450821 
	C401.718048,134.335663 402.559418,134.526138 403.703918,134.842606 
	C403.999084,156.667480 403.991089,178.366333 403.979187,200.534180 
	C403.975220,201.003143 403.483215,201.008926 403.237244,201.006409 
z"/>
<path fill="#CAD1D6" opacity="1.000000" stroke="none" 
	d="
M213.094360,195.727310 
	C212.995880,195.766434 212.927780,195.473740 212.965256,195.330444 
	C213.226181,195.272675 213.289551,195.439697 213.094360,195.727310 
z"/>
<path fill="#CFD2D6" opacity="1.000000" stroke="none" 
	d="
M395.866486,198.803787 
	C395.607727,198.826523 395.439606,198.547531 395.331848,197.980911 
	C395.505371,198.008102 395.693665,198.277679 395.866486,198.803787 
z"/>
<path fill="#37384A" opacity="1.000000" stroke="none" 
	d="
M378.948944,217.011536 
	C379.609650,234.115494 380.576477,251.215408 380.803650,268.325104 
	C380.919434,277.047028 374.052338,283.048859 365.187347,283.058533 
	C326.545471,283.100616 287.903473,283.097961 249.261627,283.038452 
	C239.589951,283.023560 233.151566,277.155548 233.153656,267.780792 
	C233.156906,253.140717 233.694611,238.500763 234.174530,223.207825 
	C234.410156,222.007492 234.477112,221.460083 234.544067,220.912674 
	C234.666855,220.489990 234.789642,220.067307 235.113144,219.013565 
	C235.759476,216.955933 236.212433,215.531631 236.649643,214.102478 
	C252.836945,161.189056 316.233612,143.671967 357.123871,180.809814 
	C368.015320,190.701782 374.492065,203.245377 378.948944,217.011536 
M300.647064,260.164520 
	C314.740845,263.510223 328.113403,255.364029 330.717285,241.932098 
	C331.355164,238.641663 330.695953,236.852158 326.874573,236.880844 
	C313.718750,236.979614 300.560699,237.015076 287.405792,236.868561 
	C283.297760,236.822815 282.435913,238.693192 283.346252,242.144119 
	C285.682892,251.001740 290.994415,257.133942 300.647064,260.164520 
M331.566345,218.771179 
	C335.751892,224.248947 341.272949,225.267456 345.537720,221.348587 
	C349.284729,217.905472 349.399475,212.044189 345.790680,208.481812 
	C342.834808,205.563965 339.289642,205.042816 335.716766,206.746811 
	C330.893463,209.047134 329.933228,213.202301 331.566345,218.771179 
M269.541656,222.060135 
	C275.749176,225.004059 281.607239,222.845886 283.003693,217.100571 
	C284.070160,212.712891 282.190033,208.557098 278.283966,206.668228 
	C274.610046,204.891602 269.512970,206.222519 267.153839,209.574417 
	C264.555939,213.265564 265.180908,217.540894 269.541656,222.060135 
z"/>
<path fill="#CCCED1" opacity="1.000000" stroke="none" 
	d="
M379.152618,216.751221 
	C374.492065,203.245377 368.015320,190.701782 357.123871,180.809814 
	C316.233612,143.671967 252.836945,161.189056 236.649643,214.102478 
	C236.212433,215.531631 235.759476,216.955933 235.104767,218.681824 
	C234.080444,210.301147 237.757874,202.744354 241.573013,195.517624 
	C253.327713,173.251617 271.921143,159.461960 296.658752,155.454636 
	C313.243469,152.768036 329.515594,155.931122 344.089661,164.919388 
	C363.427704,176.845764 375.921722,193.610855 379.152618,216.751221 
z"/>
<path fill="#CCCED1" opacity="1.000000" stroke="none" 
	d="
M234.314789,220.974625 
	C234.477112,221.460083 234.410156,222.007492 234.164719,222.776962 
	C234.019333,222.344879 234.052414,221.690720 234.314789,220.974625 
z"/>
<path fill="#3D3E4E" opacity="1.000000" stroke="none" 
	d="
M496.147888,183.785583 
	C494.206177,189.857834 490.893738,192.132690 485.886353,191.214706 
	C481.907043,190.485229 478.901672,186.724228 479.049103,182.658371 
	C479.209717,178.227768 482.368744,174.816895 486.783173,174.307602 
	C491.977509,173.708344 495.507935,177.118256 496.147888,183.785583 
z"/>
<path fill="#3D3E4E" opacity="1.000000" stroke="none" 
	d="
M527.806152,186.575836 
	C524.321716,191.163284 520.362610,192.583969 516.482300,190.645264 
	C512.637512,188.724350 510.876434,185.473007 511.677002,181.198883 
	C512.485718,176.881485 515.365417,174.573608 519.668884,174.246475 
	C525.956970,173.768433 529.706543,179.257263 527.806152,186.575836 
z"/>
<path fill="#3D3E4E" opacity="1.000000" stroke="none" 
	d="
M460.579865,189.570236 
	C455.131012,192.233932 450.909698,191.572647 448.287659,187.916962 
	C445.969757,184.685333 446.313110,179.736359 449.054626,176.862732 
	C451.914185,173.865417 456.481171,173.351257 460.002258,175.630234 
	C464.720581,178.684067 465.063782,184.085281 460.579865,189.570236 
z"/>
<path fill="#E2F3FD" opacity="1.000000" stroke="none" 
	d="
M206.932312,201.081207 
	C206.903778,180.336273 206.903778,159.600174 206.903778,138.864059 
	C207.150299,138.838303 207.396835,138.812546 207.643356,138.786789 
	C207.761108,139.429733 207.981064,140.072571 207.981735,140.715637 
	C208.001053,159.319321 208.009888,177.923050 207.974747,196.526688 
	C207.972290,197.827133 207.617920,199.126907 207.191483,200.788452 
	C206.955765,201.149902 206.960831,201.090027 206.932312,201.081207 
z"/>
<path fill="#4CEBDC" opacity="1.000000" stroke="none" 
	d="
M300.245972,260.071686 
	C290.994415,257.133942 285.682892,251.001740 283.346252,242.144119 
	C282.435913,238.693192 283.297760,236.822815 287.405792,236.868561 
	C300.560699,237.015076 313.718750,236.979614 326.874573,236.880844 
	C330.695953,236.852158 331.355164,238.641663 330.717285,241.932098 
	C328.113403,255.364029 314.740845,263.510223 300.245972,260.071686 
z"/>
<path fill="#4DE7D9" opacity="1.000000" stroke="none" 
	d="
M331.408752,218.431717 
	C329.933228,213.202301 330.893463,209.047134 335.716766,206.746811 
	C339.289642,205.042816 342.834808,205.563965 345.790680,208.481812 
	C349.399475,212.044189 349.284729,217.905472 345.537720,221.348587 
	C341.272949,225.267456 335.751892,224.248947 331.408752,218.431717 
z"/>
<path fill="#4DE7D9" opacity="1.000000" stroke="none" 
	d="
M269.230103,221.853088 
	C265.180908,217.540894 264.555939,213.265564 267.153839,209.574417 
	C269.512970,206.222519 274.610046,204.891602 278.283966,206.668228 
	C282.190033,208.557098 284.070160,212.712891 283.003693,217.100571 
	C281.607239,222.845886 275.749176,225.004059 269.230103,221.853088 
z"/>
</svg>