<svg version="1.1" id="Layer_1" xmlns="http://www.w3.org/2000/svg" xmlns:xlink="http://www.w3.org/1999/xlink" x="0px" y="0px"
	 width="100%" viewBox="0 0 416 416" enable-background="new 0 0 416 416" xml:space="preserve">
<path fill="#ffda56c2" fill-opacity="0" stroke="none"
	d="
M270.000000,417.000000
	C180.000015,417.000000 90.500023,417.000000 1.000024,417.000000
	C1.000016,278.333374 1.000016,139.666718 1.000008,1.000061
	C139.666626,1.000041 278.333252,1.000041 416.999908,1.000020
	C416.999939,139.666611 416.999939,278.333221 416.999969,416.999908
	C368.166656,417.000000 319.333344,417.000000 270.000000,417.000000
M96.910713,268.666931
	C97.251884,269.145081 97.593048,269.623230 97.981178,270.021667
	C97.981178,270.021667 97.896111,270.058044 97.981369,270.691620
	C98.569183,271.547760 99.156998,272.403870 99.742294,273.296661
	C99.742294,273.296661 99.713203,273.321167 99.864021,274.001617
	C111.560646,293.845123 127.670731,309.052673 148.026154,320.493439
	C154.107224,304.783447 163.489975,292.502136 177.896835,285.197998
	C177.242706,286.511963 176.784210,287.977112 175.903809,289.116180
	C168.131912,299.171570 164.415375,310.914124 161.415115,323.014191
	C160.728134,325.784790 161.551468,327.081482 164.010727,327.884186
	C167.153870,328.910156 170.247192,330.099762 173.417435,331.029816
	C190.817444,336.134491 208.580231,337.725098 226.456390,334.832245
	C235.860046,333.310486 245.038071,330.307526 254.227310,327.658752
	C255.362305,327.331604 256.864655,324.868042 256.626709,323.719757
	C254.408600,313.014862 251.103653,302.689514 245.006042,293.425598
	C243.138123,290.587738 241.752975,287.432098 240.806458,284.722198
	C254.862488,292.921600 264.106567,305.149445 270.247101,321.058289
	C277.364349,315.952209 284.226288,311.597168 290.439117,306.457458
	C304.705994,294.654816 315.995789,280.462006 323.154846,263.178589
	C323.154846,263.178589 323.130829,263.220093 323.655792,263.013794
	C323.751831,262.678253 323.847870,262.342712 324.108765,261.649811
	C324.108765,261.649811 324.085083,261.256989 324.590759,261.018707
	C324.688019,260.685272 324.785278,260.351837 325.038666,259.614197
	C325.038666,259.614197 325.057770,259.181366 325.560883,258.961365
	C325.692047,258.637512 325.823242,258.313660 326.478210,257.496216
	C328.902222,249.333374 331.326202,241.170532 333.974487,232.187424
	C334.595978,224.125107 335.217468,216.062790 335.979340,207.604187
	C335.979340,207.604187 336.012878,207.185120 336.940765,207.057724
	C345.587585,207.052658 354.234406,207.058701 362.881195,207.040222
	C380.426422,207.002731 393.842346,194.045410 393.657959,177.330368
	C393.473999,160.651596 380.313354,148.041794 363.002136,147.974808
	C348.703857,147.919479 334.405518,147.881821 319.972748,147.152679
	C313.586395,135.156982 304.912323,124.984009 294.708618,115.215324
	C263.014343,87.212173 226.159805,76.699318 184.711349,84.332382
	C156.623642,89.504951 132.818680,103.173431 113.538330,125.178680
	C113.228798,125.379845 113.085899,125.664619 112.549393,126.364220
	C111.365082,127.907837 110.180771,129.451447 108.435364,131.297699
	C107.626236,132.532532 106.817108,133.767380 105.447800,135.361069
	C104.298615,137.240067 103.149429,139.119080 101.440849,141.393677
	C98.240959,147.805801 95.041069,154.217926 91.274155,161.119385
	C86.702133,172.971497 83.209564,185.075134 82.314751,198.613159
	C81.494576,212.249802 81.859238,225.782516 85.883957,239.813126
	C89.178207,248.563904 92.472458,257.314697 95.886017,266.678253
	C96.223396,267.166870 96.560776,267.655457 96.926636,268.054962
	C96.926636,268.054962 96.833092,268.055023 96.910713,268.666931
z"/>
<path fill="#01B5FE" opacity="1.000000" stroke="none"
	d="
M114.000366,124.991295
	C132.818680,103.173431 156.623642,89.504951 184.711349,84.332382
	C226.159805,76.699318 263.014343,87.212173 294.856628,115.900330
	C296.415588,119.717155 297.826569,122.848991 299.246185,126.000000
	C294.461121,126.000000 290.529114,125.975731 286.597534,126.003708
	C240.577744,126.331154 194.558044,126.672638 148.538208,126.992989
	C141.632736,127.041061 134.723694,127.122444 127.821869,126.956970
	C123.208885,126.846375 118.605728,126.325974 113.998436,125.739540
	C113.998703,125.490128 114.000366,124.991295 114.000366,124.991295
z"/>
<path fill="#353849" opacity="1.000000" stroke="none"
	d="
M320.107208,147.836334
	C334.405518,147.881821 348.703857,147.919479 363.002136,147.974808
	C380.313354,148.041794 393.473999,160.651596 393.657959,177.330368
	C393.842346,194.045410 380.426422,207.002731 362.881195,207.040222
	C354.234406,207.058701 345.587585,207.052658 336.055756,207.047913
	C333.461456,207.076813 331.752136,207.115509 329.585693,207.088089
	C325.746613,207.066650 322.364685,207.111328 318.742371,207.107117
	C318.501923,207.058243 318.022400,207.162506 317.693756,207.181213
	C315.898529,208.086197 314.431976,208.972443 312.631348,209.917969
	C310.797638,210.849457 309.297974,211.721664 307.466064,212.706543
	C306.074677,213.299911 305.015503,213.780579 303.717163,214.196075
	C303.477936,214.130936 302.993958,214.023178 302.998535,214.011734
	C303.003143,214.000290 302.979889,214.007309 303.059479,213.669693
	C304.840424,210.442566 306.541779,207.553070 308.352966,204.477005
	C298.859619,199.771164 293.789795,192.386734 291.196350,182.699631
	C291.072479,181.558578 290.957428,180.801697 290.904266,179.623322
	C290.922852,177.784348 290.879578,176.366867 290.918518,174.565384
	C294.808319,157.589325 303.932648,149.330658 320.107208,147.836334
M347.561462,168.188797
	C347.666077,168.451141 347.770660,168.713486 348.033539,169.902435
	C347.983002,175.275894 347.932465,180.649368 347.560211,186.186676
	C347.666962,186.450119 347.773712,186.713547 348.032715,187.761505
	C349.010925,189.177139 349.989136,190.592773 350.967377,192.008408
	C351.954498,190.434753 353.706940,188.901886 353.793304,187.280243
	C354.127014,181.018265 354.133698,174.717148 353.802856,168.454865
	C353.704834,166.599594 352.097870,164.824051 351.182373,163.011948
	C350.080841,164.682419 348.979340,166.352890 347.561462,168.188797
M324.818939,173.613342
	C324.531647,173.405182 324.244354,173.197037 323.776215,172.128677
	C323.762238,170.469147 324.152191,168.665070 323.624084,167.189560
	C323.063293,165.622696 321.631500,164.367584 320.580048,162.976303
	C319.704712,164.449158 318.134399,165.893860 318.073425,167.399704
	C317.798431,174.193420 317.791229,181.011185 318.077637,187.803848
	C318.138428,189.246231 319.831879,190.619766 320.773132,192.025009
	C321.774017,190.573410 323.362640,189.226624 323.644440,187.646774
	C324.122375,184.967377 323.775787,182.140945 323.775787,179.420547
	C328.169464,179.420547 332.028503,179.420547 336.001129,179.420547
	C336.001129,182.443985 335.800293,185.118515 336.080688,187.741592
	C336.235107,189.186340 337.198395,190.544647 337.796997,191.941956
	C339.175293,191.303360 340.553558,190.664749 342.501678,189.596817
	C342.357056,188.070740 342.212463,186.544662 341.886658,184.097580
	C341.946716,179.059372 342.006744,174.021164 342.511353,168.704086
	C342.364136,168.141937 342.216888,167.579803 341.873810,166.275009
	C340.725922,165.180984 339.578064,164.086975 338.430176,162.992950
	C337.622406,164.365936 336.443634,165.652832 336.100067,167.133530
	C335.662994,169.016922 335.902496,171.057327 335.435059,173.268616
	C335.203400,173.501633 335.050018,173.778122 334.094086,174.321030
	C331.073273,174.251846 328.052429,174.182648 324.818939,173.613342
M360.945190,166.896759
	C361.026489,172.374298 360.789062,177.905960 363.009705,183.642548
	C365.860931,180.448425 367.820374,167.300262 366.195190,164.632812
	C365.712585,163.840668 364.104187,162.861404 363.624542,163.117188
	C362.534576,163.698410 361.825012,164.992981 360.945190,166.896759
M366.741913,188.813507
	C365.680725,186.543304 364.033966,185.175400 361.924347,187.248352
	C361.212982,187.947372 361.252808,190.730347 361.966125,191.310303
	C364.036438,192.993591 365.865784,192.066650 366.741913,188.813507
z"/>
<path fill="#01AEFE" opacity="1.000000" stroke="none"
	d="
M320.039978,147.494507
	C303.932648,149.330658 294.808319,157.589325 290.676941,174.319824
	C290.284027,171.605988 286.746552,169.003891 289.752258,165.841827
	C289.967102,165.615799 288.686707,163.527115 288.632996,163.550034
	C284.915405,165.136307 284.402649,160.978882 282.104675,159.546143
	C282.038330,155.407379 282.040283,151.724304 282.357788,147.898346
	C286.223938,145.354889 288.533966,141.832886 285.830048,138.191513
	C283.980255,135.700394 279.823273,133.101257 277.114807,133.486038
	C272.805695,134.098190 271.446136,138.476410 272.089783,142.912506
	C272.184875,143.567978 272.256012,144.226929 271.942505,144.961334
	C269.704498,147.329422 267.485657,148.399857 264.394318,148.041794
	C250.275833,146.406448 236.271622,150.726990 221.962387,148.282288
	C213.065277,146.762238 203.694214,147.869995 194.541565,148.065216
	C190.961380,148.141586 187.399338,149.326141 183.824570,149.350494
	C173.687683,149.419510 163.513931,148.618774 153.427261,149.275330
	C149.387360,149.538269 146.902527,148.901062 144.826385,145.522919
	C144.887177,142.521042 145.562607,139.572678 144.590805,137.341888
	C143.112045,133.947357 139.545929,133.037308 136.143143,134.220093
	C132.211258,135.586792 130.922455,138.939606 130.882568,143.140961
	C129.360336,144.170410 128.173920,145.699356 126.958282,145.722946
	C120.017593,145.857727 113.049187,145.889877 106.141136,145.329254
	C104.653473,145.208511 103.375046,142.509460 102.000244,140.998077
	C103.149429,139.119080 104.298615,137.240067 106.110886,135.170914
	C107.514793,133.652191 108.255630,132.323639 108.996460,130.995071
	C110.180771,129.451447 111.365082,127.907837 113.051483,126.185326
	C113.553566,126.006432 113.998169,125.988953 113.998169,125.988953
	C118.605728,126.325974 123.208885,126.846375 127.821869,126.956970
	C134.723694,127.122444 141.632736,127.041061 148.538208,126.992989
	C194.558044,126.672638 240.577744,126.331154 286.597534,126.003708
	C290.529114,125.975731 294.461121,126.000000 299.246185,126.000000
	C297.826569,122.848991 296.415588,119.717155 294.999451,116.193726
	C304.912323,124.984009 313.586395,135.156982 320.039978,147.494507
z"/>
<path fill="#EEEFF1" opacity="1.000000" stroke="none"
	d="
M240.146729,284.421967
	C241.752975,287.432098 243.138123,290.587738 245.006042,293.425598
	C251.103653,302.689514 254.408600,313.014862 256.626709,323.719757
	C256.864655,324.868042 255.362305,327.331604 254.227310,327.658752
	C245.038071,330.307526 235.860046,333.310486 226.456390,334.832245
	C208.580231,337.725098 190.817444,336.134491 173.417435,331.029816
	C170.247192,330.099762 167.153870,328.910156 164.010727,327.884186
	C161.551468,327.081482 160.728134,325.784790 161.415115,323.014191
	C164.415375,310.914124 168.131912,299.171570 175.903809,289.116180
	C176.784210,287.977112 177.242706,286.511963 178.095062,284.623047
	C179.164642,283.656433 180.035995,283.264801 181.295624,282.911743
	C190.842926,286.463562 200.280075,289.117706 210.120163,287.881897
	C219.178131,286.744293 228.107880,284.585510 237.378876,282.938538
	C238.491348,283.474335 239.319046,283.948151 240.146729,284.421967
z"/>
<path fill="#018EFE" opacity="1.000000" stroke="none"
	d="
M240.476593,284.572083
	C239.319046,283.948151 238.491348,283.474335 237.448853,282.606110
	C240.446045,275.621765 246.222992,275.291595 252.449219,275.886475
	C254.422943,276.075043 256.431244,275.963196 258.421417,275.907166
	C267.350311,275.655762 273.762573,270.908356 276.759399,262.244720
	C277.022430,261.678741 277.145477,261.341248 277.600891,261.080658
	C278.966278,262.401215 279.999268,263.644836 280.893921,264.721924
	C285.671692,264.721924 290.218689,264.721924 295.922913,264.721924
	C291.098511,269.289154 284.719299,264.335266 280.822571,269.909882
	C291.407166,273.387604 300.723419,267.562317 310.405640,267.826324
	C309.272888,267.110260 308.140106,266.394196 306.799957,265.547058
	C312.201019,262.660156 314.309143,263.560150 314.802612,267.667511
	C317.417480,266.280426 320.296509,264.753235 323.175537,263.226044
	C315.995789,280.462006 304.705994,294.654816 290.439117,306.457458
	C284.226288,311.597168 277.364349,315.952209 270.247101,321.058289
	C264.106567,305.149445 254.862488,292.921600 240.476593,284.572083
z"/>
<path fill="#01A4FF" opacity="1.000000" stroke="none"
	d="
M82.709808,197.876083
	C83.209564,185.075134 86.702133,172.971497 91.607941,161.305649
	C92.023285,164.733093 94.176712,165.031754 96.735031,165.018768
	C106.331413,164.970047 115.931900,164.845520 125.523048,165.075043
	C129.418777,165.168259 132.927536,164.835083 135.893768,162.464905
	C135.992615,174.615158 136.025162,186.300781 135.814529,198.182053
	C134.503723,198.973312 133.436096,199.568909 131.980713,200.123291
	C130.409470,200.545456 128.949585,200.715820 128.092026,201.524734
	C124.967712,204.471878 121.957954,206.046509 117.147690,205.248840
	C112.223663,204.432297 106.978981,205.699341 101.869339,205.810715
	C96.578857,205.926010 91.167389,206.337280 86.057442,205.342331
	C84.515442,205.042084 83.802513,200.483856 82.709808,197.876083
z"/>
<path fill="#028EFE" opacity="1.000000" stroke="none"
	d="
M180.907349,282.873169
	C180.035995,283.264801 179.164642,283.656433 178.076538,284.237671
	C163.489975,292.502136 154.107224,304.783447 148.026154,320.493439
	C127.670731,309.052673 111.560646,293.845123 100.185608,273.575073
	C104.254166,276.471130 108.817818,276.045227 113.330635,276.015869
	C121.834564,275.960541 130.351105,275.728424 138.838684,276.104767
	C143.603760,276.316040 144.926956,274.084686 145.335022,270.118652
	C151.785049,276.333374 159.619370,276.596710 167.354477,275.777100
	C173.831604,275.090729 178.085663,277.263489 180.907349,282.873169
z"/>
<path fill="#0194FE" opacity="1.000000" stroke="none"
	d="
M144.997742,270.052612
	C144.926956,274.084686 143.603760,276.316040 138.838684,276.104767
	C130.351105,275.728424 121.834564,275.960541 113.330635,276.015869
	C108.817818,276.045227 104.254166,276.471130 100.110199,273.234863
	C99.713203,273.321167 99.742294,273.296661 99.818726,272.899261
	C99.228813,271.687256 98.562462,270.872650 97.896111,270.058044
	C97.896111,270.058044 97.981178,270.021667 97.953720,269.741882
	C97.561882,268.993073 97.197487,268.524048 96.833092,268.055023
	C96.833092,268.055023 96.926636,268.054962 96.916901,267.769836
	C96.527008,267.011597 96.146858,266.538544 95.766708,266.065460
	C92.472458,257.314697 89.178207,248.563904 86.268906,239.443008
	C88.845169,239.714691 91.028191,240.876160 93.229179,240.911301
	C104.802681,241.096008 116.387413,241.216187 127.953247,240.864914
	C131.562698,240.755280 135.922363,241.104248 138.510498,236.907715
	C139.210602,236.939514 139.610153,236.970978 140.122696,237.459412
	C140.492981,245.271133 140.750259,252.625885 140.958008,260.280823
	C141.110825,261.119537 141.313202,261.658112 141.519104,262.220856
	C141.522644,262.245026 141.504211,262.290405 141.531799,262.669678
	C142.705505,265.383514 143.851624,267.718048 144.997742,270.052612
z"/>
<path fill="#019CFE" opacity="1.000000" stroke="none"
	d="
M138.209946,236.907394
	C135.922363,241.104248 131.562698,240.755280 127.953247,240.864914
	C116.387413,241.216187 104.802681,241.096008 93.229179,240.911301
	C91.028191,240.876160 88.845169,239.714691 86.255463,239.034714
	C81.859238,225.782516 81.494576,212.249802 82.512283,198.244629
	C83.802513,200.483856 84.515442,205.042084 86.057442,205.342331
	C91.167389,206.337280 96.578857,205.926010 101.869339,205.810715
	C106.978981,205.699341 112.223663,204.432297 117.147690,205.248840
	C121.957954,206.046509 124.967712,204.471878 128.092026,201.524734
	C128.949585,200.715820 130.409470,200.545456 131.786224,200.409607
	C130.668228,202.231171 129.160324,203.595673 128.077377,205.240021
	C120.559616,216.655090 124.602737,229.190369 138.209946,236.907394
z"/>
<path fill="#0196FE" opacity="1.000000" stroke="none"
	d="
M323.165192,263.202332
	C320.296509,264.753235 317.417480,266.280426 314.802612,267.667511
	C314.309143,263.560150 312.201019,262.660156 306.799957,265.547058
	C308.140106,266.394196 309.272888,267.110260 310.405640,267.826324
	C300.723419,267.562317 291.407166,273.387604 280.822571,269.909882
	C284.719299,264.335266 291.098511,269.289154 295.922913,264.721924
	C290.218689,264.721924 285.671692,264.721924 280.893921,264.721924
	C279.999268,263.644836 278.966278,262.401215 277.547729,260.825073
	C277.113953,260.325317 277.065735,260.158081 277.176239,259.616150
	C277.557007,251.836487 277.779083,244.431519 278.346771,236.987274
	C279.794403,236.627472 280.896423,236.306946 282.143555,236.288910
	C285.959930,240.003723 290.739044,238.136353 294.793274,238.534454
	C303.303955,239.370117 312.015930,237.875778 320.619171,238.151733
	C326.029175,238.325256 331.123352,239.269196 333.750183,233.007675
	C331.326202,241.170532 328.902222,249.333374 325.997314,257.882263
	C325.363525,258.572662 325.210632,258.877014 325.057770,259.181366
	C325.057770,259.181366 325.038666,259.614197 324.751709,259.966278
	C324.338165,260.631226 324.211639,260.944122 324.085083,261.256989
	C324.085083,261.256989 324.108765,261.649811 323.809326,261.967041
	C323.383545,262.596222 323.257172,262.908173 323.130829,263.220093
	C323.130829,263.220093 323.154846,263.178589 323.165192,263.202332
z"/>
<path fill="#019CFE" opacity="1.000000" stroke="none"
	d="
M333.862335,232.597549
	C331.123352,239.269196 326.029175,238.325256 320.619171,238.151733
	C312.015930,237.875778 303.303955,239.370117 294.793274,238.534454
	C290.739044,238.136353 285.959930,240.003723 282.338501,236.019608
	C286.333130,232.628708 290.497406,230.222229 292.116394,225.000244
	C294.428986,217.541092 293.495789,210.720871 289.887970,204.143646
	C293.827240,205.792618 297.379822,207.467117 300.832123,209.094345
	C301.448669,210.504639 302.214264,212.255966 302.979889,214.007309
	C302.979889,214.007309 303.003143,214.000290 303.067200,214.170990
	C303.406281,214.314880 303.681335,214.288055 303.956360,214.261230
	C305.015503,213.780579 306.074677,213.299911 307.653198,213.020782
	C311.850250,215.064941 311.791748,211.583969 312.965393,209.858688
	C314.431976,208.972443 315.898529,208.086197 317.784851,207.324341
	C318.463959,207.351166 318.723389,207.253571 318.982788,207.155975
	C322.364685,207.111328 325.746613,207.066650 329.856079,207.338394
	C332.335419,207.770035 334.087189,207.885254 335.838989,208.000473
	C335.217468,216.062790 334.595978,224.125107 333.862335,232.597549
M299.588226,210.517151
	C299.588226,210.517151 299.476990,210.583603 299.588226,210.517151
z"/>
<path fill="#02ADFE" opacity="1.000000" stroke="none"
	d="
M135.827499,162.000244
	C132.927536,164.835083 129.418777,165.168259 125.523048,165.075043
	C115.931900,164.845520 106.331413,164.970047 96.735031,165.018768
	C94.176712,165.031754 92.023285,164.733093 91.891449,161.060989
	C95.041069,154.217926 98.240959,147.805801 101.720551,141.195877
	C103.375046,142.509460 104.653473,145.208511 106.141136,145.329254
	C113.049187,145.889877 120.017593,145.857727 126.958282,145.722946
	C128.173920,145.699356 129.360336,144.170410 131.108643,143.366730
	C133.091400,144.943787 134.525772,146.490814 135.973785,148.436569
	C135.933838,149.897537 135.880249,150.959763 135.684891,152.112961
	C135.638382,152.462311 135.733612,152.720673 135.898911,153.425949
	C135.921814,156.581985 135.874649,159.291107 135.827499,162.000244
z"/>
<path fill="#02ADFE" opacity="1.000000" stroke="none"
	d="
M108.715912,131.146393
	C108.255630,132.323639 107.514793,133.652191 106.390976,134.991486
	C106.817108,133.767380 107.626236,132.532532 108.715912,131.146393
z"/>
<path fill="#02A2FC" opacity="1.000000" stroke="none"
	d="
M335.909180,207.802338
	C334.087189,207.885254 332.335419,207.770035 330.313232,207.404510
	C331.752136,207.115509 333.461456,207.076813 335.591797,207.111603
	C336.012878,207.185120 335.979340,207.604187 335.909180,207.802338
z"/>
<path fill="#028EFE" opacity="1.000000" stroke="none"
	d="
M97.938736,270.374817
	C98.562462,270.872650 99.228813,271.687256 99.819984,272.880920
	C99.156998,272.403870 98.569183,271.547760 97.938736,270.374817
z"/>
<path fill="#028EFE" opacity="1.000000" stroke="none"
	d="
M95.826363,266.371857
	C96.146858,266.538544 96.527008,267.011597 96.902657,267.814392
	C96.560776,267.655457 96.223396,267.166870 95.826363,266.371857
z"/>
<path fill="#028EFE" opacity="1.000000" stroke="none"
	d="
M96.871902,268.360962
	C97.197487,268.524048 97.561882,268.993073 97.930237,269.781738
	C97.593048,269.623230 97.251884,269.145081 96.871902,268.360962
z"/>
<path fill="#018EFE" opacity="1.000000" stroke="none"
	d="
M323.393311,263.116943
	C323.257172,262.908173 323.383545,262.596222 323.726898,262.145752
	C323.847870,262.342712 323.751831,262.678253 323.393311,263.116943
z"/>
<path fill="#018EFE" opacity="1.000000" stroke="none"
	d="
M324.337921,261.137848
	C324.211639,260.944122 324.338165,260.631226 324.673645,260.168365
	C324.785278,260.351837 324.688019,260.685272 324.337921,261.137848
z"/>
<path fill="#018EFE" opacity="1.000000" stroke="none"
	d="
M325.309326,259.071350
	C325.210632,258.877014 325.363525,258.572662 325.735413,258.129059
	C325.823242,258.313660 325.692047,258.637512 325.309326,259.071350
z"/>
<path fill="#02ADFE" opacity="1.000000" stroke="none"
	d="
M113.998436,125.739540
	C113.998169,125.988953 113.553566,126.006432 113.331596,126.019730
	C113.085899,125.664619 113.228798,125.379845 113.769348,125.084991
	C114.000366,124.991295 113.998703,125.490128 113.998436,125.739540
z"/>
<path fill="#02A2FC" opacity="1.000000" stroke="none"
	d="
M303.059479,213.669693
	C302.214264,212.255966 301.448669,210.504639 300.832123,209.094345
	C297.379822,207.467117 293.827240,205.792618 289.652161,203.942444
	C286.670319,201.839951 284.310974,199.913147 281.976501,197.519135
	C282.058594,184.701889 282.115753,172.351852 282.172913,160.001831
	C284.402649,160.978882 284.915405,165.136307 288.632996,163.550034
	C288.686707,163.527115 289.967102,165.615799 289.752258,165.841827
	C286.746552,169.003891 290.284027,171.605988 290.594727,174.703842
	C290.879578,176.366867 290.922852,177.784348 290.673950,179.834717
	C290.656219,181.339676 290.930664,182.211746 291.205109,183.083817
	C293.789795,192.386734 298.859619,199.771164 308.352966,204.477005
	C306.541779,207.553070 304.840424,210.442566 303.059479,213.669693
z"/>
<path fill="#F4F5F5" opacity="1.000000" stroke="none"
	d="
M341.931824,190.026123
	C340.553558,190.664749 339.175293,191.303360 337.796997,191.941956
	C337.198395,190.544647 336.235107,189.186340 336.080688,187.741592
	C335.800293,185.118515 336.001129,182.443985 336.001129,179.420547
	C332.028503,179.420547 328.169464,179.420547 323.775787,179.420547
	C323.775787,182.140945 324.122375,184.967377 323.644440,187.646774
	C323.362640,189.226624 321.774017,190.573410 320.773132,192.025024
	C319.831879,190.619766 318.138428,189.246231 318.077637,187.803848
	C317.791229,181.011185 317.798431,174.193420 318.073425,167.399704
	C318.134399,165.893860 319.704712,164.449158 320.580078,162.976318
	C321.631500,164.367584 323.063293,165.622696 323.624084,167.189560
	C324.152191,168.665070 323.762238,170.469147 323.844727,172.892349
	C324.286041,173.808502 324.658844,173.960983 325.031616,174.113464
	C328.052429,174.182648 331.073273,174.251846 334.831848,174.220490
	C335.663177,173.756653 335.756744,173.393341 335.850281,173.030029
	C335.902496,171.057327 335.662994,169.016922 336.100067,167.133530
	C336.443634,165.652832 337.622406,164.365936 338.430176,162.992950
	C339.578064,164.086975 340.725922,165.180984 341.903992,166.971497
	C341.978363,168.106308 342.022583,168.544632 342.066772,168.982956
	C342.006744,174.021164 341.946716,179.059372 341.910889,184.970947
	C341.934052,187.238266 341.932922,188.632187 341.931824,190.026123
z"/>
<path fill="#FFFFFF" opacity="1.000000" stroke="none"
	d="
M347.881958,186.022827
	C347.932465,180.649368 347.983002,175.275894 348.010162,169.201172
	C347.986786,168.499893 347.877838,168.023376 347.877838,168.023376
	C348.979340,166.352890 350.080841,164.682419 351.182373,163.011963
	C352.097870,164.824051 353.704834,166.599594 353.802856,168.454865
	C354.133698,174.717148 354.127014,181.018265 353.793304,187.280243
	C353.706940,188.901886 351.954498,190.434753 350.967377,192.008408
	C349.989136,190.592773 349.010925,189.177139 348.014282,187.130798
	C347.995880,186.500092 347.881927,186.022827 347.881958,186.022827
z"/>
<path fill="#F4F5F5" opacity="1.000000" stroke="none"
	d="
M360.953003,166.447174
	C361.825012,164.992981 362.534576,163.698410 363.624542,163.117188
	C364.104187,162.861404 365.712585,163.840668 366.195190,164.632812
	C367.820374,167.300262 365.860931,180.448425 363.009705,183.642548
	C360.789062,177.905960 361.026489,172.374298 360.953003,166.447174
z"/>
<path fill="#EEEFF1" opacity="1.000000" stroke="none"
	d="
M366.766876,189.185287
	C365.865784,192.066650 364.036438,192.993591 361.966125,191.310303
	C361.252808,190.730347 361.212982,187.947372 361.924347,187.248352
	C364.033966,185.175400 365.680725,186.543304 366.766876,189.185287
z"/>
<path fill="#02A2FC" opacity="1.000000" stroke="none"
	d="
M312.631348,209.917969
	C311.791748,211.583969 311.850250,215.064941 307.985474,212.908081
	C309.297974,211.721664 310.797638,210.849457 312.631348,209.917969
z"/>
<path fill="#232436" opacity="1.000000" stroke="none"
	d="
M342.216736,189.811462
	C341.932922,188.632187 341.934052,187.238266 342.001526,185.431458
	C342.212463,186.544662 342.357056,188.070740 342.216736,189.811462
z"/>
<path fill="#01AEFE" opacity="1.000000" stroke="none"
	d="
M291.196350,182.699631
	C290.930664,182.211746 290.656219,181.339676 290.612061,180.256226
	C290.957428,180.801697 291.072479,181.558578 291.196350,182.699631
z"/>
<path fill="#232436" opacity="1.000000" stroke="none"
	d="
M342.289062,168.843521
	C342.022583,168.544632 341.978363,168.106308 342.001892,167.342819
	C342.216888,167.579803 342.364136,168.141937 342.289062,168.843521
z"/>
<path fill="#232436" opacity="1.000000" stroke="none"
	d="
M324.925293,173.863403
	C324.658844,173.960983 324.286041,173.808502 323.935181,173.322449
	C324.244354,173.197037 324.531647,173.405182 324.925293,173.863403
z"/>
<path fill="#02A2FC" opacity="1.000000" stroke="none"
	d="
M303.717163,214.196075
	C303.681335,214.288055 303.406281,214.314880 303.062622,214.182434
	C302.993958,214.023178 303.477936,214.130936 303.717163,214.196075
z"/>
<path fill="#02A2FC" opacity="1.000000" stroke="none"
	d="
M318.742371,207.107117
	C318.723389,207.253571 318.463959,207.351166 318.113464,207.305634
	C318.022400,207.162506 318.501923,207.058243 318.742371,207.107117
z"/>
<path fill="#232436" opacity="1.000000" stroke="none"
	d="
M347.721069,186.104752
	C347.881927,186.022827 347.995880,186.500092 347.938171,186.738541
	C347.773712,186.713547 347.666962,186.450119 347.721069,186.104752
z"/>
<path fill="#232436" opacity="1.000000" stroke="none"
	d="
M347.719666,168.106079
	C347.877838,168.023376 347.986786,168.499893 347.931030,168.737854
	C347.770660,168.713486 347.666077,168.451141 347.719666,168.106079
z"/>
<path fill="#232436" opacity="1.000000" stroke="none"
	d="
M335.642670,173.149323
	C335.756744,173.393341 335.663177,173.756653 335.272278,174.109009
	C335.050018,173.778122 335.203400,173.501633 335.642670,173.149323
z"/>
<path fill="#01ACFE" opacity="1.000000" stroke="none"
	d="
M144.703354,145.897766
	C146.902527,148.901062 149.387360,149.538269 153.427261,149.275330
	C163.513931,148.618774 173.687683,149.419510 183.824570,149.350494
	C187.399338,149.326141 190.961380,148.141586 194.541565,148.065216
	C203.694214,147.869995 213.065277,146.762238 221.962387,148.282288
	C236.271622,150.726990 250.275833,146.406448 264.394318,148.041794
	C267.485657,148.399857 269.704498,147.329422 272.211761,145.103790
	C273.913574,146.133423 274.950409,147.097672 276.062805,148.243835
	C276.273651,148.660645 276.462219,148.839249 276.793091,149.217072
	C276.942932,149.642410 277.003784,149.812210 276.989471,150.436432
	C276.842316,154.258286 276.770355,157.625763 276.319824,161.005646
	C272.166443,161.678909 268.413574,162.666672 264.611603,162.921204
	C259.383057,163.271225 254.117432,163.066406 248.922089,163.074860
	C248.976471,163.050430 248.903534,163.144775 248.897125,162.751251
	C248.269028,158.472275 245.428314,158.866928 242.397949,159.104080
	C241.728500,158.802429 241.318848,158.522980 240.916489,157.915298
	C240.522202,156.958450 240.120621,156.329834 239.719025,155.701218
	C239.454712,156.219345 239.190414,156.737473 238.559830,157.167084
	C224.539795,151.068588 210.179733,148.659882 195.749451,152.254089
	C186.633972,154.524521 178.173080,159.423050 169.006836,163.107361
	C165.242844,164.702576 161.894516,166.341339 158.537170,167.961426
	C155.483322,169.435074 152.484543,171.051788 149.340225,172.299957
	C146.747833,173.329010 145.579956,172.052490 144.852127,169.369690
	C144.402847,167.713577 142.549454,166.438370 141.248260,164.538055
	C141.093964,160.383545 141.017822,156.683136 141.015808,152.580322
	C141.117279,150.819336 141.144623,149.460770 141.456635,148.003052
	C142.728653,147.235214 143.716003,146.566483 144.703354,145.897766
z"/>
<path fill="#F1F0F0" opacity="1.000000" stroke="none"
	d="
M276.698425,160.993225
	C276.770355,157.625763 276.842316,154.258286 277.216797,150.277893
	C277.672485,149.148819 277.825684,148.632675 278.384979,148.092957
	C279.874756,148.059998 280.958496,148.050613 282.042206,148.041229
	C282.040283,151.724304 282.038330,155.407379 282.104675,159.546143
	C282.115753,172.351852 282.058594,184.701889 281.625244,197.487732
	C279.804993,197.254654 278.360931,196.585770 276.942352,195.920441
	C276.967865,195.924011 276.980011,195.973969 277.148987,195.904022
	C277.392395,195.739014 277.549530,195.594162 277.527344,195.557266
	C277.409607,195.361649 277.246765,195.193176 277.017517,194.551849
	C276.856415,183.056686 276.777405,172.024963 276.698425,160.993225
z"/>
<path fill="#D0D2D4" opacity="1.000000" stroke="none"
	d="
M282.357788,147.898346
	C280.958496,148.050613 279.874756,148.059998 278.103088,148.075317
	C277.226776,148.083466 277.038361,148.085693 276.634460,148.074524
	C276.419006,148.061127 275.987213,148.061935 275.987213,148.061935
	C274.950409,147.097672 273.913574,146.133423 272.607483,145.026733
	C272.256012,144.226929 272.184875,143.567978 272.089783,142.912506
	C271.446136,138.476410 272.805695,134.098190 277.114807,133.486038
	C279.823273,133.101257 283.980255,135.700394 285.830048,138.191513
	C288.533966,141.832886 286.223938,145.354889 282.357788,147.898346
z"/>
<path fill="#D0D2D4" opacity="1.000000" stroke="none"
	d="
M144.826385,145.522919
	C143.716003,146.566483 142.728653,147.235214 141.168304,147.992004
	C140.403107,148.092758 140.210907,148.105453 139.613159,148.094742
	C138.125092,148.060181 137.042618,148.049011 135.960129,148.037827
	C134.525772,146.490814 133.091400,144.943787 131.430954,143.171021
	C130.922455,138.939606 132.211258,135.586792 136.143143,134.220093
	C139.545929,133.037308 143.112045,133.947357 144.590805,137.341888
	C145.562607,139.572678 144.887177,142.521042 144.826385,145.522919
z"/>
<path fill="#D0D2D5" opacity="1.000000" stroke="none"
	d="
M145.335022,270.118652
	C143.851624,267.718048 142.705505,265.383514 141.897385,262.673920
	C146.848007,267.458405 152.733261,268.175903 159.338898,268.129730
	C192.396011,267.898621 225.456329,267.908600 258.513702,268.119446
	C265.278015,268.162567 271.387268,267.560181 276.123962,262.112183
	C276.277893,262.247192 276.619415,262.473206 276.619415,262.473206
	C273.762573,270.908356 267.350311,275.655762 258.421417,275.907166
	C256.431244,275.963196 254.422943,276.075043 252.449219,275.886475
	C246.222992,275.291595 240.446045,275.621765 237.164062,282.544128
	C228.107880,284.585510 219.178131,286.744293 210.120163,287.881897
	C200.280075,289.117706 190.842926,286.463562 181.295624,282.911743
	C178.085663,277.263489 173.831604,275.090729 167.354477,275.777100
	C159.619370,276.596710 151.785049,276.333374 145.335022,270.118652
z"/>
<path fill="#D0D2D5" opacity="1.000000" stroke="none"
	d="
M277.017548,259.990875
	C277.065735,260.158081 277.113953,260.325317 277.215332,260.748169
	C277.145477,261.341248 277.022430,261.678741 276.759399,262.244720
	C276.619415,262.473206 276.277893,262.247192 276.157532,261.817261
	C276.363953,260.921875 276.690735,260.456360 277.017548,259.990875
z"/>
<path fill="#D0D2D4" opacity="1.000000" stroke="none"
	d="
M138.510498,236.907715
	C124.602737,229.190369 120.559616,216.655090 128.077377,205.240021
	C129.160324,203.595673 130.668228,202.231171 132.173965,200.450821
	C133.436096,199.568909 134.503723,198.973312 136.165497,198.147705
	C138.202805,197.245682 139.645981,196.573685 141.466949,195.970123
	C142.866058,195.978943 143.887360,195.919327 144.795151,196.218170
	C139.495087,209.632462 139.894821,223.333908 140.009689,237.002441
	C139.610153,236.970978 139.210602,236.939514 138.510498,236.907715
z"/>
<path fill="#F1F0F0" opacity="1.000000" stroke="none"
	d="
M141.089142,195.901672
	C139.645981,196.573685 138.202805,197.245682 136.408676,197.952026
	C136.025162,186.300781 135.992615,174.615158 135.893768,162.464905
	C135.874649,159.291107 135.921814,156.581985 135.951904,153.186554
	C135.934830,152.500244 135.826660,152.021988 135.826660,152.021988
	C135.880249,150.959763 135.933838,149.897537 135.973785,148.436569
	C137.042618,148.049011 138.125092,148.060181 139.607330,148.465393
	C140.318604,150.233871 140.630142,151.608307 140.941681,152.982742
	C141.017822,156.683136 141.093964,160.383545 141.167114,165.000900
	C141.086594,174.950745 141.009033,183.983643 140.691925,193.206802
	C140.643677,194.254807 140.834976,195.112534 141.030090,195.942215
	C141.033875,195.914169 141.089142,195.901672 141.089142,195.901672
z"/>
<path fill="#EDEEF0" opacity="1.000000" stroke="none"
	d="
M140.122696,237.459412
	C139.894821,223.333908 139.495087,209.632462 144.876801,195.871429
	C150.070389,182.121902 158.599457,171.761795 169.418564,163.142761
	C178.173080,159.423050 186.633972,154.524521 195.749451,152.254089
	C210.179733,148.659882 224.539795,151.068588 238.726013,157.403397
	C239.808731,157.899994 240.358963,158.071747 240.909195,158.243515
	C241.318848,158.522980 241.728500,158.802429 242.596924,159.385559
	C245.004974,160.841080 246.954254,161.992935 248.903534,163.144775
	C248.903534,163.144775 248.976471,163.050430 249.080536,163.372162
	C260.810059,171.922195 268.433044,183.210800 273.983093,196.490662
	C278.421814,209.955673 278.133240,223.498901 278.001160,237.026550
	C277.779083,244.431519 277.557007,251.836487 277.176239,259.616150
	C276.690735,260.456360 276.363953,260.921875 276.003601,261.682251
	C271.387268,267.560181 265.278015,268.162567 258.513702,268.119446
	C225.456329,267.908600 192.396011,267.898621 159.338898,268.129730
	C152.733261,268.175903 146.848007,267.458405 141.869797,262.294647
	C141.504211,262.290405 141.522644,262.245026 141.665710,261.926880
	C141.541687,261.066040 141.274612,260.523346 141.007538,259.980652
	C140.750259,252.625885 140.492981,245.271133 140.122696,237.459412
M159.057373,202.825409
	C154.001984,216.939606 156.058090,231.547806 155.974716,246.500168
	C155.974716,246.500168 156.140549,246.965485 156.081894,247.674515
	C158.058075,250.144592 160.034271,252.614655 162.078873,255.670303
	C162.736938,255.741226 163.394989,255.812149 164.982941,255.834152
	C193.551346,255.861206 222.119888,255.939377 250.688034,255.866272
	C255.600723,255.853714 259.786743,254.154892 261.739105,248.227524
	C261.807678,247.491333 261.876251,246.755127 262.181213,245.104828
	C262.075378,235.393585 261.969513,225.682327 261.949524,215.502060
	C261.949524,215.502060 261.816589,215.044144 261.925720,214.245392
	C260.971619,210.158554 260.017517,206.071716 259.536713,201.538589
	C254.524445,180.408386 234.030762,163.916534 210.598846,163.115280
	C188.382050,162.355576 167.834412,176.385208 159.544937,197.171127
	C158.969879,198.613098 159.302307,200.416977 159.057373,202.825409
z"/>
<path fill="#D0D2D5" opacity="1.000000" stroke="none"
	d="
M140.958008,260.280823
	C141.274612,260.523346 141.541687,261.066040 141.662170,261.902710
	C141.313202,261.658112 141.110825,261.119537 140.958008,260.280823
z"/>
<path fill="#D0D2D4" opacity="1.000000" stroke="none"
	d="
M278.346771,236.987274
	C278.133240,223.498901 278.421814,209.955673 274.354065,196.470230
	C275.441772,196.011887 276.179291,195.964371 276.916840,195.916870
	C278.360931,196.585770 279.804993,197.254654 281.600342,197.954956
	C284.310974,199.913147 286.670319,201.839951 289.265503,203.967957
	C293.495789,210.720871 294.428986,217.541092 292.116394,225.000244
	C290.497406,230.222229 286.333130,232.628708 282.193420,235.717133
	C280.896423,236.306946 279.794403,236.627472 278.346771,236.987274
z"/>
<path fill="#02A2FC" opacity="1.000000" stroke="none"
	d="
M299.532593,210.550385
	C299.476990,210.583603 299.588226,210.517151 299.532593,210.550385
z"/>
<path fill="#01A4FF" opacity="1.000000" stroke="none"
	d="
M135.684906,152.112961
	C135.826660,152.021988 135.934830,152.500244 135.881836,152.739655
	C135.733612,152.720673 135.638382,152.462311 135.684906,152.112961
z"/>
<path fill="#05A9FE" opacity="1.000000" stroke="none"
	d="
M276.942352,195.920441
	C276.179291,195.964371 275.441772,196.011887 274.333252,196.079819
	C268.433044,183.210800 260.810059,171.922195 249.026154,163.396591
	C254.117432,163.066406 259.383057,163.271225 264.611603,162.921204
	C268.413574,162.666672 272.166443,161.678909 276.319824,161.005646
	C276.777405,172.024963 276.856415,183.056686 276.953857,194.787323
	C276.972321,195.486221 276.980011,195.973969 276.980011,195.973969
	C276.980011,195.973969 276.967865,195.924011 276.942352,195.920441
z"/>
<path fill="#05A9FE" opacity="1.000000" stroke="none"
	d="
M169.006836,163.107361
	C158.599457,171.761795 150.070389,182.121902 144.990311,195.513000
	C143.887360,195.919327 142.866058,195.978943 141.466949,195.970123
	C141.089142,195.901672 141.033875,195.914169 141.058929,195.572525
	C141.033142,194.492767 140.982315,193.754639 140.931473,193.016525
	C141.009033,183.983643 141.086594,174.950745 141.245300,165.455017
	C142.549454,166.438370 144.402847,167.713577 144.852127,169.369690
	C145.579956,172.052490 146.747833,173.329010 149.340225,172.299957
	C152.484543,171.051788 155.483322,169.435074 158.537170,167.961426
	C161.894516,166.341339 165.242844,164.702576 169.006836,163.107361
z"/>
<path fill="#05A9FE" opacity="1.000000" stroke="none"
	d="
M248.897125,162.751251
	C246.954254,161.992935 245.004974,160.841080 242.856720,159.407745
	C245.428314,158.866928 248.269028,158.472275 248.897125,162.751251
z"/>
<path fill="#F4F5F5" opacity="1.000000" stroke="none"
	d="
M141.015808,152.580322
	C140.630142,151.608307 140.318604,150.233871 140.012894,148.488785
	C140.210907,148.105453 140.403107,148.092758 140.883636,148.091125
	C141.144623,149.460770 141.117279,150.819336 141.015808,152.580322
z"/>
<path fill="#05A9FE" opacity="1.000000" stroke="none"
	d="
M240.916489,157.915298
	C240.358963,158.071747 239.808731,157.899994 239.092316,157.491913
	C239.190414,156.737473 239.454712,156.219345 239.719025,155.701218
	C240.120621,156.329834 240.522202,156.958450 240.916489,157.915298
z"/>
<path fill="#F4F5F5" opacity="1.000000" stroke="none"
	d="
M276.849945,148.087921
	C277.038361,148.085693 277.226776,148.083466 277.697021,148.098892
	C277.825684,148.632675 277.672485,149.148819 277.291992,149.823486
	C277.003784,149.812210 276.942932,149.642410 276.870728,149.005539
	C276.859375,148.538483 276.849945,148.087921 276.849945,148.087921
z"/>
<path fill="#05A9FE" opacity="1.000000" stroke="none"
	d="
M276.634460,148.074524
	C276.849945,148.087921 276.859375,148.538483 276.781738,148.750000
	C276.462219,148.839249 276.273651,148.660645 276.062805,148.243835
	C275.987213,148.061935 276.419006,148.061127 276.634460,148.074524
z"/>
<path fill="#F4F5F5" opacity="1.000000" stroke="none"
	d="
M277.148987,195.904022
	C276.980011,195.973969 276.972321,195.486221 277.035950,195.250763
	C277.246765,195.193176 277.409607,195.361649 277.527344,195.557266
	C277.549530,195.594162 277.392395,195.739014 277.148987,195.904022
z"/>
<path fill="#F4F5F5" opacity="1.000000" stroke="none"
	d="
M140.691925,193.206802
	C140.982315,193.754639 141.033142,194.492767 141.055145,195.600571
	C140.834976,195.112534 140.643677,194.254807 140.691925,193.206802
z"/>
<path fill="#353849" opacity="1.000000" stroke="none"
	d="
M162.010468,255.084717
	C160.034271,252.614655 158.058075,250.144592 156.265503,247.227203
	C156.318497,246.524307 156.187897,246.268723 156.057297,246.013123
	C156.058090,231.547806 154.001984,216.939606 159.403137,202.230453
	C169.269379,181.938538 183.109756,169.009079 206.685562,168.593338
	C214.870895,168.449005 222.446411,168.928024 229.852997,172.038071
	C243.784637,177.888031 252.845963,188.568985 259.063416,201.984879
	C260.017517,206.071716 260.971619,210.158554 261.730286,214.736206
	C261.644470,215.475037 261.754089,215.723068 261.863678,215.971085
	C261.969513,225.682327 262.075378,235.393585 261.793793,245.806915
	C261.312683,247.225159 261.219025,247.941330 261.125336,248.657486
	C259.786743,254.154892 255.600723,255.853714 250.688034,255.866272
	C222.119888,255.939377 193.551346,255.861206 164.319885,255.652328
	C163.108047,255.341904 162.559250,255.213318 162.010468,255.084717
M225.667358,227.802628
	C227.094330,223.624985 225.596725,222.127426 221.230362,222.251938
	C213.102585,222.483719 204.963379,222.291550 196.829163,222.327744
	C191.637070,222.350830 190.943939,223.353180 192.588882,228.192871
	C194.879379,234.931854 201.222458,239.664566 208.345642,239.949356
	C215.756668,240.245651 221.786728,236.186432 225.667358,227.802628
M238.492416,204.246658
	C236.776535,200.831696 233.857788,198.694153 230.473282,200.687683
	C228.395569,201.911484 226.432663,205.242355 226.433685,207.626205
	C226.435135,211.033478 229.471878,213.318192 233.086884,212.812180
	C237.328674,212.218460 239.363892,209.385406 238.492416,204.246658
M183.976334,212.756714
	C186.441116,211.506927 189.621094,210.795639 191.113449,208.813675
	C192.071411,207.541397 191.227417,203.831192 189.926712,202.261734
	C188.766373,200.861679 185.513000,199.935776 183.832855,200.557144
	C181.885010,201.277496 179.353577,203.963867 179.419678,205.707977
	C179.506439,207.997314 181.882767,210.199921 183.976334,212.756714
z"/>
<path fill="#D0D2D4" opacity="1.000000" stroke="none"
	d="
M259.300049,201.761734
	C252.845963,188.568985 243.784637,177.888031 229.852997,172.038071
	C222.446411,168.928024 214.870895,168.449005 206.685562,168.593338
	C183.109756,169.009079 169.269379,181.938538 159.480804,201.844025
	C159.302307,200.416977 158.969879,198.613098 159.544937,197.171127
	C167.834412,176.385208 188.382050,162.355576 210.598846,163.115280
	C234.030762,163.916534 254.524445,180.408386 259.300049,201.761734
z"/>
<path fill="#FFFFFF" opacity="1.000000" stroke="none"
	d="
M162.044678,255.377502
	C162.559250,255.213318 163.108047,255.341904 163.854950,255.676788
	C163.394989,255.812149 162.736938,255.741226 162.044678,255.377502
z"/>
<path fill="#232436" opacity="1.000000" stroke="none"
	d="
M261.432220,248.442505
	C261.219025,247.941330 261.312683,247.225159 261.675598,246.263977
	C261.876251,246.755127 261.807678,247.491333 261.432220,248.442505
z"/>
<path fill="#232436" opacity="1.000000" stroke="none"
	d="
M261.906616,215.736572
	C261.754089,215.723068 261.644470,215.475037 261.675720,215.135590
	C261.816589,215.044144 261.949524,215.502060 261.906616,215.736572
z"/>
<path fill="#232436" opacity="1.000000" stroke="none"
	d="
M156.016006,246.256653
	C156.187897,246.268723 156.318497,246.524307 156.294830,246.872696
	C156.140549,246.965485 155.974716,246.500168 156.016006,246.256653
z"/>
<path fill="#4FDBF7" opacity="1.000000" stroke="none"
	d="
M225.497101,228.160416
	C221.786728,236.186432 215.756668,240.245651 208.345642,239.949356
	C201.222458,239.664566 194.879379,234.931854 192.588882,228.192871
	C190.943939,223.353180 191.637070,222.350830 196.829163,222.327744
	C204.963379,222.291550 213.102585,222.483719 221.230362,222.251938
	C225.596725,222.127426 227.094330,223.624985 225.497101,228.160416
z"/>
<path fill="#4FDBF7" opacity="1.000000" stroke="none"
	d="
M238.639984,204.607330
	C239.363892,209.385406 237.328674,212.218460 233.086884,212.812180
	C229.471878,213.318192 226.435135,211.033478 226.433685,207.626205
	C226.432663,205.242355 228.395569,201.911484 230.473282,200.687683
	C233.857788,198.694153 236.776535,200.831696 238.639984,204.607330
z"/>
<path fill="#4FDBF7" opacity="1.000000" stroke="none"
	d="
M183.625381,212.598267
	C181.882767,210.199921 179.506439,207.997314 179.419678,205.707977
	C179.353577,203.963867 181.885010,201.277496 183.832855,200.557144
	C185.513000,199.935776 188.766373,200.861679 189.926712,202.261734
	C191.227417,203.831192 192.071411,207.541397 191.113449,208.813675
	C189.621094,210.795639 186.441116,211.506927 183.625381,212.598267
z"/>
</svg>
