<svg version="1.1" id="Layer_1" xmlns="http://www.w3.org/2000/svg" xmlns:xlink="http://www.w3.org/1999/xlink" x="0px" y="0px"
	 width="100%" viewBox="0 0 612 612" enable-background="new 0 0 612 612" xml:space="preserve">
<path fill="#FEFFFF" opacity="1.000000" stroke="none" 
	d="
M356.000000,613.000000 
	C237.333359,613.000000 119.166710,613.000000 1.000048,613.000000 
	C1.000032,409.000061 1.000032,205.000122 1.000016,1.000130 
	C204.999893,1.000087 408.999786,1.000087 612.999756,1.000043 
	C612.999878,204.999878 612.999878,408.999756 612.999939,612.999817 
	C527.500000,613.000000 442.000000,613.000000 356.000000,613.000000 
M203.841141,282.586304 
	C203.954468,282.713348 204.067810,282.840363 204.268875,283.642914 
	C210.017685,293.995636 218.753250,299.318542 230.654297,299.292633 
	C239.303680,299.273804 247.953049,299.238586 256.822296,299.919159 
	C258.484894,302.406342 260.147491,304.893524 262.107849,307.865112 
	C262.533386,308.242859 262.958923,308.620575 263.163361,309.702789 
	C261.767273,310.586609 260.388519,311.499207 258.972534,312.349915 
	C242.297928,322.367249 228.805756,335.430603 219.479828,353.432434 
	C214.646683,363.158173 210.364380,373.068329 208.914673,384.774963 
	C208.247162,391.180634 207.579651,397.586304 206.443542,403.595093 
	C206.145172,403.056244 205.846802,402.517395 205.205902,401.359955 
	C205.036865,403.998840 204.907959,406.011078 204.779068,408.023285 
	C205.286575,399.829315 198.366837,395.603485 194.988159,389.610016 
	C192.030884,384.364105 187.058960,379.902283 185.380768,374.365479 
	C182.533737,364.972382 177.351456,356.386658 176.588150,346.189178 
	C175.908524,337.109741 173.106796,328.202545 172.176758,319.123566 
	C171.576920,313.268066 172.866867,307.242767 172.955643,301.288269 
	C173.171890,286.779572 177.740738,273.399353 183.216980,260.231171 
	C184.224716,257.807983 184.775192,254.760406 186.573563,253.183289 
	C191.563187,248.807465 194.827560,244.538895 189.009415,237.149918 
	C186.197357,238.738220 181.388489,239.805359 180.533096,242.253738 
	C178.180374,248.987839 175.651611,255.614731 172.893539,262.196625 
	C170.940323,266.857788 169.308136,271.734283 168.238968,276.667725 
	C166.224045,285.965179 163.899170,295.314911 163.228928,304.751282 
	C162.539490,314.457764 162.905472,324.398041 164.222733,334.043060 
	C165.516647,343.516998 167.750397,353.061005 171.095169,362.004547 
	C174.983093,372.400360 180.091003,382.420685 185.517105,392.130249 
	C188.769867,397.950806 193.154755,403.365601 197.935242,408.037231 
	C202.135742,412.142151 206.029953,415.756073 205.027267,422.206573 
	C204.940964,422.761810 205.177216,423.367188 205.225250,423.690796 
	C206.025772,421.540558 206.868057,419.278168 207.916443,417.825317 
	C210.263260,430.937836 213.438492,443.765015 220.839874,455.127350 
	C220.839874,455.127350 220.776428,455.114105 220.789581,455.735962 
	C220.870422,456.142731 220.951248,456.549500 220.626404,457.346008 
	C202.767029,447.324066 187.767075,433.972809 174.981354,418.062164 
	C171.803574,414.107727 167.853836,410.598663 167.930023,404.808746 
	C167.985886,400.564240 164.156998,395.856140 160.479645,396.589630 
	C157.499542,397.184143 153.843750,399.400604 152.476059,401.960175 
	C150.092972,406.419891 152.345444,409.912811 157.157730,412.217926 
	C158.709991,412.961456 160.132568,414.229248 161.262589,415.556732 
	C166.089081,421.226654 170.282364,427.535126 175.636078,432.634979 
	C185.416168,441.951416 195.415649,451.156555 206.165909,459.295593 
	C213.905319,465.155090 222.388855,470.425446 232.097366,472.897522 
	C232.097366,472.897522 232.093231,472.858734 232.239105,473.376770 
	C232.533218,473.564301 232.827332,473.751862 233.701950,474.243439 
	C235.785202,476.184296 237.868454,478.125122 240.000427,480.008026 
	C240.000427,480.008026 239.929993,480.035553 240.057495,480.542572 
	C240.367706,480.679108 240.677902,480.815674 241.178146,481.423218 
	C241.588104,481.677612 241.998077,481.932037 242.661575,482.869110 
	C249.477722,492.870361 256.293854,502.871613 262.633209,513.487671 
	C256.084290,512.043213 249.468140,510.845428 243.005615,509.083984 
	C236.713226,507.368927 230.539703,505.669373 226.529556,499.326965 
	C223.765457,494.955383 217.713120,494.937653 213.634216,497.972595 
	C209.999329,500.677216 208.739838,506.467468 210.880692,510.631256 
	C213.052765,514.855774 217.732651,516.351685 222.775330,515.311096 
	C225.844055,514.677795 229.315918,514.621704 232.335785,515.382202 
	C241.964096,517.806885 251.393433,521.036133 261.044556,523.350159 
	C266.414886,524.637756 272.073151,524.724365 277.925049,525.427551 
	C277.925049,525.427551 278.177216,525.643555 278.407745,526.315063 
	C279.058899,526.428894 279.710022,526.542664 281.027130,526.886475 
	C292.373840,532.951660 304.421356,535.743103 317.034454,532.597656 
	C323.864471,530.894287 330.280029,527.528870 337.764771,525.013184 
	C341.373016,524.543945 345.033905,524.321594 348.581085,523.565796 
	C373.783783,518.195496 397.455139,508.974182 419.393677,495.351196 
	C436.257660,484.879303 451.853760,472.741913 464.799866,457.747925 
	C474.609467,446.386597 483.858093,434.344879 491.844788,421.654633 
	C502.097839,405.363373 510.049103,387.742828 514.479370,368.855804 
	C517.080933,357.764832 518.945740,346.496429 520.952576,335.273987 
	C521.411438,332.708282 521.688110,329.938141 517.316650,329.947235 
	C513.681335,329.954773 512.373230,331.272522 511.929443,334.760162 
	C511.031677,341.815063 510.126160,348.912628 508.506744,355.824585 
	C501.330139,386.455017 488.351990,414.318024 468.703613,439.063477 
	C452.964874,458.885010 434.406219,475.394379 412.831268,488.559937 
	C395.157166,499.345154 376.260254,507.210022 356.135925,512.070984 
	C354.769806,512.400940 353.194641,511.865753 352.084778,511.176392 
	C355.191498,507.074524 358.474609,503.092468 361.362091,498.841644 
	C365.338013,492.988708 369.014954,486.932617 373.379974,480.872314 
	C373.585510,480.579346 373.791046,480.286377 374.615448,479.752014 
	C377.060028,477.435394 379.504608,475.118774 382.313721,473.282410 
	C382.937897,473.153198 383.610016,473.131866 384.179199,472.878906 
	C397.042419,467.161438 409.076447,459.833618 419.433960,450.480530 
	C430.576538,440.418457 440.506378,429.008728 450.897430,418.122162 
	C453.692596,415.193756 453.434570,412.583038 449.520325,410.744568 
	C448.381348,410.209656 447.320282,409.508881 446.270538,408.910889 
	C432.561523,427.248199 420.619049,439.818756 401.166016,452.605499 
	C399.046112,453.998962 397.246155,457.648163 393.823029,454.864777 
	C394.915283,452.319000 396.007538,449.773193 397.654602,446.774475 
	C400.488007,436.854492 403.321442,426.934509 406.581390,416.642944 
	C407.449829,416.296082 408.560516,416.179260 409.145508,415.563232 
	C411.962494,412.596802 414.887054,409.679077 417.300751,406.396484 
	C420.371368,402.220398 422.989624,397.711456 425.799103,393.343536 
	C429.481232,387.618835 433.945892,382.236786 436.646942,376.081207 
	C440.277893,367.806396 442.291809,358.838837 445.461456,350.340790 
	C449.805511,338.694092 450.230927,326.453552 450.822327,314.372162 
	C451.629150,297.888702 446.578125,282.122528 442.681854,266.302368 
	C442.191528,264.311462 440.177948,262.247711 438.316711,261.219147 
	C437.285767,260.649414 433.972107,261.815002 433.676453,262.797180 
	C433.013275,265.000122 432.863098,267.909119 433.789520,269.945984 
	C438.434021,280.157806 440.158386,291.000458 440.889984,301.977051 
	C441.442627,310.268646 441.282227,318.639374 440.904602,326.950592 
	C440.639862,332.777832 440.268890,338.813721 438.540314,344.314911 
	C435.310089,354.595215 431.882172,364.975922 426.996643,374.527222 
	C422.255463,383.796326 415.609467,392.096039 409.680481,400.739502 
	C409.357178,401.210846 407.934601,400.928162 406.831848,400.124115 
	C405.453918,391.769989 404.075989,383.415863 402.733002,374.303925 
	C399.344666,362.634003 394.633820,351.606659 386.876282,341.314575 
	C377.812531,329.012695 367.047180,318.652496 352.856934,311.214508 
	C352.189728,310.185547 351.522491,309.156586 351.533020,307.947754 
	C353.496948,305.047272 355.460846,302.146759 358.307495,299.269379 
	C367.798401,299.231781 377.310181,299.577484 386.774994,299.061462 
	C399.144196,298.387054 409.169464,289.219147 412.119110,276.389252 
	C412.129608,275.734222 412.140106,275.079224 412.602936,273.650208 
	C412.719360,266.506653 413.175659,259.347931 412.856995,252.223831 
	C412.536133,245.050674 412.319244,238.368088 421.954834,236.142731 
	C423.614838,234.361771 424.971405,232.050201 426.989807,230.895920 
	C434.014069,226.878937 435.595917,220.002380 437.456635,212.831589 
	C437.514709,212.732147 437.645020,212.600082 437.617554,212.539261 
	C437.528503,212.341919 437.381531,212.170715 437.216522,211.299622 
	C437.317322,210.852463 437.418121,210.405304 437.758728,209.775665 
	C437.893799,209.450562 437.807159,209.200485 437.304230,208.247589 
	C437.309784,207.180176 437.315338,206.112747 437.993408,205.154114 
	C438.736816,205.517578 439.788788,205.679565 440.177429,206.274704 
	C446.043488,215.257874 452.566681,223.915192 457.450684,233.412643 
	C465.148346,248.381638 471.351715,264.063751 473.491333,280.984558 
	C474.777130,291.153046 476.640778,301.342621 476.749603,311.538666 
	C476.853058,321.233765 475.658600,331.070801 473.867096,340.626526 
	C471.473663,353.392944 470.699341,366.868469 460.691315,377.085297 
	C457.256622,380.591675 458.709961,385.513306 463.197052,388.534882 
	C466.828522,390.980286 470.835968,390.169556 473.147369,385.832184 
	C474.358643,383.559204 474.388550,380.623260 474.781982,377.961578 
	C474.985718,376.583252 474.428101,375.008972 474.878082,373.762909 
	C481.674347,354.943726 485.569916,335.491669 485.782898,315.554993 
	C485.906067,304.028473 484.564514,292.401337 482.917358,280.958374 
	C479.307617,255.881119 469.297150,233.091141 455.370728,212.195938 
	C448.824799,202.374405 440.575378,193.635605 432.647003,184.811310 
	C428.966095,180.714462 424.208679,177.584778 419.758942,173.091217 
	C419.610321,166.406631 419.461700,159.722046 419.609558,152.140717 
	C419.708405,147.079330 419.807251,142.017929 420.619476,137.034744 
	C445.624451,153.016739 465.639984,173.969040 481.398376,198.955429 
	C494.246368,219.327133 503.572540,241.259674 508.463562,264.942200 
	C509.514771,270.032257 511.328186,274.871613 507.748993,280.216339 
	C505.438171,283.666962 506.254883,288.505219 510.173065,291.337646 
	C513.684326,293.875885 517.541199,294.872040 521.762146,292.186279 
	C527.472595,288.552734 527.941345,280.917358 522.668640,276.120636 
	C521.200867,274.785431 519.597961,273.089417 519.106750,271.274780 
	C516.390015,261.238464 514.421997,250.985382 511.402283,241.048203 
	C505.827606,222.703384 496.903931,205.869080 486.440704,189.886353 
	C474.533203,171.697510 460.017426,155.722031 443.206543,141.993607 
	C435.951233,136.068604 427.748627,131.303604 419.776031,125.094070 
	C419.570984,118.076675 419.365936,111.059273 419.462524,103.449493 
	C422.808716,99.798813 427.911224,97.160614 426.868835,90.270691 
	C426.587952,89.499908 426.307037,88.729126 425.994537,87.991753 
	C425.994537,87.991753 426.038422,87.979668 426.005585,87.270058 
	C423.888885,82.243271 419.952820,79.786926 414.667267,80.236534 
	C409.957367,80.637184 406.161469,82.816467 404.991821,88.027740 
	C404.991821,88.027740 405.026184,88.087906 404.611359,88.531235 
	C404.533630,89.309441 404.455902,90.087639 404.168518,91.820831 
	C404.437958,93.079491 404.707428,94.338150 405.053894,95.442322 
	C405.053894,95.442322 405.035492,95.519493 405.066193,96.254143 
	C407.196533,98.786568 409.326874,101.319000 411.213898,104.271713 
	C411.164978,104.631073 411.290344,104.912888 411.748871,105.216316 
	C411.748871,105.216316 411.895172,105.099419 411.648560,105.983604 
	C411.591919,110.307709 411.535278,114.631805 410.774963,118.951027 
	C396.528442,113.296394 382.559692,106.737793 367.954620,102.249985 
	C354.275238,98.046623 340.040314,94.640694 325.833405,93.435585 
	C310.190643,92.108673 294.239685,92.932175 278.534851,94.202309 
	C259.650726,95.729561 241.481918,101.088860 223.880188,108.098305 
	C222.643356,108.590843 221.270233,111.045113 221.452972,112.383354 
	C222.103180,117.144997 224.107330,117.939735 228.869934,116.040970 
	C248.247711,108.315407 268.415344,103.295700 289.149780,102.299667 
	C304.827423,101.546539 320.749420,102.347298 336.341797,104.258286 
	C355.269745,106.578094 373.623779,111.924438 390.936798,120.298622 
	C397.763214,123.600510 404.637817,126.802780 411.476044,130.718262 
	C411.592560,131.144974 411.709076,131.571686 411.632233,132.919006 
	C411.703491,139.611267 411.774750,146.303543 411.636353,153.903656 
	C411.586304,157.925003 411.536255,161.946365 410.888824,165.743164 
	C402.287994,160.793762 393.687134,155.844360 384.686829,150.491943 
	C384.332397,150.388489 383.977966,150.285019 383.071289,149.867386 
	C381.101471,148.188095 379.131683,146.508789 376.860535,144.170380 
	C374.173004,141.947601 371.621185,139.531677 368.776550,137.532440 
	C344.922028,120.767197 318.478577,114.559914 289.741455,119.134529 
	C272.404541,121.894363 256.591797,128.593536 242.370056,140.225372 
	C240.480865,142.073135 238.591675,143.920898 236.727310,145.893951 
	C236.727310,145.893951 236.613342,145.836243 236.048737,145.736343 
	C235.693024,146.158722 235.337311,146.581085 234.385086,147.134750 
	C233.900406,147.745667 233.415710,148.356583 232.321365,149.161942 
	C230.878159,150.440689 229.434952,151.719421 227.194305,152.971024 
	C225.271606,153.679703 223.209869,154.143341 221.451157,155.141068 
	C215.089554,158.749939 208.829788,162.538300 202.424088,165.376373 
	C202.304367,157.250931 202.184662,149.125473 202.280212,140.082657 
	C202.236389,131.378891 202.192581,122.675133 202.348160,113.084785 
	C202.382019,110.070671 202.415894,107.056564 202.785614,103.688972 
	C202.894073,103.221466 203.002518,102.753952 203.637039,101.838516 
	C209.506912,97.491837 210.833755,93.994797 208.934845,87.285042 
	C206.854904,82.150452 202.719666,79.911911 197.529907,80.237640 
	C192.782364,80.535637 189.066422,82.907310 187.410492,88.652481 
	C186.004410,94.580177 188.276382,98.873573 193.432129,102.229485 
	C193.432129,102.229485 193.708099,102.376228 193.708099,102.376228 
	C193.708099,102.376228 193.997650,102.258629 194.157318,102.610512 
	C194.157318,102.610512 194.468674,102.839386 194.280533,103.782837 
	C194.295868,109.535881 194.311203,115.288918 194.157333,120.970978 
	C194.157333,120.970978 193.974335,120.984848 193.306732,120.701668 
	C187.308716,119.959610 184.447144,121.920288 181.985260,127.029160 
	C180.549438,130.008789 178.252625,132.787201 175.762375,135.003601 
	C169.211609,140.834000 161.970001,145.923828 155.698944,152.023544 
	C148.460449,159.064270 141.825134,166.747162 135.178909,174.370056 
	C122.341255,189.094238 112.899399,206.011230 105.145012,223.769379 
	C100.589256,234.202423 96.955894,245.150330 94.084602,256.173218 
	C91.552383,265.894440 90.653595,276.041168 88.970665,286.841400 
	C88.633362,299.058777 87.837151,311.284607 88.061310,323.491669 
	C88.441948,344.219421 92.703186,364.410522 100.279762,383.590759 
	C105.912926,397.851288 112.939362,411.653931 120.395767,425.076965 
	C128.633377,439.906372 139.608475,452.904388 151.814148,464.660400 
	C159.804810,472.356659 168.614792,479.202789 177.065796,486.420319 
	C179.780350,488.738647 181.534058,487.640167 183.500473,485.085114 
	C185.543884,482.429871 185.161194,480.893341 182.603943,478.984589 
	C177.558304,475.218445 172.504868,471.417633 167.814392,467.228394 
	C143.310455,445.342957 124.298477,419.492828 111.944977,388.922760 
	C103.237823,367.375946 97.650116,345.115051 97.013222,321.782990 
	C96.787819,313.525574 96.913979,305.258514 96.971687,296.125854 
	C96.968704,294.084717 96.965721,292.043579 97.036674,289.225861 
	C97.043571,286.496063 97.050468,283.766296 97.788551,280.847992 
	C98.858780,276.375122 100.074669,271.931305 100.974274,267.424377 
	C105.062431,246.942947 112.420792,227.669952 122.385658,209.374115 
	C134.395172,187.324265 150.104050,168.163956 169.232224,152.017670 
	C176.267776,146.078873 182.493179,137.158905 194.180054,140.816757 
	C194.304031,142.215698 194.428009,143.614624 194.327469,145.919113 
	C194.364532,150.975998 194.401581,156.032898 194.188705,161.957001 
	C194.263702,165.266174 194.338684,168.575348 194.247955,172.652527 
	C194.138306,173.429337 194.028656,174.206146 193.190720,174.991959 
	C191.931503,175.699753 190.473557,176.195221 189.449265,177.153976 
	C185.972031,180.408676 182.748489,183.936081 179.247208,187.163132 
	C167.535812,197.957260 158.640015,210.943161 150.862122,224.630219 
	C142.756607,238.893814 137.474594,254.296112 133.199890,270.207214 
	C127.650291,290.863586 128.117935,311.811676 129.503403,332.582397 
	C130.504135,347.585052 134.335526,362.527039 140.341461,376.623657 
	C141.350586,378.992188 141.522797,382.194763 145.646454,380.202698 
	C148.831741,378.663910 150.825729,377.401581 149.147507,373.094421 
	C140.271347,350.313416 136.067566,326.806000 137.845734,302.207153 
	C138.901978,287.595215 141.661407,273.441315 145.700104,259.430328 
	C149.584839,245.953430 156.227234,233.773285 163.214813,221.786438 
	C166.353912,216.401489 170.386581,211.537445 173.964523,206.506271 
	C175.067398,208.786972 175.856339,210.418442 176.827087,212.699081 
	C176.935333,213.133560 177.043594,213.568039 177.074982,214.772980 
	C179.746704,226.550766 186.443985,234.811554 198.667282,239.283600 
	C199.457886,240.486893 200.691772,241.605850 200.940353,242.912277 
	C201.366180,245.150131 201.175705,247.505264 201.098389,250.761215 
	C201.327194,257.963593 201.556000,265.165985 201.235550,272.775452 
	C201.451904,273.385742 201.668274,273.996002 201.647186,275.271912 
	C201.850723,276.179626 202.054260,277.087311 202.265274,278.637939 
	C202.775192,279.784515 203.285095,280.931122 203.841141,282.586304 
z"/>
<path fill="#0092FF" opacity="1.000000" stroke="none" 
	d="
M242.408051,482.186462 
	C241.998077,481.932037 241.588104,481.677612 240.968933,480.972015 
	C240.544113,480.254883 240.267532,480.093109 239.929993,480.035553 
	C239.929993,480.035553 240.000427,480.008026 239.997147,479.658325 
	C240.021301,477.739899 240.403503,476.075195 240.009857,474.620422 
	C238.812119,470.194031 237.032974,465.914062 235.999954,461.456604 
	C234.431931,454.690521 233.301071,447.823120 231.986511,440.599915 
	C231.988708,439.137360 231.988922,438.073639 232.056763,436.654480 
	C234.600983,436.199341 237.077530,436.013947 239.554169,436.012817 
	C279.341827,435.994690 319.129608,435.942932 358.916992,436.048035 
	C366.896362,436.069122 375.485870,433.883698 381.997894,441.427246 
	C381.279846,446.563019 380.599823,451.278778 379.834656,455.980682 
	C379.137634,460.263885 379.351410,465.105682 377.324707,468.649628 
	C375.189240,472.383972 373.507202,475.720123 373.996613,479.993439 
	C373.791046,480.286377 373.585510,480.579346 372.754028,480.934204 
	C366.666962,481.664062 361.208649,482.882019 355.744232,482.910309 
	C321.494202,483.087738 287.242767,483.023651 252.991913,482.964386 
	C249.463516,482.958252 245.935974,482.457611 242.408051,482.186462 
z"/>
<path fill="#0284FE" opacity="1.000000" stroke="none" 
	d="
M411.852661,276.997101 
	C409.169464,289.219147 399.144196,298.387054 386.774994,299.061462 
	C377.310181,299.577484 367.798401,299.231781 357.459137,299.197449 
	C355.300507,299.190216 353.990143,299.312347 352.679932,299.311310 
	C320.654083,299.285706 288.628265,299.247009 256.602417,299.210663 
	C247.953049,299.238586 239.303680,299.273804 230.654297,299.292633 
	C218.753250,299.318542 210.017685,293.995636 204.409515,283.192993 
	C204.772308,282.544586 204.917877,282.300446 204.992432,282.006104 
	C204.998016,282.001587 205.010223,281.989807 205.302917,281.867798 
	C206.650665,281.481232 207.705734,281.216736 208.758911,280.945129 
	C207.474136,273.877197 208.218536,273.024536 215.515961,272.993073 
	C221.138214,272.968842 226.760208,272.881897 232.745117,272.887543 
	C237.837128,273.614349 242.560059,274.789795 247.296677,274.847717 
	C265.586121,275.071533 283.879913,274.912964 302.172058,274.945160 
	C324.451172,274.984406 346.730255,275.072296 369.076904,275.470734 
	C370.797089,277.556000 372.148865,277.687592 373.383118,275.008148 
	C374.827271,274.878754 375.882568,274.829620 377.160828,275.091248 
	C383.416412,277.742889 385.463776,271.691132 389.488312,269.395020 
	C389.488312,270.595703 389.488312,271.509644 389.488312,272.480072 
	C393.203247,272.657715 396.789032,273.054138 400.359009,272.942780 
	C404.791565,272.804504 409.108948,272.539764 411.852661,276.997101 
z"/>
<path fill="#0287FE" opacity="1.000000" stroke="none" 
	d="
M242.534805,482.527771 
	C245.935974,482.457611 249.463516,482.958252 252.991913,482.964386 
	C287.242767,483.023651 321.494202,483.087738 355.744232,482.910309 
	C361.208649,482.882019 366.666962,481.664062 372.473999,480.979797 
	C369.014954,486.932617 365.338013,492.988708 361.362091,498.841644 
	C358.474609,503.092468 355.191498,507.074524 351.604614,511.606415 
	C346.377136,516.328735 341.629852,520.621033 336.882568,524.913269 
	C330.280029,527.528870 323.864471,530.894287 317.034454,532.597656 
	C304.421356,535.743103 292.373840,532.951660 280.484741,526.537354 
	C279.353973,526.006714 278.765594,525.825134 278.177216,525.643555 
	C278.177216,525.643555 277.925049,525.427551 277.594971,525.111572 
	C272.546600,520.821411 267.828308,516.847107 263.110016,512.872864 
	C256.293854,502.871613 249.477722,492.870361 242.534805,482.527771 
z"/>
<path fill="#B6DEFD" opacity="1.000000" stroke="none" 
	d="
M337.323669,524.963257 
	C341.629852,520.621033 346.377136,516.328735 351.420563,511.884644 
	C353.194641,511.865753 354.769806,512.400940 356.135925,512.070984 
	C376.260254,507.210022 395.157166,499.345154 412.831268,488.559937 
	C434.406219,475.394379 452.964874,458.885010 468.703613,439.063477 
	C488.351990,414.318024 501.330139,386.455017 508.506744,355.824585 
	C510.126160,348.912628 511.031677,341.815063 511.929443,334.760162 
	C512.373230,331.272522 513.681335,329.954773 517.316650,329.947235 
	C521.688110,329.938141 521.411438,332.708282 520.952576,335.273987 
	C518.945740,346.496429 517.080933,357.764832 514.479370,368.855804 
	C510.049103,387.742828 502.097839,405.363373 491.844788,421.654633 
	C483.858093,434.344879 474.609467,446.386597 464.799866,457.747925 
	C451.853760,472.741913 436.257660,484.879303 419.393677,495.351196 
	C397.455139,508.974182 373.783783,518.195496 348.581085,523.565796 
	C345.033905,524.321594 341.373016,524.543945 337.323669,524.963257 
z"/>
<path fill="#B6E0FD" opacity="1.000000" stroke="none" 
	d="
M96.879639,296.995880 
	C96.913979,305.258514 96.787819,313.525574 97.013222,321.782990 
	C97.650116,345.115051 103.237823,367.375946 111.944977,388.922760 
	C124.298477,419.492828 143.310455,445.342957 167.814392,467.228394 
	C172.504868,471.417633 177.558304,475.218445 182.603943,478.984589 
	C185.161194,480.893341 185.543884,482.429871 183.500473,485.085114 
	C181.534058,487.640167 179.780350,488.738647 177.065796,486.420319 
	C168.614792,479.202789 159.804810,472.356659 151.814148,464.660400 
	C139.608475,452.904388 128.633377,439.906372 120.395767,425.076965 
	C112.939362,411.653931 105.912926,397.851288 100.279762,383.590759 
	C92.703186,364.410522 88.441948,344.219421 88.061310,323.491669 
	C87.837151,311.284607 88.633362,299.058777 89.374924,286.414917 
	C95.568512,285.285278 91.492714,281.815094 91.374138,279.796539 
	C94.374435,276.576111 95.679245,278.938080 97.057365,281.036499 
	C97.050468,283.766296 97.043571,286.496063 96.628815,289.694000 
	C94.480034,292.629028 93.797432,294.993896 96.879639,296.995880 
z"/>
<path fill="#D4EFFD" opacity="1.000000" stroke="none" 
	d="
M419.939301,174.016632 
	C424.208679,177.584778 428.966095,180.714462 432.647003,184.811310 
	C440.575378,193.635605 448.824799,202.374405 455.370728,212.195938 
	C469.297150,233.091141 479.307617,255.881119 482.917358,280.958374 
	C484.564514,292.401337 485.906067,304.028473 485.782898,315.554993 
	C485.569916,335.491669 481.674347,354.943726 474.878082,373.762909 
	C474.428101,375.008972 474.985718,376.583252 474.781982,377.961578 
	C474.388550,380.623260 474.358643,383.559204 473.147369,385.832184 
	C470.835968,390.169556 466.828522,390.980286 463.197052,388.534882 
	C458.709961,385.513306 457.256622,380.591675 460.691315,377.085297 
	C470.699341,366.868469 471.473663,353.392944 473.867096,340.626526 
	C475.658600,331.070801 476.853058,321.233765 476.749603,311.538666 
	C476.640778,301.342621 474.777130,291.153046 473.491333,280.984558 
	C471.351715,264.063751 465.148346,248.381638 457.450684,233.412643 
	C452.566681,223.915192 446.043488,215.257874 440.177429,206.274704 
	C439.788788,205.679565 438.736816,205.517578 437.524231,204.705688 
	C435.623718,193.783051 430.382233,185.917267 420.927002,180.656219 
	C420.587891,180.241928 420.359833,180.031494 420.115906,179.480530 
	C419.981995,178.702087 419.864288,178.263855 419.746185,177.442657 
	C419.810303,176.045349 419.874817,175.030991 419.939301,174.016632 
z"/>
<path fill="#05B8FD" opacity="1.000000" stroke="none" 
	d="
M243.000595,140.003815 
	C256.591797,128.593536 272.404541,121.894363 289.741455,119.134529 
	C318.478577,114.559914 344.922028,120.767197 368.776550,137.532440 
	C371.621185,139.531677 374.173004,141.947601 376.951141,144.562592 
	C377.041748,144.954788 376.920685,145.079132 376.541687,145.051819 
	C372.755646,144.507065 369.348633,143.989624 365.602112,143.420624 
	C364.183594,145.760605 362.589935,148.389450 360.646362,150.977264 
	C357.207306,148.806076 354.318665,146.268127 350.987457,144.630371 
	C343.961609,141.176163 336.954895,137.254074 329.477478,135.256958 
	C320.329559,132.813644 310.868683,131.950638 301.108490,132.765717 
	C287.812317,133.876053 275.444824,136.661285 264.415741,144.460052 
	C262.212921,146.017685 259.495148,146.847046 256.640900,148.012955 
	C255.487228,148.236008 254.626205,148.314972 253.940704,148.703568 
	C248.984299,151.513245 249.060394,151.519516 247.954086,146.216751 
	C247.361938,143.378540 246.425354,140.657181 243.000595,140.003815 
z"/>
<path fill="#B6E7FD" opacity="1.000000" stroke="none" 
	d="
M419.976318,126.011658 
	C427.748627,131.303604 435.951233,136.068604 443.206543,141.993607 
	C460.017426,155.722031 474.533203,171.697510 486.440704,189.886353 
	C496.903931,205.869080 505.827606,222.703384 511.402283,241.048203 
	C514.421997,250.985382 516.390015,261.238464 519.106750,271.274780 
	C519.597961,273.089417 521.200867,274.785431 522.668640,276.120636 
	C527.941345,280.917358 527.472595,288.552734 521.762146,292.186279 
	C517.541199,294.872040 513.684326,293.875885 510.173065,291.337646 
	C506.254883,288.505219 505.438171,283.666962 507.748993,280.216339 
	C511.328186,274.871613 509.514771,270.032257 508.463562,264.942200 
	C503.572540,241.259674 494.246368,219.327133 481.398376,198.955429 
	C465.639984,173.969040 445.624451,153.016739 420.183044,136.559204 
	C419.635284,133.729828 419.523987,131.376022 419.543182,128.660339 
	C419.774567,127.536217 419.875458,126.773941 419.976318,126.011658 
z"/>
<path fill="#D4EFFD" opacity="1.000000" stroke="none" 
	d="
M176.645264,212.049896 
	C175.856339,210.418442 175.067398,208.786972 173.964523,206.506271 
	C170.386581,211.537445 166.353912,216.401489 163.214813,221.786438 
	C156.227234,233.773285 149.584839,245.953430 145.700104,259.430328 
	C141.661407,273.441315 138.901978,287.595215 137.845734,302.207153 
	C136.067566,326.806000 140.271347,350.313416 149.147507,373.094421 
	C150.825729,377.401581 148.831741,378.663910 145.646454,380.202698 
	C141.522797,382.194763 141.350586,378.992188 140.341461,376.623657 
	C134.335526,362.527039 130.504135,347.585052 129.503403,332.582397 
	C128.117935,311.811676 127.650291,290.863586 133.199890,270.207214 
	C137.474594,254.296112 142.756607,238.893814 150.862122,224.630219 
	C158.640015,210.943161 167.535812,197.957260 179.247208,187.163132 
	C182.748489,183.936081 185.972031,180.408676 189.449265,177.153976 
	C190.473557,176.195221 191.931503,175.699753 193.666931,175.332489 
	C194.224640,176.149017 194.306122,176.624985 194.278610,177.422882 
	C194.197189,178.196960 194.224762,178.649094 194.166199,179.180176 
	C194.080093,179.259125 194.053314,179.491241 193.940430,179.454437 
	C193.827545,179.417618 193.839127,179.747482 193.529144,179.976730 
	C184.703812,185.136826 179.234039,192.302460 177.141510,202.455261 
	C176.921860,205.953033 176.783554,209.001465 176.645264,212.049896 
z"/>
<path fill="#B6E7FD" opacity="1.000000" stroke="none" 
	d="
M97.422958,280.942261 
	C95.679245,278.938080 94.374435,276.576111 91.374138,279.796539 
	C91.492714,281.815094 95.568512,285.285278 89.406357,285.994202 
	C90.653595,276.041168 91.552383,265.894440 94.084602,256.173218 
	C96.955894,245.150330 100.589256,234.202423 105.145012,223.769379 
	C112.899399,206.011230 122.341255,189.094238 135.178909,174.370056 
	C141.825134,166.747162 148.460449,159.064270 155.698944,152.023544 
	C161.970001,145.923828 169.211609,140.834000 175.762375,135.003601 
	C178.252625,132.787201 180.549438,130.008789 181.985260,127.029160 
	C184.447144,121.920288 187.308716,119.959610 193.721954,121.306908 
	C194.104660,127.934288 194.072144,133.956421 194.039627,139.978561 
	C182.493179,137.158905 176.267776,146.078873 169.232224,152.017670 
	C150.104050,168.163956 134.395172,187.324265 122.385658,209.374115 
	C112.420792,227.669952 105.062431,246.942947 100.974274,267.424377 
	C100.074669,271.931305 98.858780,276.375122 97.422958,280.942261 
z"/>
<path fill="#B7EAFC" opacity="1.000000" stroke="none" 
	d="
M411.490479,130.050415 
	C404.637817,126.802780 397.763214,123.600510 390.936798,120.298622 
	C373.623779,111.924438 355.269745,106.578094 336.341797,104.258286 
	C320.749420,102.347298 304.827423,101.546539 289.149780,102.299667 
	C268.415344,103.295700 248.247711,108.315407 228.869934,116.040970 
	C224.107330,117.939735 222.103180,117.144997 221.452972,112.383354 
	C221.270233,111.045113 222.643356,108.590843 223.880188,108.098305 
	C241.481918,101.088860 259.650726,95.729561 278.534851,94.202309 
	C294.239685,92.932175 310.190643,92.108673 325.833405,93.435585 
	C340.040314,94.640694 354.275238,98.046623 367.954620,102.249985 
	C382.559692,106.737793 396.528442,113.296394 411.224243,119.273483 
	C411.637390,120.039436 411.601318,120.482933 411.449036,121.049286 
	C411.298462,121.279350 411.211182,121.404549 411.240295,121.490158 
	C411.309998,121.695107 411.434448,121.881432 411.591187,122.513855 
	C411.593872,125.318428 411.542175,127.684425 411.490479,130.050415 
z"/>
<path fill="#EEF6FE" opacity="1.000000" stroke="none" 
	d="
M207.710358,417.015747 
	C206.868057,419.278168 206.025772,421.540558 205.225250,423.690796 
	C205.177216,423.367188 204.940964,422.761810 205.027267,422.206573 
	C206.029953,415.756073 202.135742,412.142151 197.935242,408.037231 
	C193.154755,403.365601 188.769867,397.950806 185.517105,392.130249 
	C180.091003,382.420685 174.983093,372.400360 171.095169,362.004547 
	C167.750397,353.061005 165.516647,343.516998 164.222733,334.043060 
	C162.905472,324.398041 162.539490,314.457764 163.228928,304.751282 
	C163.899170,295.314911 166.224045,285.965179 168.238968,276.667725 
	C169.308136,271.734283 170.940323,266.857788 172.893539,262.196625 
	C175.651611,255.614731 178.180374,248.987839 180.533096,242.253738 
	C181.388489,239.805359 186.197357,238.738220 189.009415,237.149918 
	C194.827560,244.538895 191.563187,248.807465 186.573563,253.183289 
	C184.775192,254.760406 184.224716,257.807983 183.216980,260.231171 
	C177.740738,273.399353 173.171890,286.779572 172.955643,301.288269 
	C172.866867,307.242767 171.576920,313.268066 172.176758,319.123566 
	C173.106796,328.202545 175.908524,337.109741 176.588150,346.189178 
	C177.351456,356.386658 182.533737,364.972382 185.380768,374.365479 
	C187.058960,379.902283 192.030884,384.364105 194.988159,389.610016 
	C198.366837,395.603485 205.286575,399.829315 204.779068,408.023285 
	C204.907959,406.011078 205.036865,403.998840 205.205902,401.359955 
	C205.846802,402.517395 206.145172,403.056244 206.762192,404.210571 
	C207.328445,407.240082 207.576050,409.654083 207.763000,412.478577 
	C207.705017,414.264618 207.707672,415.640198 207.710358,417.015747 
z"/>
<path fill="#EEF6FE" opacity="1.000000" stroke="none" 
	d="
M407.023682,400.996460 
	C407.934601,400.928162 409.357178,401.210846 409.680481,400.739502 
	C415.609467,392.096039 422.255463,383.796326 426.996643,374.527222 
	C431.882172,364.975922 435.310089,354.595215 438.540314,344.314911 
	C440.268890,338.813721 440.639862,332.777832 440.904602,326.950592 
	C441.282227,318.639374 441.442627,310.268646 440.889984,301.977051 
	C440.158386,291.000458 438.434021,280.157806 433.789520,269.945984 
	C432.863098,267.909119 433.013275,265.000122 433.676453,262.797180 
	C433.972107,261.815002 437.285767,260.649414 438.316711,261.219147 
	C440.177948,262.247711 442.191528,264.311462 442.681854,266.302368 
	C446.578125,282.122528 451.629150,297.888702 450.822327,314.372162 
	C450.230927,326.453552 449.805511,338.694092 445.461456,350.340790 
	C442.291809,358.838837 440.277893,367.806396 436.646942,376.081207 
	C433.945892,382.236786 429.481232,387.618835 425.799103,393.343536 
	C422.989624,397.711456 420.371368,402.220398 417.300751,406.396484 
	C414.887054,409.679077 411.962494,412.596802 409.145508,415.563232 
	C408.560516,416.179260 407.449829,416.296082 406.326355,416.416138 
	C406.083649,414.809875 406.095978,413.430420 406.300751,411.695923 
	C406.670044,407.892731 406.846863,404.444611 407.023682,400.996460 
z"/>
<path fill="#D4ECFD" opacity="1.000000" stroke="none" 
	d="
M232.127457,472.859253 
	C222.388855,470.425446 213.905319,465.155090 206.165909,459.295593 
	C195.415649,451.156555 185.416168,441.951416 175.636078,432.634979 
	C170.282364,427.535126 166.089081,421.226654 161.262589,415.556732 
	C160.132568,414.229248 158.709991,412.961456 157.157730,412.217926 
	C152.345444,409.912811 150.092972,406.419891 152.476059,401.960175 
	C153.843750,399.400604 157.499542,397.184143 160.479645,396.589630 
	C164.156998,395.856140 167.985886,400.564240 167.930023,404.808746 
	C167.853836,410.598663 171.803574,414.107727 174.981354,418.062164 
	C187.767075,433.972809 202.767029,447.324066 221.086273,457.288208 
	C222.035461,457.802124 222.524796,458.373840 223.099838,459.281799 
	C226.166168,464.031769 229.146820,468.445526 232.127457,472.859253 
z"/>
<path fill="#018DFB" opacity="1.000000" stroke="none" 
	d="
M411.985901,276.693176 
	C409.108948,272.539764 404.791565,272.804504 400.359009,272.942780 
	C396.789032,273.054138 393.203247,272.657715 389.488312,272.480072 
	C389.488312,271.509644 389.488312,270.595703 389.488312,269.395020 
	C385.463776,271.691132 383.416412,277.742889 377.398682,274.849548 
	C385.068726,271.243988 387.927063,266.857880 388.175598,258.476898 
	C388.428467,249.949783 388.937500,241.430283 389.745483,232.937103 
	C396.508911,233.463409 402.861206,233.960083 408.667603,234.414078 
	C409.924957,236.137939 410.967133,237.566757 412.002960,239.464478 
	C412.047943,251.430313 412.099274,262.927246 412.150604,274.424194 
	C412.140106,275.079224 412.129608,275.734222 411.985901,276.693176 
z"/>
<path fill="#04AEFD" opacity="1.000000" stroke="none" 
	d="
M242.685333,140.114594 
	C246.425354,140.657181 247.361938,143.378540 247.954086,146.216751 
	C249.060394,151.519516 248.984299,151.513245 253.940704,148.703568 
	C254.626205,148.314972 255.487228,148.236008 256.602081,148.360260 
	C255.833435,149.868713 254.736359,151.037003 253.624832,152.191376 
	C249.477844,156.498276 244.867233,160.455307 241.299347,165.197281 
	C237.367706,170.422668 234.392090,176.367401 230.611786,182.005493 
	C227.934662,181.778275 225.649994,181.475662 223.355408,181.333878 
	C221.744232,181.234299 220.012146,180.998566 218.522919,181.448608 
	C215.294510,182.424240 212.187225,183.800659 209.061417,184.642731 
	C210.017410,181.676041 210.942383,179.079803 212.096603,176.268982 
	C213.557083,174.047241 214.788330,172.040100 216.257660,169.797897 
	C220.327728,164.041275 224.159744,158.519730 227.991760,152.998169 
	C229.434952,151.719421 230.878159,150.440689 232.891388,149.259338 
	C233.988831,150.126694 234.516281,150.896637 235.043716,151.666595 
	C235.376526,151.524460 235.709335,151.382324 236.042160,151.240173 
	C235.688629,149.827942 235.335114,148.415710 234.981598,147.003448 
	C235.337311,146.581085 235.693024,146.158722 236.499023,146.126740 
	C238.346085,147.326889 239.742844,148.136612 241.708267,149.275986 
	C241.708267,146.821152 241.708267,145.329437 241.708267,143.884644 
	C239.881088,144.572327 238.291794,145.170486 236.702484,145.768646 
	C238.591675,143.920898 240.480865,142.073135 242.685333,140.114594 
z"/>
<path fill="#D4ECFD" opacity="1.000000" stroke="none" 
	d="
M393.580200,455.493683 
	C397.246155,457.648163 399.046112,453.998962 401.166016,452.605499 
	C420.619049,439.818756 432.561523,427.248199 446.270538,408.910889 
	C447.320282,409.508881 448.381348,410.209656 449.520325,410.744568 
	C453.434570,412.583038 453.692596,415.193756 450.897430,418.122162 
	C440.506378,429.008728 430.576538,440.418457 419.433960,450.480530 
	C409.076447,459.833618 397.042419,467.161438 384.179199,472.878906 
	C383.610016,473.131866 382.937897,473.153198 382.191467,472.709778 
	C385.906219,466.589294 389.743195,461.041504 393.580200,455.493683 
z"/>
<path fill="#04AEFD" opacity="1.000000" stroke="none" 
	d="
M207.813385,417.420532 
	C207.707672,415.640198 207.705017,414.264618 208.124756,412.305847 
	C212.045685,411.148407 215.564194,410.011292 219.038025,410.134460 
	C224.005981,410.310638 227.821869,409.549194 229.292084,404.267181 
	C229.863220,414.737244 230.122238,424.942230 230.499466,435.142853 
	C230.523148,435.782684 231.471161,436.388367 231.989136,437.009949 
	C231.988922,438.073639 231.988708,439.137360 231.708832,440.858673 
	C231.016342,445.719727 230.560181,450.394318 225.023697,450.232025 
	C220.762955,450.107147 221.066940,452.569122 220.776489,455.158234 
	C213.438492,443.765015 210.263260,430.937836 207.813385,417.420532 
z"/>
<path fill="#B6DEFD" opacity="1.000000" stroke="none" 
	d="
M262.871613,513.180298 
	C267.828308,516.847107 272.546600,520.821411 277.433289,525.073975 
	C272.073151,524.724365 266.414886,524.637756 261.044556,523.350159 
	C251.393433,521.036133 241.964096,517.806885 232.335785,515.382202 
	C229.315918,514.621704 225.844055,514.677795 222.775330,515.311096 
	C217.732651,516.351685 213.052765,514.855774 210.880692,510.631256 
	C208.739838,506.467468 209.999329,500.677216 213.634216,497.972595 
	C217.713120,494.937653 223.765457,494.955383 226.529556,499.326965 
	C230.539703,505.669373 236.713226,507.368927 243.005615,509.083984 
	C249.468140,510.845428 256.084290,512.043213 262.871613,513.180298 
z"/>
<path fill="#04AEFD" opacity="1.000000" stroke="none" 
	d="
M406.108307,412.050964 
	C406.095978,413.430420 406.083649,414.809875 406.113098,416.601929 
	C403.321442,426.934509 400.488007,436.854492 397.347351,446.588867 
	C397.394440,442.029968 397.748749,437.656708 398.103058,433.283447 
	C397.858429,433.148499 397.613800,433.013580 397.369202,432.878632 
	C396.324677,434.824402 395.280182,436.770172 394.851929,437.567993 
	C392.149200,436.090363 390.285187,434.905701 388.284332,434.035675 
	C386.956512,433.458344 385.432892,433.331360 383.998169,432.552429 
	C384.332520,422.401825 384.665649,412.701508 385.466614,403.001343 
	C392.451599,402.817596 398.968811,402.633789 406.108307,402.432404 
	C406.108307,405.161255 406.108307,408.606110 406.108307,412.050964 
M401.840240,407.047485 
	C401.586670,407.198669 401.203857,407.300293 401.120789,407.516876 
	C401.055359,407.687500 401.359375,407.999786 401.499329,408.249146 
	C401.639709,407.999512 401.780060,407.749878 401.840240,407.047485 
z"/>
<path fill="#05B8FD" opacity="1.000000" stroke="none" 
	d="
M406.300751,411.695923 
	C406.108307,408.606110 406.108307,405.161255 406.108307,402.432404 
	C398.968811,402.633789 392.451599,402.817596 385.421265,402.612427 
	C384.602997,400.150818 384.297821,398.078217 383.995789,395.670105 
	C383.996002,394.887360 383.993134,394.440063 383.990295,393.620667 
	C383.985779,392.504303 383.981140,391.760071 383.964020,390.715729 
	C383.633453,389.943756 383.315369,389.471863 382.997131,388.667480 
	C382.995941,387.891602 382.994934,387.448242 382.995667,386.585022 
	C382.004517,381.105652 381.011566,376.046112 380.368713,371.025940 
	C383.257507,372.705902 385.668304,375.428864 388.363251,375.747406 
	C393.049042,376.301147 397.910339,375.370209 402.698029,375.061768 
	C404.075989,383.415863 405.453918,391.769989 406.927765,400.560303 
	C406.846863,404.444611 406.670044,407.892731 406.300751,411.695923 
z"/>
<path fill="#02ADFE" opacity="1.000000" stroke="none" 
	d="
M256.712341,299.564911 
	C288.628265,299.247009 320.654083,299.285706 352.679932,299.311310 
	C353.990143,299.312347 355.300507,299.190216 357.017761,299.185852 
	C355.460846,302.146759 353.496948,305.047272 350.959412,308.114990 
	C349.943634,308.526947 349.501465,308.771667 348.909180,308.707306 
	C347.693756,307.456390 346.709320,305.832520 345.548706,305.694977 
	C341.326599,305.194458 337.045990,305.037384 332.786713,305.026276 
	C311.181488,304.969971 289.575531,304.935974 267.971436,305.103943 
	C265.911896,305.119965 263.863617,306.587189 261.810089,307.380737 
	C260.147491,304.893524 258.484894,302.406342 256.712341,299.564911 
z"/>
<path fill="#05B8FD" opacity="1.000000" stroke="none" 
	d="
M229.006927,404.001129 
	C227.821869,409.549194 224.005981,410.310638 219.038025,410.134460 
	C215.564194,410.011292 212.045685,411.148407 208.185394,411.895325 
	C207.576050,409.654083 207.328445,407.240082 206.996490,404.409027 
	C207.579651,397.586304 208.247162,391.180634 209.368912,384.550934 
	C210.900589,383.059052 211.978027,381.791199 212.744659,380.889099 
	C212.937332,381.432068 213.451050,382.879730 213.964767,384.327423 
	C214.240768,384.245026 214.516769,384.162659 214.792755,384.080261 
	C214.936493,382.068329 215.080231,380.056396 215.316757,376.745605 
	C216.439911,379.944061 217.125031,381.895111 218.101685,384.676300 
	C222.889221,383.058868 227.435501,381.522949 231.987122,380.395172 
	C231.330536,385.204041 230.668625,389.604767 230.005859,394.438416 
	C229.672333,397.914612 229.339630,400.957855 229.006927,404.001129 
z"/>
<path fill="#018DFB" opacity="1.000000" stroke="none" 
	d="
M232.382309,272.822845 
	C226.760208,272.881897 221.138214,272.968842 215.515961,272.993073 
	C208.218536,273.024536 207.474136,273.877197 208.758911,280.945129 
	C207.705734,281.216736 206.650665,281.481232 205.299408,281.494507 
	C205.175293,279.693604 205.347366,278.143921 205.555252,276.271820 
	C204.198685,276.980743 203.228241,277.487885 202.257812,277.995056 
	C202.054260,277.087311 201.850723,276.179626 201.761139,274.378052 
	C201.844986,273.112274 201.814896,272.740326 201.784805,272.368378 
	C201.556000,265.165985 201.327194,257.963593 201.589142,250.366150 
	C204.392792,251.897797 206.678726,255.465790 208.995377,249.876602 
	C209.227356,249.316940 210.793716,248.931381 211.640732,249.071198 
	C215.319046,249.678268 218.960251,250.510117 222.781052,251.294357 
	C223.026794,250.753616 223.667969,249.342743 224.477417,248.150421 
	C224.768112,248.912903 224.890549,249.456818 224.963455,250.459381 
	C224.226440,259.302826 225.512421,267.014740 232.382309,272.822845 
z"/>
<path fill="#05C6FD" opacity="1.000000" stroke="none" 
	d="
M402.715515,374.682861 
	C397.910339,375.370209 393.049042,376.301147 388.363251,375.747406 
	C385.668304,375.428864 383.257507,372.705902 380.365112,370.694885 
	C380.009125,369.882660 380.006866,369.440857 380.258636,368.799683 
	C380.010895,367.731873 379.509125,366.863464 379.005554,365.585693 
	C378.658966,363.778778 378.435822,362.337128 377.948029,360.991394 
	C376.010223,355.645050 373.989807,350.328705 372.330963,345.142822 
	C376.100342,345.864563 379.412994,346.125336 380.999390,342.000610 
	C381.000000,342.000000 381.001221,341.998779 381.355713,342.038055 
	C382.811310,343.394592 383.938812,344.690887 385.006012,346.035095 
	C386.035583,347.331848 387.002899,348.678009 388.025055,350.314331 
	C388.495911,351.194580 388.939240,351.762909 389.382568,352.331207 
	C389.626160,352.039948 389.869720,351.748657 390.113312,351.457397 
	C389.409668,350.970795 388.706055,350.484192 387.996460,349.621429 
	C387.670105,346.825317 387.349701,344.405334 387.029327,341.985352 
	C394.633820,351.606659 399.344666,362.634003 402.715515,374.682861 
z"/>
<path fill="#08CDFC" opacity="1.000000" stroke="none" 
	d="
M220.018372,353.003845 
	C228.805756,335.430603 242.297928,322.367249 258.972534,312.349915 
	C260.388519,311.499207 261.767273,310.586609 263.529449,309.373291 
	C264.266022,309.366364 264.636505,309.688904 264.808228,310.283691 
	C258.771881,318.418213 252.398514,325.948944 247.264389,334.246490 
	C243.072495,341.021210 240.360779,348.711823 236.566742,355.996704 
	C232.094421,355.998413 228.048126,355.999817 224.000916,356.000610 
	C224.000000,356.000000 223.998169,355.998779 223.989349,355.616333 
	C222.659821,354.490540 221.339096,353.747192 220.018372,353.003845 
z"/>
<path fill="#05C6FD" opacity="1.000000" stroke="none" 
	d="
M224.001831,356.001221 
	C228.048126,355.999817 232.094421,355.998413 236.569580,356.331238 
	C237.001083,357.111542 237.003754,357.557587 236.996399,358.396484 
	C235.318192,365.855225 233.649979,372.921143 231.981781,379.987030 
	C227.435501,381.522949 222.889221,383.058868 218.101685,384.676300 
	C217.125031,381.895111 216.439911,379.944061 215.316757,376.745605 
	C215.080231,380.056396 214.936493,382.068329 214.792755,384.080261 
	C214.516769,384.162659 214.240768,384.245026 213.964767,384.327423 
	C213.451050,382.879730 212.937332,381.432068 212.744659,380.889099 
	C211.978027,381.791199 210.900589,383.059052 209.528992,384.180450 
	C210.364380,373.068329 214.646683,363.158173 219.749100,353.218140 
	C221.339096,353.747192 222.659821,354.490540 223.657516,355.666962 
	C223.034073,356.793976 222.733643,357.487915 222.433197,358.181854 
	C222.796494,358.311493 223.159790,358.441132 223.523087,358.570770 
	C223.682663,357.714233 223.842239,356.857727 224.001831,356.001221 
z"/>
<path fill="#06A3FD" opacity="1.000000" stroke="none" 
	d="
M421.037750,180.860382 
	C430.382233,185.917267 435.623718,193.783051 437.187927,204.651291 
	C437.315338,206.112747 437.309784,207.180176 437.324829,208.871338 
	C437.345459,209.495102 437.518951,209.958145 437.518921,209.958145 
	C437.418121,210.405304 437.317322,210.852463 437.143311,211.893936 
	C437.100067,212.663254 437.130035,212.838272 437.160034,213.013275 
	C435.595917,220.002380 434.014069,226.878937 426.989807,230.895920 
	C424.971405,232.050201 423.614838,234.361771 421.527771,236.123398 
	C421.100708,236.104065 420.932739,235.932709 420.964661,235.540558 
	C421.663940,232.995941 422.880280,230.850800 422.909027,228.689850 
	C423.087128,215.305618 423.066986,201.916977 422.899261,188.532471 
	C422.881104,187.082031 421.496399,185.648712 420.411438,183.566101 
	C420.463165,183.342621 420.750458,182.101501 421.037750,180.860382 
z"/>
<path fill="#0092FF" opacity="1.000000" stroke="none" 
	d="
M224.309143,247.931885 
	C223.667969,249.342743 223.026794,250.753616 222.781052,251.294357 
	C218.960251,250.510117 215.319046,249.678268 211.640732,249.071198 
	C210.793716,248.931381 209.227356,249.316940 208.995377,249.876602 
	C206.678726,255.465790 204.392792,251.897797 201.661957,249.891113 
	C201.175705,247.505264 201.366180,245.150131 200.940353,242.912277 
	C200.691772,241.605850 199.457886,240.486893 198.554977,238.732574 
	C202.984512,234.897476 200.237686,230.078873 201.472626,226.000458 
	C205.397476,226.000458 208.857010,226.016251 212.316330,225.996368 
	C215.709763,225.976852 218.120865,226.910339 219.516815,230.581818 
	C220.441544,233.013931 222.853149,234.880737 224.692383,237.429276 
	C224.626831,241.215912 224.467987,244.573898 224.309143,247.931885 
z"/>
<path fill="#019FFF" opacity="1.000000" stroke="none" 
	d="
M265.006989,310.011444 
	C264.636505,309.688904 264.266022,309.366364 263.640015,309.021057 
	C262.958923,308.620575 262.533386,308.242859 261.958984,307.622925 
	C263.863617,306.587189 265.911896,305.119965 267.971436,305.103943 
	C289.575531,304.935974 311.181488,304.969971 332.786713,305.026276 
	C337.045990,305.037384 341.326599,305.194458 345.548706,305.694977 
	C346.709320,305.832520 347.693756,307.456390 348.885010,309.036591 
	C348.988464,310.114594 348.965973,310.554230 348.567017,310.996948 
	C345.792755,311.664734 343.394989,312.329468 340.906799,312.598114 
	C340.148285,311.808228 339.481262,311.072449 338.811859,311.070282 
	C318.508484,311.004822 298.204529,310.970367 277.902313,311.133667 
	C276.928528,311.141479 275.969543,312.994202 274.638550,313.953003 
	C271.184601,312.615997 268.095795,311.313721 265.006989,310.011444 
z"/>
<path fill="#06A3FD" opacity="1.000000" stroke="none" 
	d="
M383.996948,433.002747 
	C385.432892,433.331360 386.956512,433.458344 388.284332,434.035675 
	C390.285187,434.905701 392.149200,436.090363 394.851929,437.567993 
	C395.280182,436.770172 396.324677,434.824402 397.369202,432.878632 
	C397.613800,433.013580 397.858429,433.148499 398.103058,433.283447 
	C397.748749,437.656708 397.394440,442.029968 397.069946,446.815308 
	C396.007538,449.773193 394.915283,452.319000 393.701599,455.179230 
	C389.743195,461.041504 385.906219,466.589294 382.009186,472.469604 
	C379.504608,475.118774 377.060028,477.435394 374.306030,479.872742 
	C373.507202,475.720123 375.189240,472.383972 377.324707,468.649628 
	C379.351410,465.105682 379.137634,460.263885 379.834656,455.980682 
	C380.599823,451.278778 381.279846,446.563019 382.282471,441.160919 
	C383.044250,437.979950 383.520599,435.491333 383.996948,433.002747 
z"/>
<path fill="#05B8FD" opacity="1.000000" stroke="none" 
	d="
M176.736176,212.374481 
	C176.783554,209.001465 176.921860,205.953033 177.472565,202.379761 
	C179.257401,200.902466 180.629852,199.950012 182.046509,199.311691 
	C182.414841,199.930176 182.738968,200.234528 183.063110,200.538879 
	C183.375412,199.692581 183.687698,198.846298 184.468414,198.000519 
	C191.292221,198.001923 197.647644,198.002792 204.005402,198.411346 
	C203.677841,201.214935 203.347931,203.610825 203.002716,206.413849 
	C202.650742,209.543854 202.314072,212.266724 201.510437,214.991913 
	C194.560699,215.137375 188.077927,215.280502 181.595154,215.423630 
	C181.647308,215.707687 181.699448,215.991745 181.751602,216.275803 
	C180.218338,215.518051 178.685089,214.760284 177.151840,214.002518 
	C177.043594,213.568039 176.935333,213.133560 176.736176,212.374481 
z"/>
<path fill="#04AEFD" opacity="1.000000" stroke="none" 
	d="
M177.113403,214.387756 
	C178.685089,214.760284 180.218338,215.518051 181.751602,216.275803 
	C181.699448,215.991745 181.647308,215.707687 181.595154,215.423630 
	C188.077927,215.280502 194.560699,215.137375 201.468445,215.401276 
	C201.598007,219.205734 201.302628,222.603180 201.007233,226.000610 
	C200.237686,230.078873 202.984512,234.897476 198.247009,238.482056 
	C186.443985,234.811554 179.746704,226.550766 177.113403,214.387756 
z"/>
<path fill="#08CDFC" opacity="1.000000" stroke="none" 
	d="
M387.997559,350.002441 
	C387.002899,348.678009 386.035583,347.331848 385.006012,346.035095 
	C383.938812,344.690887 382.811310,343.394592 381.350708,341.673157 
	C380.449829,340.223328 379.908447,339.177704 379.367065,338.132080 
	C378.835785,338.563019 378.304474,338.993958 377.773193,339.424866 
	C378.848389,340.283661 379.923584,341.142456 380.998779,342.001221 
	C379.412994,346.125336 376.100342,345.864563 372.084167,345.140198 
	C371.506409,344.996002 371.012817,344.991455 371.009827,344.599304 
	C367.030823,336.699127 363.143768,329.141998 359.038330,321.705414 
	C357.207123,318.388458 354.936646,315.313965 352.949829,312.048401 
	C353.034149,311.967316 353.203094,311.805481 353.203094,311.805481 
	C367.047180,318.652496 377.812531,329.012695 386.952820,341.649963 
	C387.349701,344.405334 387.670105,346.825317 387.995239,349.622650 
	C388.000000,350.000000 387.997559,350.002441 387.997559,350.002441 
z"/>
<path fill="#019FFF" opacity="1.000000" stroke="none" 
	d="
M220.808182,455.142792 
	C221.066940,452.569122 220.762955,450.107147 225.023697,450.232025 
	C230.560181,450.394318 231.016342,445.719727 231.706818,441.257538 
	C233.301071,447.823120 234.431931,454.690521 235.999954,461.456604 
	C237.032974,465.914062 238.812119,470.194031 240.009857,474.620422 
	C240.403503,476.075195 240.021301,477.739899 239.972778,479.687286 
	C237.868454,478.125122 235.785202,476.184296 233.345490,473.822876 
	C232.690430,473.221130 232.391830,473.039948 232.093231,472.858734 
	C232.093231,472.858734 232.097366,472.897522 232.112411,472.878387 
	C229.146820,468.445526 226.166168,464.031769 223.122742,458.981934 
	C222.298782,457.268585 221.537598,456.191345 220.776428,455.114105 
	C220.776428,455.114105 220.839874,455.127350 220.808182,455.142792 
z"/>
<path fill="#06A3FD" opacity="1.000000" stroke="none" 
	d="
M404.976898,95.596802 
	C404.707428,94.338150 404.437958,93.079491 404.458771,91.117264 
	C404.841400,89.638435 404.933807,88.863174 405.026184,88.087906 
	C405.026184,88.087906 404.991821,88.027740 405.266235,87.915436 
	C407.792084,87.015282 410.043518,86.227440 412.576263,85.341164 
	C412.176849,86.653183 411.885773,87.609390 411.340790,89.399582 
	C416.666321,88.885094 421.352386,88.432381 426.038422,87.979668 
	C426.038422,87.979668 425.994537,87.991753 425.997742,88.291641 
	C426.235748,89.356255 426.470520,90.120987 426.705292,90.885712 
	C427.911224,97.160614 422.808716,99.798813 419.031525,103.590927 
	C416.365417,104.188049 414.130280,104.643738 411.895172,105.099419 
	C411.895172,105.099419 411.748871,105.216316 411.799377,104.958008 
	C411.899719,104.333290 411.768829,104.050529 411.457245,103.851425 
	C409.326874,101.319000 407.196533,98.786568 405.031433,95.896271 
	C404.996643,95.538399 404.976898,95.596802 404.976898,95.596802 
z"/>
<path fill="#06A3FD" opacity="1.000000" stroke="none" 
	d="
M208.890411,87.992813 
	C210.833755,93.994797 209.506912,97.491837 203.146683,102.086227 
	C202.401382,102.511864 202.197723,102.736336 201.616562,103.016739 
	C198.948059,102.963882 196.708374,102.901634 194.468674,102.839386 
	C194.468674,102.839386 194.157318,102.610512 193.973907,102.362129 
	C193.645935,102.016411 193.487045,101.957870 193.313858,101.938133 
	C188.276382,98.873573 186.004410,94.580177 187.991669,88.349983 
	C189.908112,88.577179 191.275208,89.625763 192.573151,89.546227 
	C198.023499,89.212227 203.453171,88.540733 208.890411,87.992813 
M191.483414,93.582214 
	C191.483414,93.582214 191.421387,93.475815 191.483414,93.582214 
z"/>
<path fill="#018DFB" opacity="1.000000" stroke="none" 
	d="
M194.387589,177.100967 
	C194.306122,176.624985 194.224640,176.149017 194.031082,175.328003 
	C194.028656,174.206146 194.138306,173.429337 194.543030,171.948303 
	C194.704956,167.859299 194.571808,164.474548 194.438644,161.089783 
	C194.401581,156.032898 194.364532,150.975998 194.760223,145.385559 
	C196.035446,143.272400 196.877914,141.692795 197.247391,141.000031 
	C199.070099,141.000031 200.567520,141.000031 202.064941,141.000031 
	C202.184662,149.125473 202.304367,157.250931 202.358368,166.174622 
	C202.327347,170.260132 202.362061,173.547394 202.006271,176.908264 
	C199.433075,177.657654 197.250381,178.333435 195.042664,178.745331 
	C194.807617,178.021286 194.597610,177.561127 194.387589,177.100967 
z"/>
<path fill="#B7EAFC" opacity="1.000000" stroke="none" 
	d="
M202.396790,176.834641 
	C202.362061,173.547394 202.327347,170.260132 202.412109,166.615906 
	C208.829788,162.538300 215.089554,158.749939 221.451157,155.141068 
	C223.209869,154.143341 225.271606,153.679703 227.593033,152.984604 
	C224.159744,158.519730 220.327728,164.041275 216.042770,169.508743 
	C211.590118,171.305573 207.590439,173.156494 202.702545,175.418457 
	C204.950317,175.789520 206.062683,175.973160 206.866898,176.323669 
	C205.171417,176.605240 203.784103,176.719940 202.396790,176.834641 
z"/>
<path fill="#D4EFFD" opacity="1.000000" stroke="none" 
	d="
M385.086304,150.894958 
	C393.687134,155.844360 402.287994,160.793762 411.252563,166.305664 
	C411.546967,169.870468 411.477631,172.872787 411.272919,175.973236 
	C410.986176,176.247345 410.893219,176.450119 410.669617,176.738342 
	C410.480469,176.796982 410.084412,176.800613 409.919189,176.626434 
	C409.444885,176.237762 409.146240,176.251480 408.807495,176.385040 
	C408.756989,176.276657 408.945801,176.129837 408.902588,175.766556 
	C406.632935,173.909225 404.448212,172.347061 402.163879,170.947556 
	C400.865021,170.151749 399.403198,169.621933 397.744080,168.777588 
	C393.201202,162.842880 388.928986,157.102921 384.764893,151.246643 
	C384.873016,151.130341 385.086304,150.894958 385.086304,150.894958 
z"/>
<path fill="#06A3FD" opacity="1.000000" stroke="none" 
	d="
M202.172577,140.541351 
	C200.567520,141.000031 199.070099,141.000031 197.247391,141.000031 
	C196.877914,141.692795 196.035446,143.272400 194.872482,144.932800 
	C194.428009,143.614624 194.304031,142.215698 194.109833,140.397659 
	C194.072144,133.956421 194.104660,127.934288 194.055756,121.448502 
	C193.974335,120.984848 194.157333,120.970978 194.467407,120.766991 
	C197.905121,119.115662 197.256958,113.445900 202.148758,113.971375 
	C202.192581,122.675133 202.236389,131.378891 202.172577,140.541351 
z"/>
<path fill="#04AEFD" opacity="1.000000" stroke="none" 
	d="
M411.771851,105.541512 
	C414.130280,104.643738 416.365417,104.188049 418.880737,103.887123 
	C419.365936,111.059273 419.570984,118.076675 419.876160,125.552864 
	C419.875458,126.773941 419.774567,127.536217 419.173462,128.656219 
	C416.390656,130.008774 414.108124,131.003586 411.825562,131.998413 
	C411.709076,131.571686 411.592560,131.144974 411.483246,130.384338 
	C411.542175,127.684425 411.593872,125.318428 411.686218,122.228622 
	C411.673035,121.312012 411.619141,121.119217 411.565247,120.926430 
	C411.601318,120.482933 411.637390,120.039436 411.576050,119.275925 
	C411.535278,114.631805 411.591919,110.307709 411.771851,105.541512 
z"/>
<path fill="#0287FE" opacity="1.000000" stroke="none" 
	d="
M411.408264,175.875107 
	C411.477631,172.872787 411.546967,169.870468 411.551270,166.417938 
	C411.536255,161.946365 411.586304,157.925003 412.058838,153.479889 
	C414.758575,153.049911 417.035828,153.043686 419.313110,153.037460 
	C419.461700,159.722046 419.610321,166.406631 419.849121,173.553925 
	C419.874817,175.030991 419.810303,176.045349 419.545837,177.651093 
	C419.289246,178.810242 419.232605,179.377991 418.837708,179.823227 
	C416.262115,178.775070 414.024750,177.849411 411.751129,176.640442 
	C411.612701,176.196442 411.510468,176.035767 411.408264,175.875107 
z"/>
<path fill="#0298FA" opacity="1.000000" stroke="none" 
	d="
M419.461334,152.589081 
	C417.035828,153.043686 414.758575,153.049911 412.163635,153.025970 
	C411.774750,146.303543 411.703491,139.611267 411.728882,132.458710 
	C414.108124,131.003586 416.390656,130.008774 419.042969,129.018066 
	C419.523987,131.376022 419.635284,133.729828 419.826355,136.520096 
	C419.807251,142.017929 419.708405,147.079330 419.461334,152.589081 
z"/>
<path fill="#05B8FD" opacity="1.000000" stroke="none" 
	d="
M208.912628,87.638931 
	C203.453171,88.540733 198.023499,89.212227 192.573151,89.546227 
	C191.275208,89.625763 189.908112,88.577179 188.198517,88.015648 
	C189.066422,82.907310 192.782364,80.535637 197.529907,80.237640 
	C202.719666,79.911911 206.854904,82.150452 208.912628,87.638931 
z"/>
<path fill="#05B8FD" opacity="1.000000" stroke="none" 
	d="
M426.022003,87.624863 
	C421.352386,88.432381 416.666321,88.885094 411.340790,89.399582 
	C411.885773,87.609390 412.176849,86.653183 412.576263,85.341164 
	C410.043518,86.227440 407.792084,87.015282 405.296936,87.899414 
	C406.161469,82.816467 409.957367,80.637184 414.667267,80.236534 
	C419.952820,79.786926 423.888885,82.243271 426.022003,87.624863 
z"/>
<path fill="#24B5FA" opacity="1.000000" stroke="none" 
	d="
M202.248459,113.528076 
	C197.256958,113.445900 197.905121,119.115662 194.552002,120.802483 
	C194.311203,115.288918 194.295868,109.535881 194.374603,103.311111 
	C196.708374,102.901634 198.948059,102.963882 201.690887,103.285988 
	C202.279236,103.711372 202.364487,103.876907 202.449768,104.042450 
	C202.415894,107.056564 202.382019,110.070671 202.248459,113.528076 
z"/>
<path fill="#06A3FD" opacity="1.000000" stroke="none" 
	d="
M412.376770,274.037201 
	C412.099274,262.927246 412.047943,251.430313 412.220184,239.357086 
	C412.714569,238.582214 412.899689,238.322510 413.370361,237.962204 
	C416.138672,237.259369 418.535706,236.596039 420.932739,235.932709 
	C420.932739,235.932709 421.100708,236.104065 421.184937,236.190109 
	C412.319244,238.368088 412.536133,245.050674 412.856995,252.223831 
	C413.175659,259.347931 412.719360,266.506653 412.376770,274.037201 
z"/>
<path fill="#05B8FD" opacity="1.000000" stroke="none" 
	d="
M377.101807,144.892151 
	C379.131683,146.508789 381.101471,148.188095 383.350952,150.268127 
	C383.630615,150.668854 383.636749,151.156235 383.418549,151.372955 
	C378.663269,153.278549 377.223511,151.785828 376.920685,145.079132 
	C376.920685,145.079132 377.041748,144.954788 377.101807,144.892151 
z"/>
<path fill="#B6E7FD" opacity="1.000000" stroke="none" 
	d="
M96.925659,296.560852 
	C93.797432,294.993896 94.480034,292.629028 96.591850,290.082275 
	C96.965721,292.043579 96.968704,294.084717 96.925659,296.560852 
z"/>
<path fill="#0284FE" opacity="1.000000" stroke="none" 
	d="
M202.261536,278.316498 
	C203.228241,277.487885 204.198685,276.980743 205.555252,276.271820 
	C205.347366,278.143921 205.175293,279.693604 205.006714,281.616547 
	C205.010223,281.989807 204.998016,282.001587 204.694229,282.017029 
	C204.191971,282.047516 203.993484,282.062592 203.795013,282.077698 
	C203.285095,280.931122 202.775192,279.784515 202.261536,278.316498 
z"/>
<path fill="#24B5FA" opacity="1.000000" stroke="none" 
	d="
M194.313675,161.523392 
	C194.571808,164.474548 194.704956,167.859299 194.625900,171.564301 
	C194.338684,168.575348 194.263702,165.266174 194.313675,161.523392 
z"/>
<path fill="#05B8FD" opacity="1.000000" stroke="none" 
	d="
M234.683350,147.069107 
	C235.335114,148.415710 235.688629,149.827942 236.042160,151.240173 
	C235.709335,151.382324 235.376526,151.524460 235.043716,151.666595 
	C234.516281,150.896637 233.988831,150.126694 233.196198,149.162109 
	C233.415710,148.356583 233.900406,147.745667 234.683350,147.069107 
z"/>
<path fill="#08CDFC" opacity="1.000000" stroke="none" 
	d="
M348.943481,310.993896 
	C348.965973,310.554230 348.988464,310.114594 349.035156,309.345642 
	C349.501465,308.771667 349.943634,308.526947 350.620544,308.204956 
	C351.522491,309.156586 352.189728,310.185547 353.030029,311.510010 
	C353.203094,311.805481 353.034149,311.967316 352.619080,311.973175 
	C351.117188,311.650665 350.030304,311.322296 348.943481,310.993896 
z"/>
<path fill="#04AEFD" opacity="1.000000" stroke="none" 
	d="
M220.782990,455.425049 
	C221.537598,456.191345 222.298782,457.268585 223.037048,458.645691 
	C222.524796,458.373840 222.035461,457.802124 221.289108,457.093323 
	C220.951248,456.549500 220.870422,456.142731 220.782990,455.425049 
z"/>
<path fill="#05B8FD" opacity="1.000000" stroke="none" 
	d="
M426.787048,90.578201 
	C426.470520,90.120987 426.235748,89.356255 426.013550,88.274933 
	C426.307037,88.729126 426.587952,89.499908 426.787048,90.578201 
z"/>
<path fill="#05B8FD" opacity="1.000000" stroke="none" 
	d="
M404.818787,88.309570 
	C404.933807,88.863174 404.841400,89.638435 404.563599,90.639771 
	C404.455902,90.087639 404.533630,89.309441 404.818787,88.309570 
z"/>
<path fill="#B7EAFC" opacity="1.000000" stroke="none" 
	d="
M202.617676,103.865707 
	C202.364487,103.876907 202.279236,103.711372 202.119690,103.276596 
	C202.197723,102.736336 202.401382,102.511864 202.883652,102.310196 
	C203.002518,102.753952 202.894073,103.221466 202.617676,103.865707 
z"/>
<path fill="#B6DEFD" opacity="1.000000" stroke="none" 
	d="
M278.292480,525.979309 
	C278.765594,525.825134 279.353973,526.006714 280.151764,526.422363 
	C279.710022,526.542664 279.058899,526.428894 278.292480,525.979309 
z"/>
<path fill="#0092FF" opacity="1.000000" stroke="none" 
	d="
M201.510178,272.571899 
	C201.814896,272.740326 201.844986,273.112274 201.879852,274.045258 
	C201.668274,273.996002 201.451904,273.385742 201.510178,272.571899 
z"/>
<path fill="#D4EFFD" opacity="1.000000" stroke="none" 
	d="
M437.308350,212.922424 
	C437.130035,212.838272 437.100067,212.663254 437.163483,212.238846 
	C437.381531,212.170715 437.528503,212.341919 437.617554,212.539261 
	C437.645020,212.600082 437.514709,212.732147 437.308350,212.922424 
z"/>
<path fill="#D4EFFD" opacity="1.000000" stroke="none" 
	d="
M437.638855,209.866913 
	C437.518951,209.958145 437.345459,209.495102 437.422119,209.260284 
	C437.807159,209.200485 437.893799,209.450562 437.638855,209.866913 
z"/>
<path fill="#019FFF" opacity="1.000000" stroke="none" 
	d="
M239.993744,480.289062 
	C240.267532,480.093109 240.544113,480.254883 240.873917,480.736511 
	C240.677902,480.815674 240.367706,480.679108 239.993744,480.289062 
z"/>
<path fill="#D4ECFD" opacity="1.000000" stroke="none" 
	d="
M232.166168,473.117737 
	C232.391830,473.039948 232.690430,473.221130 233.055237,473.670898 
	C232.827332,473.751862 232.533218,473.564301 232.166168,473.117737 
z"/>
<path fill="#05B8FD" opacity="1.000000" stroke="none" 
	d="
M405.015381,95.519562 
	C404.976898,95.596802 404.996643,95.538399 405.016052,95.528946 
	C405.035492,95.519493 405.053894,95.442322 405.015381,95.519562 
z"/>
<path fill="#24B5FA" opacity="1.000000" stroke="none" 
	d="
M193.372986,102.083809 
	C193.487045,101.957870 193.645935,102.016411 193.894073,102.186188 
	C193.997650,102.258629 193.708099,102.376228 193.708099,102.376228 
	C193.708099,102.376228 193.432129,102.229485 193.372986,102.083809 
z"/>
<path fill="#D4EFFD" opacity="1.000000" stroke="none" 
	d="
M383.636749,151.156235 
	C383.636749,151.156235 383.630615,150.668854 383.627075,150.425201 
	C383.977966,150.285019 384.332397,150.388489 384.886566,150.693451 
	C385.086304,150.894958 384.873016,151.130341 384.510193,151.193787 
	C383.977173,151.223572 383.806976,151.189911 383.636749,151.156235 
z"/>
<path fill="#018DFB" opacity="1.000000" stroke="none" 
	d="
M203.818085,282.332001 
	C203.993484,282.062592 204.191971,282.047516 204.688629,282.021545 
	C204.917877,282.300446 204.772308,282.544586 204.365646,282.855225 
	C204.067810,282.840363 203.954468,282.713348 203.818085,282.332001 
z"/>
<path fill="#79CCFC" opacity="1.000000" stroke="none" 
	d="
M411.335571,104.061569 
	C411.768829,104.050529 411.899719,104.333290 411.719910,104.908432 
	C411.290344,104.912888 411.164978,104.631073 411.335571,104.061569 
z"/>
<path fill="#019FFF" opacity="1.000000" stroke="none" 
	d="
M383.998169,432.552429 
	C383.520599,435.491333 383.044250,437.979950 382.283325,440.734863 
	C375.485870,433.883698 366.896362,436.069122 358.916992,436.048035 
	C319.129608,435.942932 279.341827,435.994690 239.554169,436.012817 
	C237.077530,436.013947 234.600983,436.199341 232.056763,436.654480 
	C231.471161,436.388367 230.523148,435.782684 230.499466,435.142853 
	C230.122238,424.942230 229.863220,414.737244 229.292084,404.267181 
	C229.339630,400.957855 229.672333,397.914612 230.375366,394.394592 
	C233.775345,391.121887 237.412048,390.930237 241.341187,390.939117 
	C284.304901,391.036285 327.269073,390.955750 370.232697,391.073792 
	C374.192871,391.084656 377.492401,390.922943 378.451263,386.079346 
	C380.150909,386.425629 381.572388,386.715271 382.993896,387.004883 
	C382.994934,387.448242 382.995941,387.891602 382.769348,388.838318 
	C383.019989,389.899719 383.498230,390.457764 383.976501,391.015839 
	C383.981140,391.760071 383.985779,392.504303 383.692749,393.661469 
	C383.077637,394.482788 382.760193,394.891174 382.442688,395.299561 
	C382.959351,395.534882 383.476013,395.770233 383.992676,396.005585 
	C384.297821,398.078217 384.602997,400.150818 384.953491,402.612335 
	C384.665649,412.701508 384.332520,422.401825 383.998169,432.552429 
z"/>
<path fill="#013A7C" opacity="1.000000" stroke="none" 
	d="
M232.745117,272.887543 
	C225.512421,267.014740 224.226440,259.302826 225.430908,250.459091 
	C241.935623,250.000092 257.925385,250.135040 273.909607,249.897934 
	C277.560944,249.843750 281.188843,248.482925 284.837952,247.777267 
	C285.579163,247.633942 286.374573,247.657883 287.132355,247.732758 
	C290.518738,248.067307 293.900513,248.448273 297.691193,248.828354 
	C305.174805,251.045395 312.101318,250.320908 319.140045,248.079117 
	C322.831329,248.587372 326.316650,248.959946 329.803070,248.971069 
	C348.346954,249.030289 366.891083,248.998932 386.002106,248.998932 
	C386.002106,245.049057 385.791962,240.746918 386.135193,236.489410 
	C386.233215,235.273682 387.936218,234.187347 389.006653,232.994080 
	C389.110016,232.946457 389.334320,232.907440 389.334320,232.907440 
	C388.937500,241.430283 388.428467,249.949783 388.175598,258.476898 
	C387.927063,266.857880 385.068726,271.243988 377.175720,274.538757 
	C375.882568,274.829620 374.827271,274.878754 372.986267,274.954651 
	C371.136810,275.033966 370.073059,275.086548 369.009338,275.139160 
	C346.730255,275.072296 324.451172,274.984406 302.172058,274.945160 
	C283.879913,274.912964 265.586121,275.071533 247.296677,274.847717 
	C242.560059,274.789795 237.837128,273.614349 232.745117,272.887543 
M297.470551,251.684097 
	C298.019226,252.023636 298.567902,252.363190 299.116577,252.702728 
	C299.251923,252.427795 299.387238,252.152863 299.522552,251.877914 
	C298.985291,251.672531 298.448029,251.467148 297.470551,251.684097 
z"/>
<path fill="#018DFB" opacity="1.000000" stroke="none" 
	d="
M369.076904,275.470703 
	C370.073059,275.086548 371.136810,275.033966 372.597382,275.034851 
	C372.148865,277.687592 370.797089,277.556000 369.076904,275.470703 
z"/>
<path fill="#02ADFE" opacity="1.000000" stroke="none" 
	d="
M383.418549,151.372955 
	C383.806976,151.189911 383.977173,151.223572 384.402039,151.310089 
	C388.928986,157.102921 393.201202,162.842880 397.805969,169.137817 
	C399.782898,175.125824 403.184875,177.608109 408.945801,176.129837 
	C408.945801,176.129837 408.756989,176.276657 408.975433,176.538803 
	C409.193878,176.800949 409.639130,176.915054 409.639130,176.915054 
	C409.639130,176.915054 410.084412,176.800613 410.084412,176.800613 
	C410.084412,176.800613 410.480469,176.796982 410.895752,176.822876 
	C411.311035,176.848755 411.787354,176.923767 411.787354,176.923767 
	C414.024750,177.849411 416.262115,178.775070 419.078613,179.810303 
	C419.657715,179.919876 420.132111,179.820740 420.132111,179.820740 
	C420.359833,180.031494 420.587891,180.241928 420.927002,180.656219 
	C420.750458,182.101501 420.463165,183.342621 420.411438,183.566101 
	C421.496399,185.648712 422.881104,187.082031 422.899261,188.532471 
	C423.066986,201.916977 423.087128,215.305618 422.909027,228.689850 
	C422.880280,230.850800 421.663940,232.995941 420.964661,235.540558 
	C418.535706,236.596039 416.138672,237.259369 413.370575,237.493439 
	C414.065521,222.868225 411.630737,208.982773 408.758301,195.215881 
	C408.209412,192.585052 405.259460,188.909454 402.928711,188.500519 
	C397.104095,187.478592 390.998779,188.056656 384.965393,187.624939 
	C381.249542,178.621414 377.600616,170.038055 370.802582,163.150589 
	C367.167664,159.467880 364.242004,155.085129 360.996277,151.018311 
	C362.589935,148.389450 364.183594,145.760605 365.602112,143.420624 
	C369.348633,143.989624 372.755646,144.507065 376.541687,145.051819 
	C377.223511,151.785828 378.663269,153.278549 383.418549,151.372955 
z"/>
<path fill="#79CCFC" opacity="1.000000" stroke="none" 
	d="
M420.115906,179.480530 
	C420.132111,179.820740 419.657715,179.919876 419.416809,179.932800 
	C419.232605,179.377991 419.289246,178.810242 419.546234,178.034058 
	C419.864288,178.263855 419.981995,178.702087 420.115906,179.480530 
z"/>
<path fill="#0298FA" opacity="1.000000" stroke="none" 
	d="
M360.646362,150.977264 
	C364.242004,155.085129 367.167664,159.467880 370.802582,163.150589 
	C377.600616,170.038055 381.249542,178.621414 384.963135,188.063507 
	C384.967743,190.330170 384.933868,191.790527 384.625732,193.021515 
	C382.895081,189.813828 381.516174,186.794571 379.968597,183.864395 
	C374.120087,172.790756 366.602295,163.119873 356.010193,155.621506 
	C355.211517,154.767731 354.670593,154.099213 353.985504,153.651016 
	C331.064331,138.655380 306.523560,134.494934 280.414764,143.519791 
	C274.280762,145.640091 268.793549,149.631424 262.654510,152.825348 
	C248.239517,162.009827 237.893173,174.200546 231.489807,190.112762 
	C230.086182,193.234787 228.938843,196.105576 227.553406,198.698608 
	C228.543533,192.946838 229.771774,187.472809 231.000015,181.998779 
	C234.392090,176.367401 237.367706,170.422668 241.299347,165.197281 
	C244.867233,160.455307 249.477844,156.498276 253.624832,152.191376 
	C254.736359,151.037003 255.833435,149.868713 256.975983,148.359512 
	C259.495148,146.847046 262.212921,146.017685 264.415741,144.460052 
	C275.444824,136.661285 287.812317,133.876053 301.108490,132.765717 
	C310.868683,131.950638 320.329559,132.813644 329.477478,135.256958 
	C336.954895,137.254074 343.961609,141.176163 350.987457,144.630371 
	C354.318665,146.268127 357.207306,148.806076 360.646362,150.977264 
z"/>
<path fill="#08CDFC" opacity="1.000000" stroke="none" 
	d="
M202.006271,176.908264 
	C203.784103,176.719940 205.171417,176.605240 207.205093,176.348907 
	C209.190094,176.299377 210.528732,176.391479 211.867371,176.483582 
	C210.942383,179.079803 210.017410,181.676041 209.007706,185.008606 
	C207.283020,189.831177 205.643036,193.917419 204.003052,198.003662 
	C197.647644,198.002792 191.292221,198.001923 184.461884,197.649750 
	C183.620102,196.713623 183.253265,196.128815 182.886414,195.544006 
	C182.590134,196.697021 182.293854,197.850037 181.998779,199.001526 
	C182.000000,199.000000 182.002289,198.997559 182.002289,198.997559 
	C180.629852,199.950012 179.257401,200.902466 177.553925,201.930420 
	C179.234039,192.302460 184.703812,185.136826 193.556519,179.934052 
	C193.893860,179.662125 194.053314,179.491241 194.053314,179.491241 
	C194.053314,179.491241 194.080093,179.259125 194.370514,179.162506 
	C194.660919,179.065903 195.067703,179.009216 195.067703,179.009216 
	C197.250381,178.333435 199.433075,177.657654 202.006271,176.908264 
z"/>
<path fill="#24B5FA" opacity="1.000000" stroke="none" 
	d="
M195.042664,178.745331 
	C195.067703,179.009216 194.660919,179.065903 194.456619,179.083572 
	C194.224762,178.649094 194.197189,178.196960 194.278610,177.422882 
	C194.597610,177.561127 194.807617,178.021286 195.042664,178.745331 
z"/>
<path fill="#24B5FA" opacity="1.000000" stroke="none" 
	d="
M193.940430,179.454437 
	C194.053314,179.491241 193.893860,179.662125 193.866486,179.704803 
	C193.839127,179.747482 193.827545,179.417618 193.940430,179.454437 
z"/>
<path fill="#79CCFC" opacity="1.000000" stroke="none" 
	d="
M411.449036,121.049286 
	C411.619141,121.119217 411.673035,121.312012 411.631836,121.790039 
	C411.434448,121.881432 411.309998,121.695107 411.240295,121.490158 
	C411.211182,121.404549 411.298462,121.279350 411.449036,121.049286 
z"/>
<path fill="#019FFF" opacity="1.000000" stroke="none" 
	d="
M384.899994,193.250870 
	C384.933868,191.790527 384.967743,190.330170 385.003845,188.431244 
	C390.998779,188.056656 397.104095,187.478592 402.928711,188.500519 
	C405.259460,188.909454 408.209412,192.585052 408.758301,195.215881 
	C411.630737,208.982773 414.065521,222.868225 412.999329,237.532959 
	C412.899689,238.322510 412.714569,238.582214 412.226532,238.888184 
	C410.967133,237.566757 409.924957,236.137939 408.667603,234.414078 
	C402.861206,233.960083 396.508911,233.463409 389.745483,232.937103 
	C389.334320,232.907440 389.110016,232.946457 389.076691,232.526093 
	C388.921265,225.746506 388.799164,219.387253 388.759460,212.627914 
	C388.207001,209.493423 387.572144,206.759033 386.938660,203.645630 
	C386.879761,202.512573 386.819489,201.758514 386.826569,200.626434 
	C386.229279,197.915909 385.564636,195.583389 384.899994,193.250870 
z"/>
<path fill="#019FFF" opacity="1.000000" stroke="none" 
	d="
M204.005402,198.411346 
	C205.643036,193.917419 207.283020,189.831177 208.976700,185.379059 
	C212.187225,183.800659 215.294510,182.424240 218.522919,181.448608 
	C220.012146,180.998566 221.744232,181.234299 223.355408,181.333878 
	C225.649994,181.475662 227.934662,181.778275 230.611786,182.005493 
	C229.771774,187.472809 228.543533,192.946838 227.589737,199.066376 
	C227.459961,201.136307 227.055725,202.560745 226.310608,204.095749 
	C225.403870,205.672333 224.838028,207.138336 224.428055,208.200531 
	C221.143967,208.467606 218.113434,208.830307 215.075470,208.909866 
	C213.653610,208.947098 212.197327,208.516556 210.792099,208.158752 
	C208.186996,207.495407 205.607925,206.729752 203.018021,206.006714 
	C203.347931,203.610825 203.677841,201.214935 204.005402,198.411346 
z"/>
<path fill="#EEF6FE" opacity="1.000000" stroke="none" 
	d="
M212.096619,176.268982 
	C210.528732,176.391479 209.190094,176.299377 207.513260,176.182037 
	C206.062683,175.973160 204.950317,175.789520 202.702545,175.418457 
	C207.590439,173.156494 211.590118,171.305573 215.804688,169.743805 
	C214.788330,172.040100 213.557083,174.047241 212.096619,176.268982 
z"/>
<path fill="#05B8FD" opacity="1.000000" stroke="none" 
	d="
M236.714905,145.831299 
	C238.291794,145.170486 239.881088,144.572327 241.708267,143.884644 
	C241.708267,145.329437 241.708267,146.821152 241.708267,149.275986 
	C239.742844,148.136612 238.346085,147.326889 236.781326,146.176697 
	C236.613342,145.836243 236.727310,145.893951 236.714905,145.831299 
z"/>
<path fill="#05B8FD" opacity="1.000000" stroke="none" 
	d="
M401.880310,407.273865 
	C401.780060,407.749878 401.639709,407.999512 401.499329,408.249146 
	C401.359375,407.999786 401.055359,407.687500 401.120789,407.516876 
	C401.203857,407.300293 401.586670,407.198669 401.880310,407.273865 
z"/>
<path fill="#01ABFF" opacity="1.000000" stroke="none" 
	d="
M382.995667,386.585022 
	C381.572388,386.715271 380.150909,386.425629 378.451263,386.079346 
	C377.492401,390.922943 374.192871,391.084656 370.232697,391.073792 
	C327.269073,390.955750 284.304901,391.036285 241.341187,390.939117 
	C237.412048,390.930237 233.775345,391.121887 230.376205,393.961670 
	C230.668625,389.604767 231.330536,385.204041 231.987122,380.395172 
	C233.649979,372.921143 235.318192,365.855225 237.345032,358.357880 
	C240.974487,355.752899 242.579895,351.045410 247.623611,351.471771 
	C248.077515,351.510162 248.861069,350.364594 249.110764,349.638031 
	C250.255859,346.305695 252.733734,345.942657 255.837097,345.950073 
	C289.282776,346.030151 322.728790,346.041199 356.174438,345.955048 
	C361.121368,345.942322 366.066742,345.327637 371.012817,344.991455 
	C371.012817,344.991455 371.506409,344.996002 371.753204,344.998596 
	C373.989807,350.328705 376.010223,355.645050 377.948029,360.991394 
	C378.435822,362.337128 378.658966,363.778778 379.004150,365.924805 
	C379.337891,367.448517 379.671265,368.223785 380.004578,368.999054 
	C380.006866,369.440857 380.009125,369.882660 380.015015,370.655518 
	C381.011566,376.046112 382.004517,381.105652 382.995667,386.585022 
z"/>
<path fill="#01ABFF" opacity="1.000000" stroke="none" 
	d="
M383.995789,395.670105 
	C383.476013,395.770233 382.959351,395.534882 382.442688,395.299561 
	C382.760193,394.891174 383.077637,394.482788 383.692657,394.033569 
	C383.993134,394.440063 383.996002,394.887360 383.995789,395.670105 
z"/>
<path fill="#01ABFF" opacity="1.000000" stroke="none" 
	d="
M383.964020,390.715729 
	C383.498230,390.457764 383.019989,389.899719 382.769501,389.170837 
	C383.315369,389.471863 383.633453,389.943756 383.964020,390.715729 
z"/>
<path fill="#023E83" opacity="1.000000" stroke="none" 
	d="
M297.283966,248.812469 
	C293.900513,248.448273 290.518738,248.067307 287.132355,247.732758 
	C286.374573,247.657883 285.579163,247.633942 284.837952,247.777267 
	C281.188843,248.482925 277.560944,249.843750 273.909607,249.897934 
	C257.925385,250.135040 241.935623,250.000092 225.480423,250.000427 
	C224.890549,249.456818 224.768112,248.912903 224.477417,248.150421 
	C224.467987,244.573898 224.626831,241.215912 224.795929,236.977936 
	C224.880692,232.399780 224.955185,228.701630 225.495605,225.002121 
	C239.601364,225.000305 253.241257,225.019547 266.880981,224.979156 
	C269.053009,224.972733 270.985474,225.432709 272.480225,222.376205 
	C273.506409,220.277802 277.215729,218.394592 279.777954,218.324509 
	C295.011261,217.907822 310.259888,218.018829 325.503174,218.046921 
	C326.976929,218.049637 328.449524,218.697327 329.922638,219.045624 
	C329.865784,219.545654 329.808929,220.045685 329.752075,220.545715 
	C315.723419,220.545715 301.694763,220.545715 286.685089,220.545715 
	C287.957489,221.488831 288.209198,221.838623 288.460571,221.838364 
	C302.088470,221.824509 315.716400,221.749863 329.343994,221.794220 
	C330.574493,221.798218 331.802551,222.550140 332.916290,223.093658 
	C332.800842,223.232574 332.568604,223.509293 332.132355,223.442947 
	C316.036987,223.304596 300.377747,223.253372 284.718872,223.145569 
	C280.932770,223.119507 279.697662,224.731735 280.486969,228.462036 
	C282.550903,238.216400 288.675781,244.513870 297.283966,248.812469 
M283.617615,220.810287 
	C283.064941,220.796555 282.509430,220.753525 281.963257,220.806686 
	C281.896027,220.813248 281.878754,221.333450 281.838348,221.615616 
	C282.416046,221.532288 282.993774,221.448959 283.617615,220.810287 
z"/>
<path fill="#05B8FD" opacity="1.000000" stroke="none" 
	d="
M380.258667,368.799683 
	C379.671265,368.223785 379.337891,367.448517 379.005920,366.334137 
	C379.509125,366.863464 380.010895,367.731873 380.258667,368.799683 
z"/>
<path fill="#08CDFC" opacity="1.000000" stroke="none" 
	d="
M388.001221,349.998779 
	C388.706055,350.484192 389.409668,350.970795 390.113312,351.457397 
	C389.869720,351.748657 389.626160,352.039948 389.382568,352.331207 
	C388.939240,351.762909 388.495911,351.194580 388.025055,350.314331 
	C387.997559,350.002441 388.000000,350.000000 388.001221,349.998779 
z"/>
<path fill="#01B5FE" opacity="1.000000" stroke="none" 
	d="
M371.009827,344.599304 
	C366.066742,345.327637 361.121368,345.942322 356.174438,345.955048 
	C322.728790,346.041199 289.282776,346.030151 255.837097,345.950073 
	C252.733734,345.942657 250.255859,346.305695 249.110764,349.638031 
	C248.861069,350.364594 248.077515,351.510162 247.623611,351.471771 
	C242.579895,351.045410 240.974487,355.752899 237.355042,357.965027 
	C237.003754,357.557587 237.001083,357.111542 236.995605,356.330902 
	C240.360779,348.711823 243.072495,341.021210 247.264389,334.246490 
	C252.398514,325.948944 258.771881,318.418213 264.808228,310.283691 
	C268.095795,311.313721 271.184601,312.615997 275.018616,314.004456 
	C277.922211,314.731628 280.041687,315.664307 282.246368,315.958313 
	C288.600616,316.805756 294.984955,317.437897 301.365204,318.077667 
	C314.962891,319.441223 328.138458,317.433044 340.997192,312.994171 
	C343.394989,312.329468 345.792755,311.664734 348.567017,310.996948 
	C350.030304,311.322296 351.117188,311.650665 352.534790,312.054260 
	C354.936646,315.313965 357.207123,318.388458 359.038330,321.705414 
	C363.143768,329.141998 367.030823,336.699127 371.009827,344.599304 
z"/>
<path fill="#08CDFC" opacity="1.000000" stroke="none" 
	d="
M224.000916,356.000610 
	C223.842239,356.857727 223.682663,357.714233 223.523087,358.570770 
	C223.159790,358.441132 222.796494,358.311493 222.433197,358.181854 
	C222.733643,357.487915 223.034073,356.793976 223.666336,356.049408 
	C223.998169,355.998779 224.000000,356.000000 224.000916,356.000610 
z"/>
<path fill="#0298FA" opacity="1.000000" stroke="none" 
	d="
M225.029678,225.003464 
	C224.955185,228.701630 224.880692,232.399780 224.702652,236.549286 
	C222.853149,234.880737 220.441544,233.013931 219.516815,230.581818 
	C218.120865,226.910339 215.709763,225.976852 212.316330,225.996368 
	C208.857010,226.016251 205.397476,226.000458 201.472626,226.000458 
	C201.302628,222.603180 201.598007,219.205734 201.935410,215.398956 
	C202.314072,212.266724 202.650742,209.543854 203.002716,206.413849 
	C205.607925,206.729752 208.186996,207.495407 210.792099,208.158752 
	C212.197327,208.516556 213.653610,208.947098 215.075470,208.909866 
	C218.113434,208.830307 221.143967,208.467606 224.428055,208.200531 
	C224.838028,207.138336 225.403870,205.672333 226.362106,204.482697 
	C226.179565,211.507217 225.604614,218.255341 225.029678,225.003464 
z"/>
<path fill="#0298FA" opacity="1.000000" stroke="none" 
	d="
M340.906799,312.598114 
	C328.138458,317.433044 314.962891,319.441223 301.365204,318.077667 
	C294.984955,317.437897 288.600616,316.805756 282.246368,315.958313 
	C280.041687,315.664307 277.922211,314.731628 275.383728,314.039246 
	C275.969543,312.994202 276.928528,311.141479 277.902313,311.133667 
	C298.204529,310.970367 318.508484,311.004822 338.811859,311.070282 
	C339.481262,311.072449 340.148285,311.808228 340.906799,312.598114 
z"/>
<path fill="#08CDFC" opacity="1.000000" stroke="none" 
	d="
M184.000000,198.000000 
	C183.687698,198.846298 183.375412,199.692581 183.063110,200.538879 
	C182.738968,200.234528 182.414841,199.930176 182.046509,199.311691 
	C182.002289,198.997559 182.000000,199.000000 182.258057,198.893799 
	C183.010757,198.525070 183.505371,198.262543 184.000000,198.000000 
z"/>
<path fill="#05C6FD" opacity="1.000000" stroke="none" 
	d="
M380.999390,342.000610 
	C379.923584,341.142456 378.848389,340.283661 377.773193,339.424866 
	C378.304474,338.993958 378.835785,338.563019 379.367065,338.132080 
	C379.908447,339.177704 380.449829,340.223328 380.996216,341.633850 
	C381.001221,341.998779 381.000000,342.000000 380.999390,342.000610 
z"/>
<path fill="#05B8FD" opacity="1.000000" stroke="none" 
	d="
M191.452393,93.529015 
	C191.421387,93.475815 191.483414,93.582214 191.452393,93.529015 
z"/>
<path fill="#EEF6FE" opacity="1.000000" stroke="none" 
	d="
M408.902588,175.766556 
	C403.184875,177.608109 399.782898,175.125824 398.076599,169.332581 
	C399.403198,169.621933 400.865021,170.151749 402.163879,170.947556 
	C404.448212,172.347061 406.632935,173.909225 408.902588,175.766556 
z"/>
<path fill="#79CCFC" opacity="1.000000" stroke="none" 
	d="
M411.751129,176.640442 
	C411.787354,176.923767 411.311035,176.848755 411.084900,176.764236 
	C410.893219,176.450119 410.986176,176.247345 411.272919,175.973236 
	C411.510468,176.035767 411.612701,176.196442 411.751129,176.640442 
z"/>
<path fill="#79CCFC" opacity="1.000000" stroke="none" 
	d="
M409.919189,176.626434 
	C410.084412,176.800613 409.639130,176.915054 409.639130,176.915054 
	C409.639130,176.915054 409.193878,176.800949 409.025940,176.647186 
	C409.146240,176.251480 409.444885,176.237762 409.919189,176.626434 
z"/>
<path fill="#023E83" opacity="1.000000" stroke="none" 
	d="
M388.677063,213.028015 
	C388.799164,219.387253 388.921265,225.746506 388.973328,232.573715 
	C387.936218,234.187347 386.233215,235.273682 386.135193,236.489410 
	C385.791962,240.746918 386.002106,245.049057 386.002106,248.998932 
	C366.891083,248.998932 348.346954,249.030289 329.803070,248.971069 
	C326.316650,248.959946 322.831329,248.587372 319.353058,247.805084 
	C326.598175,243.905975 330.579163,237.841400 332.762543,230.564560 
	C333.404572,228.424850 332.671478,225.872528 332.568604,223.509293 
	C332.568604,223.509293 332.800842,223.232574 333.286316,223.107941 
	C334.512787,222.991074 335.253784,222.998856 336.050720,223.145691 
	C336.194244,223.333557 336.281891,223.382355 336.369507,223.431152 
	C336.248474,223.285721 336.127441,223.140289 335.947174,222.646210 
	C334.901367,221.272659 333.914856,220.247772 332.713776,219.000000 
	C346.858185,219.000000 360.288239,219.205246 373.706421,218.896347 
	C378.886230,218.777100 383.213806,218.905472 384.348816,225.151733 
	C384.369263,225.264481 384.907532,225.283127 386.000000,225.513474 
	C386.000000,223.321793 385.884125,221.245697 386.026123,219.187408 
	C386.260681,215.787292 386.661774,212.398636 386.995636,209.365814 
	C387.558105,210.826996 388.117584,211.927505 388.677063,213.028015 
z"/>
<path fill="#F7F9FB" opacity="1.000000" stroke="none" 
	d="
M332.132355,223.442947 
	C332.671478,225.872528 333.404572,228.424850 332.762543,230.564560 
	C330.579163,237.841400 326.598175,243.905975 319.147583,247.502594 
	C312.101318,250.320908 305.174805,251.045395 297.691193,248.828354 
	C288.675781,244.513870 282.550903,238.216400 280.486969,228.462036 
	C279.697662,224.731735 280.932770,223.119507 284.718872,223.145569 
	C300.377747,223.253372 316.036987,223.304596 332.132355,223.442947 
z"/>
<path fill="#023E83" opacity="1.000000" stroke="none" 
	d="
M297.690674,251.472931 
	C298.448029,251.467148 298.985291,251.672531 299.522552,251.877914 
	C299.387238,252.152863 299.251923,252.427795 299.116577,252.702728 
	C298.567902,252.363190 298.019226,252.023636 297.690674,251.472931 
z"/>
<path fill="#024494" opacity="1.000000" stroke="none" 
	d="
M384.625732,193.021515 
	C385.564636,195.583389 386.229279,197.915909 386.495728,200.547272 
	C382.942078,198.231964 379.957916,193.687637 376.596954,193.389450 
	C368.618042,192.681534 360.460632,193.985489 352.376068,194.448105 
	C352.376801,194.419815 352.380219,194.363327 352.539551,194.129791 
	C352.655762,193.543808 352.612610,193.191360 352.569458,192.838928 
	C352.346466,192.959854 352.123474,193.080765 351.628235,193.032150 
	C349.911499,191.639114 348.467041,190.415634 346.953766,188.800308 
	C344.421844,186.512161 342.034088,185.542587 339.904999,189.093872 
	C339.806549,189.220047 339.500732,189.125671 339.067078,189.095947 
	C333.219421,188.752274 332.529205,191.968933 333.302612,196.269119 
	C333.341461,196.287735 333.364594,196.370682 332.959808,196.263306 
	C328.923492,192.062195 324.054047,193.029297 319.460999,193.014404 
	C306.025696,192.970810 292.590179,192.993790 278.864136,192.783524 
	C271.819855,186.395538 265.488861,187.619644 260.509277,195.988708 
	C257.794281,191.983917 253.903595,193.069672 250.355377,192.995056 
	C247.247391,192.929703 244.130020,192.945419 241.036636,192.687408 
	C239.127960,192.528198 237.256470,191.923264 235.368286,191.518433 
	C235.257507,191.886749 235.146729,192.255051 235.035965,192.623352 
	C233.939346,191.702744 232.842728,190.782135 231.746109,189.861526 
	C237.893173,174.200546 248.239517,162.009827 262.649597,153.221863 
	C261.912598,155.073334 260.896484,156.648804 259.720428,158.094116 
	C258.508575,159.583435 256.948486,160.823532 255.931686,162.421432 
	C255.495804,163.106461 256.048157,164.420319 256.151489,165.448456 
	C257.132996,165.211426 258.263824,165.205750 259.064728,164.688873 
	C260.703064,163.631561 262.164124,162.299622 263.054260,161.592392 
	C266.010651,162.157150 268.207123,162.870880 270.424225,162.942169 
	C275.901367,163.118286 281.387970,163.000015 286.870789,162.999985 
	C307.472870,162.999924 328.074982,163.014954 348.677002,162.982010 
	C351.475800,162.977539 354.870026,163.525650 353.503296,158.582092 
	C353.338318,157.985413 355.251007,156.814346 356.200745,155.909485 
	C366.602295,163.119873 374.120087,172.790756 379.968597,183.864395 
	C381.516174,186.794571 382.895081,189.813828 384.625732,193.021515 
z"/>
<path fill="#01408B" opacity="1.000000" stroke="none" 
	d="
M231.489807,190.112762 
	C232.842728,190.782135 233.939346,191.702744 235.035965,192.623352 
	C235.146729,192.255051 235.257507,191.886749 235.368286,191.518433 
	C237.256470,191.923264 239.127960,192.528198 241.036636,192.687408 
	C244.130020,192.945419 247.247391,192.929703 250.355377,192.995056 
	C253.903595,193.069672 257.794281,191.983917 260.554077,196.410507 
	C260.980164,203.351227 263.241211,207.473434 268.320007,207.900467 
	C271.395264,208.159042 275.267334,207.102982 277.682007,205.224411 
	C281.732727,202.073029 280.973358,197.371338 279.154724,192.990692 
	C292.590179,192.993790 306.025696,192.970810 319.460999,193.014404 
	C324.054047,193.029297 328.923492,192.062195 332.961090,196.649109 
	C333.706207,201.311508 333.113190,205.908844 338.554962,207.582153 
	C348.706238,210.703659 354.500641,205.227585 352.375336,194.476410 
	C360.460632,193.985489 368.618042,192.681534 376.596954,193.389450 
	C379.957916,193.687637 382.942078,198.231964 386.428375,200.925278 
	C386.819489,201.758514 386.879761,202.512573 386.699097,203.858978 
	C386.636322,205.969284 386.814514,207.487213 386.992676,209.005157 
	C386.661774,212.398636 386.260681,215.787292 386.026123,219.187408 
	C385.884125,221.245697 386.000000,223.321793 386.000000,225.513474 
	C384.907532,225.283127 384.369263,225.264481 384.348816,225.151733 
	C383.213806,218.905472 378.886230,218.777100 373.706421,218.896347 
	C360.288239,219.205246 346.858185,219.000000 332.713776,219.000000 
	C333.914856,220.247772 334.901367,221.272659 335.943970,222.648773 
	C336.000000,223.000000 335.994812,223.006638 335.994812,223.006638 
	C335.253784,222.998856 334.512787,222.991074 333.401733,222.969009 
	C331.802551,222.550140 330.574493,221.798218 329.343994,221.794220 
	C315.716400,221.749863 302.088470,221.824509 288.460571,221.838364 
	C288.209198,221.838623 287.957489,221.488831 286.685089,220.545715 
	C301.694763,220.545715 315.723419,220.545715 329.752075,220.545715 
	C329.808929,220.045685 329.865784,219.545654 329.922638,219.045624 
	C328.449524,218.697327 326.976929,218.049637 325.503174,218.046921 
	C310.259888,218.018829 295.011261,217.907822 279.777954,218.324509 
	C277.215729,218.394592 273.506409,220.277802 272.480225,222.376205 
	C270.985474,225.432709 269.053009,224.972733 266.880981,224.979156 
	C253.241257,225.019547 239.601364,225.000305 225.495605,225.002121 
	C225.604614,218.255341 226.179565,211.507217 226.703003,204.372131 
	C227.055725,202.560745 227.459961,201.136307 227.827850,199.344116 
	C228.938843,196.105576 230.086182,193.234787 231.489807,190.112762 
M258.410339,200.481903 
	C258.410339,200.481903 258.522614,200.414124 258.410339,200.481903 
z"/>
<path fill="#01479D" opacity="1.000000" stroke="none" 
	d="
M356.010193,155.621490 
	C355.251007,156.814346 353.338318,157.985413 353.503296,158.582092 
	C354.870026,163.525650 351.475800,162.977539 348.677002,162.982010 
	C328.074982,163.014954 307.472870,162.999924 286.870789,162.999985 
	C281.387970,163.000015 275.901367,163.118286 270.424225,162.942169 
	C268.207123,162.870880 266.010651,162.157150 263.054260,161.592392 
	C262.164124,162.299622 260.703064,163.631561 259.064728,164.688873 
	C258.263824,165.205750 257.132996,165.211426 256.151489,165.448456 
	C256.048157,164.420319 255.495804,163.106461 255.931686,162.421432 
	C256.948486,160.823532 258.508575,159.583435 259.720428,158.094116 
	C260.896484,156.648804 261.912598,155.073334 263.003845,153.158508 
	C268.793549,149.631424 274.280762,145.640091 280.414764,143.519791 
	C306.523560,134.494934 331.064331,138.655380 353.985504,153.651016 
	C354.670593,154.099213 355.211517,154.767731 356.010193,155.621490 
z"/>
<path fill="#05B8FD" opacity="1.000000" stroke="none" 
	d="
M183.993469,197.649231 
	C183.505371,198.262543 183.010757,198.525070 182.256851,198.895325 
	C182.293854,197.850037 182.590134,196.697021 182.886414,195.544006 
	C183.253265,196.128815 183.620102,196.713623 183.993469,197.649231 
z"/>
<path fill="#024494" opacity="1.000000" stroke="none" 
	d="
M386.995667,209.365814 
	C386.814514,207.487213 386.636322,205.969284 386.697723,204.237976 
	C387.572144,206.759033 388.207001,209.493423 388.759460,212.627930 
	C388.117584,211.927505 387.558105,210.826996 386.995667,209.365814 
z"/>
<path fill="#01408B" opacity="1.000000" stroke="none" 
	d="
M283.594543,221.087952 
	C282.993774,221.448959 282.416046,221.532288 281.838348,221.615616 
	C281.878754,221.333450 281.896027,220.813248 281.963257,220.806686 
	C282.509430,220.753525 283.064941,220.796555 283.594543,221.087952 
z"/>
<path fill="#01408B" opacity="1.000000" stroke="none" 
	d="
M336.003235,222.997437 
	C336.127441,223.140289 336.248474,223.285721 336.369507,223.431152 
	C336.281891,223.382355 336.194244,223.333557 336.050720,223.145691 
	C335.994812,223.006638 336.000000,223.000000 336.003235,222.997437 
z"/>
<path fill="#F7F9FB" opacity="1.000000" stroke="none" 
	d="
M352.376068,194.448120 
	C354.500641,205.227585 348.706238,210.703659 338.554962,207.582153 
	C333.113190,205.908844 333.706207,201.311508 333.365875,196.756500 
	C333.364594,196.370682 333.341461,196.287735 333.547546,196.034973 
	C335.669342,193.563354 337.585022,191.344513 339.500732,189.125671 
	C339.500732,189.125671 339.806549,189.220047 340.181458,189.107849 
	C340.719788,188.910019 340.883240,188.824371 341.358093,188.792831 
	C342.079834,188.768372 342.490204,188.689774 343.303772,188.719299 
	C344.812164,188.948990 345.917358,189.070572 347.022583,189.192154 
	C348.467041,190.415634 349.911499,191.639114 351.621582,193.257721 
	C351.919128,193.981628 352.083435,194.218475 352.380219,194.363327 
	C352.380219,194.363327 352.376801,194.419815 352.376068,194.448120 
z"/>
<path fill="#F7F9FB" opacity="1.000000" stroke="none" 
	d="
M278.864136,192.783524 
	C280.973358,197.371338 281.732727,202.073029 277.682007,205.224411 
	C275.267334,207.102982 271.395264,208.159042 268.320007,207.900467 
	C263.241211,207.473434 260.980164,203.351227 260.920135,196.420120 
	C265.488861,187.619644 271.819855,186.395538 278.864136,192.783524 
z"/>
<path fill="#01408B" opacity="1.000000" stroke="none" 
	d="
M339.067078,189.095947 
	C337.585022,191.344513 335.669342,193.563354 333.508728,196.016357 
	C332.529205,191.968933 333.219421,188.752274 339.067078,189.095947 
z"/>
<path fill="#01408B" opacity="1.000000" stroke="none" 
	d="
M341.046722,188.738708 
	C340.883240,188.824371 340.719788,188.910019 340.279907,188.981689 
	C342.034088,185.542587 344.421844,186.512161 346.953766,188.800308 
	C345.917358,189.070572 344.812164,188.948990 343.144775,188.559082 
	C342.070679,188.440094 341.558685,188.589401 341.046722,188.738708 
z"/>
<path fill="#01408B" opacity="1.000000" stroke="none" 
	d="
M352.539551,194.129791 
	C352.083435,194.218475 351.919128,193.981628 351.893860,193.427246 
	C352.123474,193.080765 352.346466,192.959854 352.569458,192.838928 
	C352.612610,193.191360 352.655762,193.543808 352.539551,194.129791 
z"/>
<path fill="#024494" opacity="1.000000" stroke="none" 
	d="
M258.466492,200.448013 
	C258.522614,200.414124 258.410339,200.481903 258.466492,200.448013 
z"/>
<path fill="#024494" opacity="1.000000" stroke="none" 
	d="
M341.358093,188.792816 
	C341.558685,188.589401 342.070679,188.440094 342.741608,188.450989 
	C342.490204,188.689774 342.079834,188.768372 341.358093,188.792816 
z"/>
</svg>