<svg xmlns="http://www.w3.org/2000/svg" enable-background="new 0 0 128 128" viewBox="0 0 128 128" id="robot"><g><linearGradient id="a" x1="2.553" x2="49.003" y1="82.212" y2="82.212" gradientUnits="userSpaceOnUse"><stop offset=".004" stop-color="#7994d8"></stop><stop offset=".037" stop-color="#728dd2"></stop><stop offset=".175" stop-color="#5c75bc"></stop><stop offset=".321" stop-color="#4c64ac"></stop><stop offset=".48" stop-color="#425aa3"></stop><stop offset=".677" stop-color="#3f57a0"></stop><stop offset="1" stop-color="#2a428b"></stop></linearGradient><path fill="url(#a)" d="M46.28,77.92c-1.04,1.55-3.54,4.61-6.81,8.27c-3.26,3.66-7.29,7.91-11.37,11.84
			c-10.98,10.56-16.62,13.39-20,13.39c-1.25,0-2.19-0.39-2.98-0.92c-2.92-1.95-4.86-6.57,2.86-25.99
			c4.18-10.54,9.65-21.33,11.74-24.43c4.92-7.33,14.88-9.28,22.2-4.36c3.55,2.38,5.96,6,6.78,10.2
			C49.52,70.11,48.66,74.37,46.28,77.92z"></path><linearGradient id="b" x1="125.448" x2="78.996" y1="82.214" y2="82.214" gradientUnits="userSpaceOnUse"><stop offset=".004" stop-color="#7994d8"></stop><stop offset=".037" stop-color="#728dd2"></stop><stop offset=".175" stop-color="#5c75bc"></stop><stop offset=".321" stop-color="#4c64ac"></stop><stop offset=".48" stop-color="#425aa3"></stop><stop offset=".677" stop-color="#3f57a0"></stop><stop offset="1" stop-color="#2a428b"></stop></linearGradient><path fill="url(#b)" d="M122.88,110.5
			c-0.79,0.53-1.73,0.92-2.98,0.92c-3.38,0-9.02-2.83-20-13.39c-8.17-7.86-16.1-17.01-18.18-20.11c-2.39-3.55-3.24-7.81-2.42-12
			c0.82-4.2,3.23-7.82,6.78-10.2c7.32-4.92,17.28-2.96,22.2,4.36c2.09,3.1,7.56,13.89,11.74,24.43
			C127.74,103.93,125.8,108.55,122.88,110.5z"></path><linearGradient id="c" x1="28.51" x2="99.49" y1="89.5" y2="89.5" gradientUnits="userSpaceOnUse"><stop offset="0" stop-color="#a4eeff"></stop><stop offset=".732" stop-color="#02c0fc"></stop><stop offset="1" stop-color="#27a6ff"></stop></linearGradient><path fill="url(#c)" d="M99.49,72.35
			c-0.03,12.64-3.45,43.13-34.54,53.5c-0.31,0.1-0.63,0.15-0.95,0.15s-0.64-0.05-0.95-0.15c-31.09-10.37-34.51-40.86-34.54-53.5
			c-0.01-5,0.9-9.99,2.71-14.81l0.97-2.59C32.63,53.78,33.75,53,35,53h58c1.25,0,2.37,0.78,2.81,1.95l0.97,2.59
			C98.59,62.36,99.5,67.35,99.49,72.35z"></path><path fill="#a4eeff" d="M71,109H57c-1.657,0-3-1.343-3-3s1.343-3,3-3h14c1.657,0,3,1.343,3,3S72.657,109,71,109z"></path><linearGradient id="d" x1="41" x2="87" y1="80" y2="80" gradientUnits="userSpaceOnUse"><stop offset=".239" stop-color="#e8f8fc"></stop><stop offset=".36" stop-color="#daf5fb"></stop><stop offset=".586" stop-color="#b6ebf8"></stop><stop offset=".638" stop-color="#ade9f7"></stop><stop offset=".973" stop-color="#80cbf7"></stop></linearGradient><path fill="url(#d)" d="M87,72v16c0,4.41-3.59,8-8,8H49
			c-4.41,0-8-3.59-8-8V72c0-4.41,3.59-8,8-8h30C83.41,64,87,67.59,87,72z"></path><path fill="#384051" d="M54.02 83c-1.656 0-3.005-1.343-3.005-3s1.339-3 2.995-3h.01c1.657 0 3 1.343 3 3S55.677 83 54.02 83zM64.02 83c-1.656 0-3.005-1.343-3.005-3s1.339-3 2.995-3h.01c1.657 0 3 1.343 3 3S65.677 83 64.02 83zM74.02 83c-1.656 0-3.005-1.343-3.005-3s1.339-3 2.995-3h.01c1.657 0 3 1.343 3 3S75.677 83 74.02 83z"></path><linearGradient id="e" x1="24" x2="40" y1="25" y2="25" gradientUnits="userSpaceOnUse"><stop offset=".004" stop-color="#7994d8"></stop><stop offset=".037" stop-color="#728dd2"></stop><stop offset=".175" stop-color="#5c75bc"></stop><stop offset=".321" stop-color="#4c64ac"></stop><stop offset=".48" stop-color="#425aa3"></stop><stop offset=".677" stop-color="#3f57a0"></stop><stop offset="1" stop-color="#2a428b"></stop></linearGradient><path fill="url(#e)" d="M40,16v18c0,1.66-1.34,3-3,3h-4
			c-4.96,0-9-4.04-9-9v-6c0-4.96,4.04-9,9-9h4C38.66,13,40,14.34,40,16z"></path><linearGradient id="f" x1="105" x2="88" y1="25" y2="25" gradientUnits="userSpaceOnUse"><stop offset=".004" stop-color="#7994d8"></stop><stop offset=".037" stop-color="#728dd2"></stop><stop offset=".175" stop-color="#5c75bc"></stop><stop offset=".321" stop-color="#4c64ac"></stop><stop offset=".48" stop-color="#425aa3"></stop><stop offset=".677" stop-color="#3f57a0"></stop><stop offset="1" stop-color="#2a428b"></stop></linearGradient><path fill="url(#f)" d="M105,22v6c0,4.96-4.04,9-9,9h-5
			c-1.66,0-3-1.34-3-3V16c0-1.66,1.34-3,3-3h5C100.96,13,105,17.04,105,22z"></path><path fill="#a4eeff" d="M83,45H45c-4.418,0-8-3.582-8-8V13c0-4.418,3.582-8,8-8h38c4.418,0,8,3.582,8,8v24
				C91,41.418,87.418,45,83,45z"></path><linearGradient id="g" x1="37" x2="91" y1="25" y2="25" gradientUnits="userSpaceOnUse"><stop offset=".184" stop-color="#e8f8fc"></stop><stop offset=".31" stop-color="#daf5fb"></stop><stop offset=".547" stop-color="#b6ebf8"></stop><stop offset=".601" stop-color="#ade9f7"></stop><stop offset=".723" stop-color="#a0e1f7"></stop><stop offset=".943" stop-color="#80cbf7"></stop></linearGradient><path fill="url(#g)" d="M83,45H45c-4.418,0-8-3.582-8-8V13
				c0-4.418,3.582-8,8-8h38c4.418,0,8,3.582,8,8v24C91,41.418,87.418,45,83,45z"></path><path fill="#384051" d="M58 28c-.768 0-1.535-.293-2.121-.879-1.037-1.035-2.721-1.035-3.758 0-1.172 1.172-3.07 1.172-4.242 0-1.172-1.171-1.172-3.071 0-4.242 3.375-3.376 8.867-3.376 12.242 0 1.172 1.171 1.172 3.071 0 4.242C59.535 27.707 58.768 28 58 28zM78 28c-.768 0-1.535-.293-2.121-.879-1.037-1.035-2.721-1.035-3.758 0-1.172 1.172-3.07 1.172-4.242 0-1.172-1.171-1.172-3.071 0-4.242 3.375-3.376 8.867-3.376 12.242 0 1.172 1.171 1.172 3.071 0 4.242C79.535 27.707 78.768 28 78 28z"></path><linearGradient id="h" x1="34" x2="94" y1="25" y2="25" gradientUnits="userSpaceOnUse"><stop offset="0" stop-color="#a4eeff"></stop><stop offset=".732" stop-color="#02c0fc"></stop><stop offset="1" stop-color="#27a6ff"></stop></linearGradient><path fill="url(#h)" d="M83,48H45c-6.065,0-11-4.935-11-11V13
			c0-6.065,4.935-11,11-11h38c6.065,0,11,4.935,11,11v24C94,43.065,89.065,48,83,48z M45,8c-2.757,0-5,2.243-5,5v24
			c0,2.757,2.243,5,5,5h38c2.757,0,5-2.243,5-5V13c0-2.757-2.243-5-5-5H45z"></path></g></svg>